<svg width="10" height="13" viewBox="0 0 10 13" fill="none" xmlns="http://www.w3.org/2000/svg">
<path d="M1.00785 7.73673L4.53901 11.8575C4.59593 11.9239 4.66653 11.9772 4.74598 12.0137C4.82543 12.0503 4.91184 12.0692 4.99929 12.0692C5.08674 12.0692 5.17315 12.0503 5.2526 12.0137C5.33204 11.9772 5.40265 11.9239 5.45957 11.8575L8.99073 7.73673C9.32773 7.3434 9.04833 6.73584 8.53045 6.73584H1.46712C0.949242 6.73584 0.669841 7.3434 1.00785 7.73673Z" fill="#8B8E95"/>
<path d="M8.98995 4.33248L5.45879 0.211701C5.40187 0.145314 5.33127 0.0920259 5.25182 0.0554911C5.17237 0.0189568 5.08596 4.01769e-05 4.99851 4.01693e-05C4.91107 4.01617e-05 4.82466 0.0189568 4.74521 0.0554911C4.66576 0.0920258 4.59515 0.145314 4.53823 0.211701L1.00707 4.33248C0.670075 4.72582 0.949475 5.33337 1.46735 5.33337L8.53068 5.33337C9.04856 5.33337 9.32796 4.72582 8.98995 4.33248Z" fill="#8B8E95"/>
</svg>
