<svg width="48" height="48" viewBox="0 0 48 48" fill="none" xmlns="http://www.w3.org/2000/svg">
<g id="Coins/ADA">
<circle id="Ellipse 1" cx="24" cy="24" r="23.5" fill="white" stroke="#E0E0E0"/>
<g id="Layer_2_1_">
<g id="Layer_1-2">
<path id="Vector" d="M16.3773 23.9181C16.3053 25.1691 17.2683 26.24 18.5192 26.312C18.5642 26.312 18.6092 26.312 18.6542 26.312C19.9142 26.312 20.9311 25.2951 20.9221 24.0351C20.9221 22.7752 19.9052 21.7582 18.6452 21.7672C17.4393 21.7672 16.4403 22.7122 16.3773 23.9181Z" fill="#0033AD"/>
<path id="Vector_2" d="M7.89972 23.3331C7.49474 23.3061 7.14375 23.6211 7.12575 24.0261C7.10776 24.4311 7.41374 24.7821 7.81872 24.8001C8.22371 24.8271 8.56569 24.5121 8.59269 24.1071C8.61969 23.7021 8.3047 23.3601 7.89972 23.3331Z" fill="#0033AD"/>
<path id="Vector_3" d="M16.2335 10.7247C16.5934 10.5447 16.7374 10.0947 16.5574 9.73476C16.3775 9.37478 15.9275 9.23079 15.5675 9.41078C15.2075 9.59077 15.0635 10.0318 15.2435 10.3917C15.4235 10.7607 15.8645 10.9137 16.2335 10.7247C16.2245 10.7247 16.2335 10.7247 16.2335 10.7247Z" fill="#0033AD"/>
<path id="Vector_4" d="M18.5374 14.7475C19.0954 14.4685 19.3204 13.7846 19.0414 13.2266C18.7624 12.6686 18.0784 12.4436 17.5204 12.7226C16.9625 13.0016 16.7375 13.6856 17.0165 14.2436C17.2955 14.8015 17.9794 15.0265 18.5374 14.7475Z" fill="#0033AD"/>
<path id="Vector_5" d="M10.7794 17.5104C11.2114 17.7894 11.7873 17.6724 12.0753 17.2404C12.3543 16.8084 12.2373 16.2325 11.8053 15.9445C11.3733 15.6655 10.7974 15.7825 10.5094 16.2145C10.2214 16.6464 10.3474 17.2314 10.7794 17.5104Z" fill="#0033AD"/>
<path id="Vector_6" d="M12.1566 22.9282C11.5267 22.8922 10.9957 23.3691 10.9597 23.9991C10.9237 24.6291 11.4007 25.1601 12.0306 25.1961C12.6606 25.2321 13.1916 24.7551 13.2276 24.1251C13.2636 23.5041 12.7866 22.9642 12.1566 22.9282Z" fill="#0033AD"/>
<path id="Vector_7" d="M10.9057 30.5508C10.4467 30.7848 10.2577 31.3428 10.4917 31.8108C10.7257 32.2697 11.2837 32.4587 11.7516 32.2247C12.2106 31.9908 12.3996 31.4328 12.1656 30.9648C11.9316 30.5058 11.3647 30.3168 10.9057 30.5508Z" fill="#0033AD"/>
<path id="Vector_8" d="M15.3154 20.5793C15.9363 20.9842 16.7643 20.8133 17.1603 20.1923C17.5653 19.5713 17.3943 18.7433 16.7733 18.3474C16.1523 17.9424 15.3243 18.1134 14.9284 18.7343C14.5234 19.3463 14.6944 20.1743 15.3154 20.5793Z" fill="#0033AD"/>
<path id="Vector_9" d="M29.31 14.6575C29.8319 14.9995 30.5429 14.8555 30.8849 14.3335C31.2269 13.8116 31.0829 13.1006 30.5609 12.7586C30.0389 12.4166 29.328 12.5606 28.986 13.0826C28.635 13.6136 28.779 14.3155 29.31 14.6575Z" fill="#0033AD"/>
<path id="Vector_10" d="M31.6316 10.6527C31.9736 10.8777 32.4236 10.7787 32.6486 10.4367C32.8735 10.0948 32.7746 9.64477 32.4326 9.41978C32.0906 9.19479 31.6406 9.29379 31.4156 9.62677C31.1996 9.96876 31.2986 10.4277 31.6316 10.6527Z" fill="#0033AD"/>
<path id="Vector_11" d="M29.4807 21.7492C28.2297 21.6772 27.1498 22.6402 27.0868 23.8911C27.0148 25.1421 27.9778 26.222 29.2287 26.285C29.2737 26.285 29.3187 26.285 29.3547 26.285C30.6056 26.285 31.6226 25.2681 31.6226 24.0081C31.6316 22.8112 30.6866 21.8122 29.4807 21.7492Z" fill="#0033AD"/>
<path id="Vector_12" d="M19.2841 20.4173C19.6711 21.1822 20.4541 21.6682 21.318 21.6682C22.569 21.6682 23.5859 20.6513 23.5859 19.3913C23.5859 19.0403 23.5049 18.6893 23.3429 18.3654C22.776 17.2404 21.408 16.7904 20.2921 17.3574C19.1671 17.9334 18.7171 19.3013 19.2841 20.4173Z" fill="#0033AD"/>
<path id="Vector_13" d="M37.0943 17.5104C37.5533 17.2764 37.7333 16.7095 37.4993 16.2505C37.2653 15.7915 36.6984 15.6115 36.2394 15.8455C35.7804 16.0795 35.6004 16.6375 35.8254 17.0964C36.0684 17.5554 36.6264 17.7444 37.0943 17.5104Z" fill="#0033AD"/>
<path id="Vector_14" d="M31.3345 18.2304C30.6775 18.5634 30.4075 19.3643 30.7405 20.0213C31.0735 20.6783 31.8744 20.9482 32.5314 20.6153C33.1884 20.2823 33.4584 19.4813 33.1254 18.8243C32.7924 18.1674 31.9914 17.9064 31.3345 18.2304Z" fill="#0033AD"/>
<path id="Vector_15" d="M23.9099 10.3107C24.4229 10.3377 24.8638 9.94175 24.8998 9.42877C24.9358 8.91579 24.5308 8.47481 24.0179 8.43882C23.5049 8.41182 23.0639 8.7988 23.0279 9.31178C23.0009 9.83375 23.3969 10.2747 23.9099 10.3107Z" fill="#0033AD"/>
<path id="Vector_16" d="M23.9008 16.1875C24.6387 16.2325 25.2687 15.6655 25.3047 14.9275C25.3497 14.1896 24.7827 13.5596 24.0447 13.5236C23.3068 13.4786 22.6768 14.0456 22.6408 14.7835C22.6048 15.5215 23.1628 16.1515 23.9008 16.1875Z" fill="#0033AD"/>
<path id="Vector_17" d="M16.6654 29.8309C17.3224 29.4979 17.5924 28.6969 17.2594 28.0399C16.9264 27.383 16.1255 27.113 15.4685 27.446C14.8115 27.7789 14.5415 28.5799 14.8745 29.2369C15.2075 29.8939 16.0085 30.1638 16.6654 29.8309Z" fill="#0033AD"/>
<path id="Vector_18" d="M24.7651 18.1404C24.0811 19.1933 24.3691 20.5973 25.422 21.2812C26.475 21.9652 27.8789 21.6772 28.5629 20.6242C29.2469 19.5713 28.9589 18.1674 27.9059 17.4834C27.537 17.2404 27.105 17.1144 26.664 17.1144C25.899 17.1144 25.1881 17.5014 24.7651 18.1404Z" fill="#0033AD"/>
<path id="Vector_19" d="M28.716 27.644C28.149 26.519 26.7811 26.069 25.6651 26.636C24.5402 27.203 24.0902 28.5709 24.6572 29.6869C25.2241 30.8118 26.5921 31.2618 27.708 30.6948C28.824 30.1368 29.283 28.7869 28.725 27.662C28.725 27.653 28.725 27.653 28.716 27.644Z" fill="#0033AD"/>
<path id="Vector_20" d="M32.6847 27.482C32.0637 27.077 31.2357 27.248 30.8397 27.8689C30.4348 28.4899 30.6058 29.3179 31.2267 29.7139C31.8477 30.1188 32.6757 29.9478 33.0717 29.3269C33.4766 28.7149 33.3056 27.8869 32.6847 27.482Z" fill="#0033AD"/>
<path id="Vector_21" d="M37.0403 24.0711C37.0763 23.4411 36.5993 22.9102 35.9694 22.8742C35.3394 22.8382 34.8084 23.3151 34.7724 23.9451C34.7364 24.5751 35.2134 25.1061 35.8434 25.1421C36.4643 25.1781 37.0043 24.6921 37.0403 24.0711Z" fill="#0033AD"/>
<path id="Vector_22" d="M40.1815 23.2612C39.7765 23.2342 39.4255 23.5491 39.4075 23.9541C39.3895 24.3591 39.6955 24.7101 40.1005 24.7281C40.5054 24.7551 40.8474 24.4401 40.8744 24.0351C40.8924 23.6301 40.5864 23.2881 40.1815 23.2612Z" fill="#0033AD"/>
<path id="Vector_23" d="M37.2201 30.5508C36.7881 30.2718 36.2121 30.3888 35.9241 30.8208C35.6451 31.2528 35.7621 31.8288 36.1941 32.1168C36.6261 32.3957 37.2021 32.2787 37.49 31.8468C37.778 31.4148 37.652 30.8298 37.2201 30.5508Z" fill="#0033AD"/>
<path id="Vector_24" d="M16.3594 37.4085C16.0174 37.1835 15.5674 37.2825 15.3424 37.6155C15.1175 37.9575 15.2164 38.4075 15.5494 38.6325C15.8914 38.8575 16.3414 38.7585 16.5664 38.4255C16.8004 38.0925 16.7014 37.6335 16.3594 37.4085Z" fill="#0033AD"/>
<path id="Vector_25" d="M31.7667 37.3365C31.4067 37.5165 31.2627 37.9665 31.4427 38.3265C31.6227 38.6865 32.0727 38.8304 32.4327 38.6505C32.7927 38.4705 32.9367 38.0295 32.7567 37.6695C32.5767 37.3005 32.1357 37.1475 31.7667 37.3365C31.7757 37.3365 31.7667 37.3365 31.7667 37.3365Z" fill="#0033AD"/>
<path id="Vector_26" d="M23.2351 29.9209C23.919 28.8679 23.631 27.464 22.5781 26.771C21.5251 26.087 20.1212 26.375 19.4282 27.428C18.7353 28.4809 19.0322 29.8849 20.0852 30.5778C20.4542 30.8208 20.8862 30.9468 21.3271 30.9468C22.1011 30.9558 22.8121 30.5688 23.2351 29.9209Z" fill="#0033AD"/>
<path id="Vector_27" d="M18.6904 33.4037C18.1684 33.0617 17.4574 33.2057 17.1154 33.7277C16.7734 34.2497 16.9174 34.9606 17.4394 35.3026C17.9614 35.6446 18.6724 35.5006 19.0143 34.9786C19.3653 34.4566 19.2213 33.7457 18.6904 33.4037Z" fill="#0033AD"/>
<path id="Vector_28" d="M23.9907 37.7505C23.4777 37.7235 23.0368 38.1195 23.0008 38.6325C22.9648 39.1454 23.3697 39.5864 23.8827 39.6224C24.3957 39.6494 24.8367 39.2624 24.8727 38.7495C24.8997 38.2275 24.5037 37.7865 23.9907 37.7505Z" fill="#0033AD"/>
<path id="Vector_29" d="M24 31.8738C23.262 31.8288 22.632 32.3957 22.596 33.1337C22.551 33.8717 23.118 34.5017 23.856 34.5377C24.5939 34.5736 25.2239 34.0157 25.2599 33.2777C25.3049 32.5487 24.7379 31.9098 24 31.8738Z" fill="#0033AD"/>
<path id="Vector_30" d="M29.4628 33.3137C28.9049 33.6017 28.6799 34.2857 28.9679 34.8436C29.2558 35.4016 29.9398 35.6266 30.4978 35.3386C31.0558 35.0596 31.2808 34.3757 31.0018 33.8177C30.7138 33.2597 30.0298 33.0257 29.4628 33.3137Z" fill="#0033AD"/>
</g>
</g>
</g>
</svg>
