<svg width="48" height="48" viewBox="0 0 48 48" fill="none" xmlns="http://www.w3.org/2000/svg">
<g id="Coins/AVAX">
<g id="Group">
<path id="Vector" d="M24 48C37.2548 48 48 37.2548 48 24C48 10.7452 37.2548 0 24 0C10.7452 0 0 10.7452 0 24C0 37.2548 10.7452 48 24 48Z" fill="#E84142"/>
<path id="Vector_2" d="M32.4663 24.6236C33.2978 23.1874 34.6395 23.1874 35.471 24.6236L40.649 33.7134C41.4805 35.1496 40.8002 36.3213 39.1372 36.3213H28.7057C27.0616 36.3213 26.3813 35.1496 27.1939 33.7134L32.4663 24.6236ZM22.4506 7.12441C23.282 5.68819 24.6049 5.68819 25.4364 7.12441L26.5891 9.20315L29.3104 13.9842C29.9718 15.3449 29.9718 16.9512 29.3104 18.3118L20.1828 34.1291C19.3513 35.4142 17.9718 36.2268 16.4411 36.3213H8.86315C7.20016 36.3213 6.51984 35.1685 7.35134 33.7134L22.4506 7.12441Z" fill="white"/>
</g>
</g>
</svg>
