<svg width="48" height="48" viewBox="0 0 48 48" fill="none" xmlns="http://www.w3.org/2000/svg">
<g id="Coins/BNB">
<circle id="Ellipse 1" cx="24" cy="24" r="24" fill="#F3BA2F"/>
<g id="Layer 2">
<g id="Layer 1">
<path id="Vector" d="M17.4454 21.307L23.9999 14.7525L30.5575 21.3099L34.3713 17.4961L23.9999 7.125L13.632 17.493L17.4456 21.3068L17.4454 21.307ZM7.125 24L10.9389 20.1856L14.7525 23.9992L10.9386 27.8131L7.125 24ZM17.4454 26.6934L23.9999 33.2475L30.5574 26.6903L34.3732 30.502L34.3713 30.504L23.9999 40.875L13.632 30.507L13.6266 30.5016L17.4458 26.693L17.4454 26.6934ZM33.2474 24.0016L37.0613 20.1877L40.8749 24.0014L37.0611 27.8152L33.2474 24.0016Z" fill="white"/>
<path id="Vector_2" d="M27.868 23.998H27.8696L24 20.1281L21.1397 22.9875L20.8111 23.3162L20.1335 23.9941L20.1281 23.9993L20.1335 24.0049L24 27.8719L27.8699 24.002L27.8718 23.9999L27.8683 23.998" fill="white"/>
</g>
</g>
</g>
</svg>
