<svg width="48" height="48" viewBox="0 0 48 48" fill="none" xmlns="http://www.w3.org/2000/svg">
<g id="Coins/BTC">
<g id="Layer_x0020_1">
<g id="_1421344023328">
<path id="Vector" d="M47.2819 29.8057C44.0762 42.663 31.0524 50.4877 18.1921 47.2815C5.33727 44.0761 -2.4883 31.0529 0.718846 18.1967C3.92317 5.33806 16.947 -2.48721 29.8032 0.718162C42.6625 3.92353 50.4876 16.9481 47.2816 29.8059L47.2818 29.8057H47.2819Z" fill="#F7931A"/>
<path id="Vector_2" d="M34.6138 20.5806C35.0915 17.3867 32.6599 15.6699 29.3349 14.5246L30.4135 10.1982L27.7799 9.54196L26.7299 13.7544C26.0375 13.5818 25.3265 13.419 24.6198 13.2577L25.6775 9.01747L23.0455 8.36124L21.9663 12.6862C21.3934 12.5558 20.8306 12.4268 20.2847 12.291L20.2877 12.2774L16.6559 11.3705L15.9553 14.1833C15.9553 14.1833 17.9093 14.6312 17.8681 14.6588C18.9345 14.925 19.1274 15.6309 19.0954 16.1905L17.8667 21.1193C17.9401 21.1379 18.0354 21.1649 18.1405 21.2071C18.0526 21.1853 17.9591 21.1615 17.8621 21.1383L16.1399 28.0428C16.0095 28.3668 15.6787 28.853 14.9331 28.6684C14.9595 28.7066 13.019 28.1907 13.019 28.1907L11.7114 31.2053L15.1386 32.0597C15.7762 32.2196 16.401 32.3869 17.0163 32.5442L15.9265 36.9202L18.557 37.5764L19.6363 33.2469C20.3549 33.442 21.0523 33.6219 21.7351 33.7915L20.6595 38.1007L23.2932 38.7569L24.3829 34.3891C28.8737 35.239 32.2505 34.8964 33.6718 30.8344C34.8171 27.564 33.6148 25.6777 31.2522 24.4476C32.973 24.0507 34.2692 22.9189 34.6148 20.5809L34.6139 20.5803L34.6138 20.5806ZM28.5966 29.0182C27.7827 32.2886 22.2765 30.5207 20.4912 30.0774L21.9374 24.2799C23.7225 24.7256 29.4473 25.6075 28.5968 29.0182H28.5966ZM29.4111 20.5332C28.6687 23.5079 24.0857 21.9966 22.5991 21.626L23.9102 16.3681C25.3969 16.7387 30.1845 17.4303 29.4114 20.5332H29.4111Z" fill="white"/>
</g>
</g>
</g>
</svg>
