<svg width="48" height="48" viewBox="0 0 48 48" fill="none" xmlns="http://www.w3.org/2000/svg">
<g id="Coins/BUSD" clip-path="url(#clip0_114_616)">
<path id="Vector" d="M24.0002 48C37.2551 48 48.0003 37.2548 48.0003 24C48.0003 10.7452 37.2551 0 24.0002 0C10.7454 0 0.000244141 10.7452 0.000244141 24C0.000244141 37.2548 10.7454 48 24.0002 48Z" fill="#F3BA2F"/>
<g id="Layer 2">
<g id="Layer 1">
<path id="Vector_2" d="M24.0435 7.125L28.212 11.394L17.7154 21.8906L13.5469 17.7221L24.0435 7.125Z" fill="white"/>
<path id="Vector_3" d="M30.3717 13.4531L34.5402 17.7221L17.7154 34.5469L13.5469 30.3783L30.3717 13.4531Z" fill="white"/>
<path id="Vector_4" d="M11.3873 19.7812L15.5558 24.0502L11.3873 28.2188L7.21875 24.0502L11.3873 19.7812Z" fill="white"/>
<path id="Vector_5" d="M36.6998 19.7812L40.8683 24.0502L24.0435 40.875L19.875 36.7065L36.6998 19.7812Z" fill="white"/>
</g>
</g>
</g>
<defs>
<clipPath id="clip0_114_616">
<rect width="48" height="48" fill="white"/>
</clipPath>
</defs>
</svg>
