<svg width="48" height="48" viewBox="0 0 48 48" fill="none" xmlns="http://www.w3.org/2000/svg">
<g id="Coins/DOGE">
<path id="Vector" d="M24 48C37.2548 48 48 37.2548 48 24C48 10.7452 37.2548 0 24 0C10.7452 0 0 10.7452 0 24C0 37.2548 10.7452 48 24 48Z" fill="#988430"/>
<path id="Vector_2" d="M24 47.2312C36.8303 47.2312 47.2313 36.8303 47.2313 24C47.2313 11.1698 36.8303 0.768776 24 0.768776C11.1698 0.768776 0.768799 11.1698 0.768799 24C0.768799 36.8303 11.1698 47.2312 24 47.2312Z" fill="#7A6A2A"/>
<path id="Vector_3" d="M24.0003 46.7418C36.5602 46.7418 46.7421 36.5599 46.7421 24C46.7421 11.4401 36.5602 1.25824 24.0003 1.25824C11.4404 1.25824 1.25854 11.4401 1.25854 24C1.25854 36.5599 11.4404 46.7418 24.0003 46.7418Z" fill="#BA9F33"/>
<path id="Vector_4" fill-rule="evenodd" clip-rule="evenodd" d="M10.4937 21.4369C10.3577 21.3128 10.2141 21.1883 10.082 21.0642C9.94991 20.94 9.81423 20.8156 9.6783 20.6915L9.27433 20.3075C9.20828 20.2414 9.13839 20.1833 9.07235 20.117C9.0063 20.0589 8.92873 19.9928 8.86268 19.9345C8.32662 19.4258 7.78748 18.9171 7.25884 18.4082C7.80643 18.9092 8.34249 19.4066 8.89007 19.915L9.08028 20.1055C9.14633 20.1713 9.21622 20.2296 9.28227 20.2957L9.68598 20.6684C9.82191 20.7926 9.95401 20.917 10.0899 21.0524C10.2259 21.1878 10.358 21.3125 10.4939 21.4364L10.4937 21.4369ZM3.37916 21.3601C3.37916 21.3601 5.3286 21.5619 6.28015 21.6978C7.16156 21.8222 9.91894 22.2454 9.91894 22.2454L3.37916 21.3601ZM3.37916 21.3601C3.92675 21.4067 4.47433 21.4648 5.02191 21.5232C5.30147 21.5503 5.5695 21.5813 5.83753 21.6084L6.24892 21.6553C6.38486 21.6745 6.51695 21.6939 6.65289 21.7134L8.28412 21.9735L9.09948 22.1094C9.36751 22.156 9.63555 22.2067 9.9151 22.2533C9.64707 22.2262 9.36751 22.1873 9.09948 22.1483L8.28412 22.0319L6.65289 21.7912C6.51695 21.7718 6.38486 21.7444 6.24892 21.7252L5.83727 21.6778C5.56924 21.6507 5.28969 21.6118 5.02166 21.5805C4.47407 21.5147 3.92649 21.4446 3.37891 21.3594L3.37916 21.3601ZM9.72489 22.7533C9.72489 22.7533 7.64335 23.2817 6.94038 23.4836C6.24918 23.6739 4.15587 24.3108 4.15587 24.3108L9.72463 22.7535L9.72489 22.7533Z" fill="#CFB66C"/>
<path id="Vector_5" fill-rule="evenodd" clip-rule="evenodd" d="M9.7238 22.7533C9.26172 22.8892 8.8022 23.0213 8.33347 23.1457L6.94313 23.5185C6.48105 23.6544 6.02153 23.7865 5.56073 23.9224L4.86953 24.1126C4.64041 24.1787 4.40745 24.2368 4.17065 24.3031C4.39952 24.2263 4.63273 24.1477 4.86185 24.0817L5.55305 23.8605C6.01513 23.7166 6.47465 23.5807 6.93545 23.4371C7.40521 23.3206 7.86755 23.1962 8.33731 23.0835C8.78377 22.9709 9.25379 22.8585 9.7238 22.7535V22.7533ZM4.44637 25.5923C4.67523 25.5068 7.31612 24.276 7.92976 23.9885C8.23696 23.8446 9.12988 23.5277 9.12988 23.5277L4.44637 25.5923Z" fill="#CFB66C"/>
<path id="Vector_6" fill-rule="evenodd" clip-rule="evenodd" d="M4.44703 25.5923C4.64876 25.5155 4.83923 25.4216 5.03327 25.3322L5.60799 25.0642L6.76153 24.5089C7.14553 24.3264 7.51877 24.1249 7.91481 23.9534C8.11679 23.8682 8.31877 23.7983 8.5205 23.7322L8.8277 23.6352C8.93241 23.6081 9.02969 23.5768 9.1349 23.5497C8.7509 23.7322 8.34668 23.8876 7.96217 24.0661C7.57817 24.2565 7.18546 24.4119 6.78918 24.5827L5.61644 25.099C5.22271 25.2585 4.83871 25.4293 4.44678 25.5923H4.44703ZM4.70303 26.6675C4.70303 26.6675 7.09509 25.2657 7.91839 24.8151C8.34949 24.5745 9.74367 23.883 9.74367 23.883L4.70303 26.6675Z" fill="#CFB66C"/>
<path id="Vector_7" fill-rule="evenodd" clip-rule="evenodd" d="M4.70288 26.668C5.10659 26.4195 5.51824 26.167 5.92989 25.9108L6.54429 25.5378C6.75395 25.4136 6.95594 25.2972 7.1697 25.173C7.37936 25.0486 7.58134 24.9244 7.79485 24.8079C7.89649 24.7452 8.00298 24.6906 8.11331 24.6449L8.43945 24.4818C8.87056 24.2721 9.30166 24.0584 9.75606 23.8758C9.34441 24.1362 8.92099 24.3576 8.49782 24.5865C8.28816 24.703 8.0744 24.8079 7.86473 24.9244C7.65507 25.0409 7.45309 25.1653 7.23933 25.278C7.02966 25.4021 6.82768 25.5186 6.61418 25.6312L5.98109 25.9768L4.70339 26.668H4.70288ZM9.72406 24.1902C9.72406 24.1902 8.2367 25.332 7.75517 25.697C7.27363 26.0621 5.85616 27.0874 5.85616 27.0874L9.72406 24.1902Z" fill="#CFB66C"/>
<path id="Vector_8" fill-rule="evenodd" clip-rule="evenodd" d="M18.2604 33.398L17.4993 31.9573L17.9419 30.1553L21.0991 28.9359L19.7554 26.1788L20.4195 23.3943L21.6662 20.9009L25.5187 20.2952L28.3496 17.5962L34.4623 18.0582L35.6622 24.5942L33.3515 32.8233L32.0352 37.0837L26.6991 37.2856L24.2216 35.5692L21.3206 34.3573L18.2604 33.398Z" fill="#E2CC85"/>
<path id="Vector_9" fill-rule="evenodd" clip-rule="evenodd" d="M27.6193 33.3514C27.6193 33.3514 26.8812 33.6894 25.6225 33.6115C25.2582 33.1223 22.7069 32.8932 22.7069 32.8932C22.7069 32.8932 22.3884 32.7962 21.8252 33.0291C21.2584 33.2595 20.7224 33.2311 20.2214 33.3553C19.7204 33.4794 19.223 32.8271 18.839 32.6912C18.455 32.5476 17.9458 32.202 17.9458 32.202L16.8706 32.097L14.7115 31.1844L11.2814 27.767L10.3493 29.2262L10.0618 31.0321L11.0988 33.172L13.891 35.7156L19.3356 37.098L22.5628 36.1472L26.6055 34.4384L27.6193 33.3512V33.3514Z" fill="#F1D789"/>
<path id="Vector_10" fill-rule="evenodd" clip-rule="evenodd" d="M8.27584 21.2739L8.96703 19.1808L9.79059 17.8291L12.4427 17.6077L11.6466 19.9301L9.42937 23.8758L10.3497 27.3981L8.71872 28.2135L8.21747 27.4447L7.81376 25.6817L7.78662 23.701L8.27584 21.2739Z" fill="#F4ECB4"/>
<path id="Vector_11" fill-rule="evenodd" clip-rule="evenodd" d="M11.25 33.2078L10.7413 32.4971C10.7413 32.4971 10.6054 32.1592 10.6832 31.864C10.76 31.565 10.749 31.5456 10.7104 31.4329C10.6717 31.3203 10.3453 30.932 10.3648 30.5979C10.384 30.26 10.3376 30.1473 10.5859 29.8795C10.846 29.6194 10.7685 29.1689 10.7685 29.1689L11.1064 29.3785L11.1832 29.2621C11.1832 29.2621 11.3074 29.3591 11.3074 29.5106C11.3345 29.301 11.2218 28.33 11.4781 28.1088C11.7344 27.8876 12.1888 29.1456 12.1888 29.1456L11.9092 27.3203L11.1906 25.4487L9.91292 23.7399L9.83612 21.8563V21.6932C9.83612 21.6932 9.24962 22.5943 9.08655 23.306C8.97007 23.7952 9.24963 24.3894 9.19151 25.0923C9.14467 25.7915 9.08655 25.737 9.25731 26.0139C9.42806 26.2909 9.8438 26.8605 9.68073 27.2722C9.53711 27.6257 9.04764 27.3771 9.04764 27.3771C9.04764 27.3771 8.95062 27.6644 8.81852 27.7693C8.77193 27.5986 8.7215 27.4898 8.62831 27.3853C8.62038 27.4514 8.60118 27.5407 8.60118 27.5407C8.60118 27.5407 8.51567 27.2727 8.43017 26.9348C8.31395 26.4845 8.18953 25.8903 8.07689 25.5718C8.0303 25.7544 7.91382 26.3096 7.91382 26.3096L7.97987 27.1642L8.29833 28.3369L8.60553 29.1049L8.90454 30.0447L9.16438 30.676L9.37404 31.1575L9.55657 32.2411L10.438 33.173L10.908 33.3829L11.2495 33.208L11.25 33.2078Z" fill="#F3E19D"/>
<path id="Vector_12" fill-rule="evenodd" clip-rule="evenodd" d="M8.73753 19.5651C8.73753 19.5651 8.10444 20.6403 7.92217 21.7242C7.73989 22.8081 7.57657 23.9534 7.69177 25.429C7.80825 26.9166 8.02969 27.829 8.20837 28.4815C8.51557 29.5652 9.31122 31.072 9.31122 31.072L9.33836 31.0136C9.20462 30.7601 9.09788 30.4933 9.01989 30.2175C8.91493 29.8058 8.87602 29.3166 8.779 29.0952C8.69349 28.874 8.54988 28.6835 8.47999 28.4116C8.41394 28.1515 8.40319 27.7399 8.20044 27.4332C8.11493 27.3088 8.00997 26.9826 7.979 26.6565C7.94009 26.167 7.99845 25.6194 7.95186 25.1691C7.86636 24.4196 7.80825 23.9109 7.88581 23.5185C7.96338 23.126 8.36761 22.0119 8.61618 21.1264C8.77925 20.5594 8.68197 20.0817 8.98098 19.5883C9.27999 19.0991 9.46277 18.668 9.52857 18.369C9.60537 18.0972 8.7365 19.5651 8.7365 19.5651H8.73753Z" fill="#F2E8B0"/>
<path id="Vector_13" fill-rule="evenodd" clip-rule="evenodd" d="M11.7399 19.134C11.7399 19.134 11.4138 19.2312 11.2584 19.402C11.103 19.5651 11.037 19.701 10.8273 19.9767C10.6176 20.2524 10.6058 20.4777 10.4348 20.8233C10.2641 21.1612 9.88726 21.6699 9.84066 21.8524C9.79407 22.0349 9.7165 22.8892 9.61948 23.2932C9.53398 23.6972 9.7165 24.1943 9.7165 24.1943L9.93769 24.1475C9.93769 24.1475 9.93769 24.4349 10.1591 24.6293C10.3803 24.8195 10.4192 23.9844 10.4192 23.9844L11.2464 21.1922L12.4928 20.3456L12.6288 19.6621L11.7394 19.134H11.7399Z" fill="#F5EEC0"/>
<path id="Vector_14" fill-rule="evenodd" clip-rule="evenodd" d="M12.3451 20.4001C12.3451 20.4001 11.7586 20.4388 11.4713 20.6487C11.3549 20.734 11.3083 20.8038 11.1841 20.9088C10.955 21.099 10.7218 21.2739 10.6094 21.5232C10.485 21.7715 10.349 22.1483 10.2558 22.859C10.2169 23.158 10.2169 23.4337 10.1898 23.6746C10.1509 24.0008 10.0928 24.2609 10.1238 24.4426C10.1627 24.8153 10.5472 25.0097 10.5846 25.4328L11.3807 25.0291L12.1303 22.0736L13.7226 21.0752L12.8215 20.0655L12.344 20.3983L12.3451 20.4001Z" fill="#E6DB9D"/>
<path id="Vector_15" fill-rule="evenodd" clip-rule="evenodd" d="M8.14527 40.3018C8.1486 40.2726 8.15193 40.2435 8.15526 40.2135C8.27148 39.2151 8.29119 38.4584 8.37644 37.9845C8.5006 37.3128 8.58611 37.0629 8.56665 36.8115C8.53952 36.4078 8.50854 36.1126 8.54745 35.8019C8.60556 35.3902 9.00953 34.901 8.99801 34.5631C8.99007 34.295 8.85414 34.1204 8.73766 33.9574C8.62118 33.7943 8.528 33.6584 8.528 33.6584C8.528 33.6584 9.32415 33.1108 9.31647 30.9048C9.33273 30.9094 9.34838 30.9159 9.36307 30.9243L9.75526 32.0387L10.0233 32.3648L11.0524 34.2833L12.3767 35.5689L14.3338 36.8852L15.5611 38.2208L15.6852 41.782L14.0814 43.8636L13.8187 44.3392C11.732 43.2916 9.81848 41.9299 8.14502 40.3016L8.14527 40.3018Z" fill="#E5CB7A"/>
<path id="Vector_16" fill-rule="evenodd" clip-rule="evenodd" d="M13.0449 43.7087C13.0449 43.7087 13.0721 43.2661 13.4371 42.9786C13.4955 43.0756 13.5341 43.169 13.5226 43.2387C13.5887 43.1224 14.0507 42.3767 15.0955 42.1824C16.1402 41.9922 16.3926 41.2311 16.3926 41.2311L18.6098 39.2156L21.1458 36.8817L24.2293 35.798L25.6703 35.4445C25.6703 35.4445 25.6975 35.5494 25.6432 35.7824C25.911 35.7632 26.5051 35.6273 27.1226 35.4097C27.3712 35.3126 27.6044 35.2737 27.7286 35.402C27.9111 35.5727 27.9382 35.9767 27.9498 36.2173C28.2488 36.1513 28.5944 35.8641 28.8714 35.8912C29.3142 35.9378 29.7064 36.4582 30.157 36.4582C30.7512 36.4582 31.0189 36.0932 31.4347 35.8057C31.6833 35.6349 32.0404 35.4217 32.2424 35.2776C32.7239 34.924 37.8191 33.3668 37.8191 33.3668L39.6054 33.4833L39.8929 35.4017L39.7393 40.4168C39.7204 40.4349 39.7014 40.4539 39.6822 40.4721L31.5599 44.7142L20.301 46.4402C17.779 46.0281 15.3452 45.191 13.1033 43.9644L13.0457 43.7084L13.0449 43.7087Z" fill="#D8C173"/>
<path id="Vector_17" fill-rule="evenodd" clip-rule="evenodd" d="M8.82812 40.9398C8.98812 40.6052 9.132 40.3254 9.15734 40.2253C9.17731 40.427 9.21392 40.8696 9.28764 41.3402C9.13285 41.2086 8.97968 41.075 8.82812 40.9395V40.9398Z" fill="#F1D789"/>
<path id="Vector_18" fill-rule="evenodd" clip-rule="evenodd" d="M17.0528 45.6594L18.5089 45.2544L18.6331 45.2933C18.6331 45.2933 18.6992 45.3322 18.6992 45.4641C18.8817 45.3594 19.0371 45.3786 19.1497 45.3089C19.2078 45.4331 19.2659 45.8447 19.5225 45.8952C19.7902 45.9535 20.0777 45.7787 20.369 45.5575C20.6563 45.3284 20.9834 45.0409 21.231 44.9244C21.3218 45.0914 21.4023 45.2639 21.4719 45.4408C21.798 45.1807 22.3651 44.1244 23.1728 44.1436C23.4062 43.5919 23.7962 43.1208 24.2946 42.7884C25.0441 42.2797 25.5139 42.2408 26.1004 42.2874C26.3333 41.9848 26.6204 41.728 26.947 41.5301C27.044 41.569 27.312 41.7321 27.6461 41.5767C27.984 41.4216 28.3644 40.8195 28.8654 40.7419C29.1354 40.7047 29.4099 40.7624 29.6421 40.905C29.6421 40.905 31.1013 39.4563 32.1082 38.9747C32.0693 38.8582 31.9917 38.4195 33.1721 37.4484C33.2382 37.5068 33.1916 37.6699 33.2382 37.6788C33.2574 37.6788 33.5454 37.5547 33.9099 37.2749C34.3605 36.9372 34.9001 36.5837 35.2263 36.4867C35.8407 36.3041 36.4924 36.6769 36.4924 36.6769C36.5479 36.638 36.6096 36.6091 36.675 36.5914C36.8301 36.5642 36.9428 36.5448 37.0283 36.5146C37.0206 36.7165 37.1332 37.0621 37.0283 37.3612C37.1498 37.4295 37.2786 37.4842 37.4123 37.5242C37.3465 37.6678 37.2026 38.0329 36.9619 38.2077C37.1637 38.3048 37.1908 38.4174 37.4783 38.5149C37.3618 38.678 37.1711 38.9578 37.0861 39.1293C37.0006 39.3119 36.6937 40.0691 36.5577 40.3564C36.4141 40.6438 36.2201 41.172 36.1266 41.278C36.0332 41.3839 35.6955 41.8332 35.4354 42.0544C35.6658 41.9689 36.6084 41.6817 37.0083 41.5729C36.8892 41.7475 36.2859 42.6427 35.7058 43.5036C32.9283 45.1684 29.8279 46.222 26.6112 46.5944C23.3945 46.9668 20.1354 46.6494 17.051 45.6632L17.0528 45.6594Z" fill="#E0CD81"/>
<path id="Vector_19" fill-rule="evenodd" clip-rule="evenodd" d="M12.4412 20.2952C12.4412 20.2952 12.1036 20.2952 12.0375 20.3418C11.9715 20.3884 12.3754 20.4856 12.4996 20.5322C12.6238 20.5788 12.8918 20.7923 12.9617 20.9633C13.0277 21.1264 15.3888 22.0777 15.3888 22.0777L17.0587 21.9922L17.6344 21.1968L16.5393 20.2376L17.3073 17.9735L16.2899 18.1366L13.8433 19.5958L12.6161 20.0658L12.4412 20.2952Z" fill="#DFC57C"/>
<path id="Vector_20" fill-rule="evenodd" clip-rule="evenodd" d="M16.1089 21.0447C16.133 21.0838 16.167 21.1159 16.2075 21.1377C16.2479 21.1595 16.2934 21.1702 16.3393 21.1689C16.6849 21.1689 17.0031 21.2544 17.1352 21.429C17.3566 21.7088 17.9703 22.602 17.9703 22.602L19.4382 23.1301L19.5329 21.4016L17.929 20.2872L16.1038 20.959V21.0445H16.1079L16.1089 21.0447Z" fill="#E5CC7C"/>
<path id="Vector_21" fill-rule="evenodd" clip-rule="evenodd" d="M15.8207 21.6855C15.8207 21.6855 16.0885 21.705 16.4264 21.5805C16.7643 21.4561 17.3196 21.1884 17.5605 21.2933C17.8982 21.4369 17.8283 21.8875 18.1936 22.2917C18.4148 22.5403 18.8187 22.5326 19.0479 22.8006C19.277 23.0687 20.0652 22.9443 20.0652 22.9443L20.3642 24.5571L19.1643 26.0951L18.7719 28.0056H17.1494L15.6671 27.4176L14.937 25.6512L15.3021 23.8648L15.8207 21.6855Z" fill="#D2C281"/>
<path id="Vector_22" fill-rule="evenodd" clip-rule="evenodd" d="M18.959 21.7631C18.9992 21.7755 19.0411 21.782 19.0832 21.7825C19.0366 21.8214 18.9393 21.9067 18.9782 22.1281C19.0171 22.3496 19.1413 22.6291 19.0366 22.7999C19.1202 22.8913 19.1825 23 19.2191 23.1183C19.2851 23.3088 19.3046 23.4834 19.7354 23.5108C19.6733 23.5491 19.6159 23.5947 19.5647 23.6467C19.5647 23.6467 19.8637 23.9068 20.0153 24.1474C20.1704 24.1408 20.582 24.0128 20.582 24.0128L20.6675 24.0712L20.8501 23.9944C20.8501 23.9944 20.6793 23.9283 20.8035 23.5128C20.92 23.1478 21.0249 23.1672 21.0339 23.1401C21.0428 23.113 21.1194 22.7284 21.1194 22.5731C21.1775 22.3713 21.2241 21.7577 21.2241 21.7577L21.0999 20.4024L20.4011 19.979L19.8327 19.4304L19.2967 20.4401L18.9436 20.7921L18.9165 21.6658L18.959 21.7631Z" fill="#E2C270"/>
<path id="Vector_23" fill-rule="evenodd" clip-rule="evenodd" d="M20.6409 20.6292C20.6409 20.6292 20.765 20.9825 20.8119 21.2544C20.8284 21.2015 20.8375 21.1467 20.839 21.0913C20.839 21.0913 20.936 21.6274 20.9552 21.8488C20.9941 21.8409 21.032 21.8294 21.0407 21.868C21.0494 21.9067 21.138 22.338 21.1175 22.5787C21.2793 22.3119 21.503 22.0881 21.7698 21.9264C21.9252 21.8291 22.1077 21.7244 22.2982 21.7165C22.5972 21.7088 22.8146 21.9069 23.1719 21.9069C24.0339 21.9069 24.8147 21.2738 25.3894 21.0798C25.8126 20.9359 26.1776 20.8312 26.4339 20.598C26.5583 20.4933 26.7797 20.2603 26.9815 19.9145C27.2495 19.4537 27.5291 19.0525 27.8089 19.0021C27.6823 19.0254 27.5535 19.0345 27.4249 19.0292C27.4249 19.0292 27.5104 18.9437 27.6553 18.8272C27.8002 18.7108 27.9737 18.5672 28.2221 18.5672C28.6649 18.5672 28.8861 18.6329 29.1347 18.6329C29.3833 18.6253 29.5269 18.5672 29.5269 18.5672C29.5269 18.5672 29.7872 18.7497 30.3735 18.7497C30.96 18.7574 31.3522 18.8078 31.6591 18.8352C31.9661 18.8626 32.9949 18.7497 33.2901 18.7584C33.4825 18.7658 33.6715 18.812 33.8456 18.8943L32.8941 16.1295L29.4759 13.142L27.441 14.5828L24.3106 17.7129L21.2816 18.8352L20.6485 19.5458V20.6292H20.6409Z" fill="#CCB360"/>
<path id="Vector_24" fill-rule="evenodd" clip-rule="evenodd" d="M27.4373 19.0446C27.4373 19.0446 27.5228 18.9594 27.6661 18.8429C27.8095 18.7264 27.9848 18.5825 28.2332 18.5825C28.6758 18.5825 28.8972 18.6486 29.1458 18.6486C29.3944 18.6409 29.538 18.5825 29.538 18.5825C29.538 18.5825 29.7986 18.7648 30.3846 18.7648C30.9711 18.7725 31.3633 18.8229 31.6702 18.85C31.9772 18.8772 33.006 18.7648 33.3012 18.7732C33.4936 18.7805 33.6825 18.8267 33.8564 18.9092L33.4253 17.6625L32.9246 16.7112L31.4954 15.146C31.4954 15.146 29.7802 14.1363 29.7671 14.1286C29.7594 14.121 29.1729 13.9656 29.1729 13.9656L27.6195 14.9053L26.21 18.5521L26.1829 19.3201L27.0952 19.7512C27.3244 19.3672 27.577 19.06 27.8138 19.021C27.6001 19.0443 27.437 19.0443 27.437 19.0443L27.4373 19.0446Z" fill="#D5B457"/>
<path id="Vector_25" fill-rule="evenodd" clip-rule="evenodd" d="M27.4179 19.305C27.282 19.3126 27.1696 19.2855 27.1384 19.1885C27.0219 18.8623 26.9287 18.8157 26.8312 18.8157C26.7336 18.8157 26.602 19.0254 26.524 19.0446C26.4459 19.0638 26.3532 18.804 26.3532 18.804L26.2677 18.7651C26.2677 18.7651 25.7667 19.0912 25.4134 19.4757C25.0602 19.8602 24.4813 20.5128 24.2212 20.629C23.9612 20.7452 23.0677 20.7844 22.762 20.8504C22.4564 20.9165 22.1174 21.1379 22.0708 21.1884C22.0243 21.2388 22.207 21.2931 22.2342 21.3435C22.2613 21.3901 21.9349 21.3706 21.9078 21.4203C21.8886 21.4592 21.9846 21.6804 22.0322 21.793C22.1155 21.7516 22.2069 21.729 22.3 21.727C22.599 21.7193 22.8166 21.9174 23.1737 21.9174C24.0359 21.9174 24.8164 21.2844 25.3912 21.09C25.8146 20.9464 26.1796 20.8415 26.4359 20.6085C26.5601 20.5038 26.7815 20.2706 26.9835 19.925C27.1309 19.6882 27.2748 19.4668 27.4187 19.3037L27.4179 19.305Z" fill="#D2B257"/>
<path id="Vector_26" fill-rule="evenodd" clip-rule="evenodd" d="M15.0528 38.5244C15.0528 38.5244 14.976 38.2369 14.2643 37.4953C14.0623 37.2856 13.9382 37.1113 13.8022 36.9866C13.4643 36.6679 13.2662 36.5827 13.0255 36.4001C12.4974 36.0079 11.9227 36.0079 11.4801 35.5264C11.0374 35.0449 10.5216 34.1248 10.1632 33.1845C9.80993 32.2447 9.71265 31.9457 9.71265 31.9186C9.71265 31.8915 9.80993 31.7089 9.93409 31.7361C10.0582 31.7632 10.0582 32.0038 10.0895 32.0622C10.1513 32.1575 10.2215 32.2471 10.2991 32.33C10.4817 32.5399 10.7418 32.7908 10.8739 33.1651C10.8467 32.8466 10.7379 32.4933 10.7379 32.4933C10.7379 32.4933 11.4214 32.9244 12.0038 33.3747C12.5903 33.8253 12.831 33.9807 13.0022 34.2679C13.1735 34.5551 13.577 35.3126 13.7702 35.5341C13.9635 35.7555 16.6118 36.5903 16.6118 36.5903L17.8716 37.5296L18.497 38.9005L18.0076 39.6685L17.0678 39.8705L15.5415 39.187L15.0528 38.5242V38.5244Z" fill="#D2B159"/>
<path id="Vector_27" fill-rule="evenodd" clip-rule="evenodd" d="M11.6621 33.802C11.6621 33.802 11.9806 34.3107 12.7573 34.7922C13.4564 35.2156 14.5631 35.6001 15.5497 35.8293C16.1165 35.9652 16.6835 36.0699 17.1922 36.0778C18.5631 36.097 19.5067 35.7051 20.6759 35.5768C21.309 35.5108 22.0857 35.4604 22.8933 35.2696C23.9301 35.0211 24.5438 34.7413 25.3788 34.348C25.9845 34.0685 26.5401 33.8588 26.9904 33.5908C27.6235 33.2181 28.0855 32.8026 28.6216 32.6784C28.5555 32.8609 28.4857 33.1871 27.9575 33.525C28.2371 33.5171 28.6216 33.4979 28.6216 33.4979C28.6216 33.4979 28.2489 33.719 27.5925 34.2162C27.1885 34.5234 26.6527 35.0433 26.1051 35.3889C25.7516 35.6104 25.3671 35.7729 25.1147 35.9055C24.5003 36.2435 24.2524 36.4142 23.8487 36.8271C23.9923 36.8195 24.0041 36.8271 24.0041 36.8271C24.0041 36.8271 23.4952 36.8932 23.1304 37.0872C23.0536 37.0872 22.9205 37.0601 22.6875 37.1261C22.505 37.1843 22.2641 37.3166 22.0158 37.3862C21.6622 37.4912 21.546 37.4446 21.546 37.4446L21.6041 37.5611C21.6041 37.5611 21.1433 37.5532 20.9897 37.5688C21.0169 37.5765 21.0092 37.5882 21.0092 37.5882C20.9822 37.5928 20.9562 37.6019 20.9324 37.6154C20.8585 37.6633 20.7772 37.6986 20.6917 37.7201C20.6451 37.7277 20.6062 37.7277 20.5479 37.7395C20.5673 37.7861 20.7189 38.0467 20.7888 38.2003C20.7307 38.2392 19.8567 38.8995 19.8567 38.8995C19.8838 38.9421 19.9059 38.9877 19.9227 39.0354C19.9499 39.1206 19.9616 39.2451 19.9888 39.3032C20.0546 39.4197 20.0935 39.4391 20.0935 39.4391C20.0935 39.4391 19.9888 39.4586 19.806 39.5052C19.6508 39.5441 19.4604 39.6099 19.1916 39.6488C19.1091 39.6595 19.0261 39.666 18.943 39.6682C18.9819 39.7537 19.1527 40.0799 18.838 40.4565C18.5234 40.833 18.4264 40.8878 18.3294 41.1285C18.2805 41.0915 18.2285 41.059 18.174 41.0312C18.0693 40.9846 17.9254 40.9149 17.875 40.8215C17.8456 40.946 17.8066 41.0681 17.7585 41.1866C17.6615 41.4467 17.5179 41.7032 17.4907 41.8972C17.3858 41.7807 17.1917 41.5516 16.9237 41.5982C16.6556 41.6448 16.4421 42.0099 16.3955 42.1148C16.3955 42.0488 16.349 41.9983 16.3374 42.0759C16.3295 42.1614 16.182 43.0543 15.3587 43.7768C15.3511 43.5942 15.3511 43.1903 15.3316 43.0584C15.2548 43.1352 15.1609 43.2486 14.6015 43.4895C14.0539 43.7302 14.1407 43.9711 14.1407 43.9711C14.1407 43.9711 14.0941 43.5871 14.3893 43.1826C14.6883 42.7789 14.8708 42.5884 14.8708 42.5574C14.866 42.5259 14.8525 42.4963 14.8319 42.4719C14.793 42.433 14.7154 42.3864 14.7154 42.3555C14.762 42.3363 15.2241 42.1148 15.197 41.6563C15.1698 41.2449 14.9952 41.0312 14.8708 40.8799C14.8516 40.8604 15.0536 40.7168 15.0262 40.6702C15.0067 40.6431 14.7584 40.4603 14.7272 40.363C14.7345 40.305 14.7476 40.2478 14.7661 40.1923C14.7932 40.1068 14.8127 40.0484 14.805 39.9903C14.7856 39.8933 14.6806 39.6252 14.6496 39.5981C14.6768 39.6058 14.8708 39.5981 14.8708 39.5981C14.8708 39.5981 14.7157 39.3495 14.6883 39.233C14.6609 39.1166 14.6028 38.8096 14.5718 38.7515C14.6379 38.7592 14.8009 38.7707 14.8009 38.7515C14.8089 38.6931 14.6573 38.5961 14.7241 38.5211C14.7707 38.5288 14.8601 38.5677 14.9453 38.6765C14.8987 38.5521 14.8211 38.3114 14.6578 38.2144C14.7346 38.1873 14.9957 38.1171 15.2249 38.2531C15.454 38.389 15.5321 38.5792 15.5321 38.5792C15.5321 38.5792 15.668 38.6842 15.8779 38.8396C16.1186 39.0298 16.4252 39.3004 16.9147 39.4918C17.0197 39.5502 17.2875 39.5502 17.4818 39.5113C17.5664 39.4911 17.6475 39.4584 17.7224 39.4143C17.7495 39.3983 17.7781 39.3853 17.8079 39.3754C17.7662 39.2916 17.7181 39.211 17.6643 39.1345C17.7303 39.1345 17.8079 39.1424 17.8079 39.1424C17.8079 39.1424 17.8545 39.0374 17.6448 38.8352C17.6914 38.7886 17.7498 38.7584 17.7498 38.6798C17.6837 38.6721 17.5673 38.5751 17.5401 38.5362C17.5788 38.5091 17.6371 38.4197 17.7032 38.3926C17.6448 38.346 17.5012 38.1517 17.4352 38.1325C17.4983 38.1091 17.5593 38.0805 17.6177 38.047C17.6177 38.047 17.2915 37.9615 17.1866 37.8916C17.0816 37.8148 16.9265 37.6819 16.8333 37.643C16.736 37.6041 16.5653 37.5849 16.4954 37.5071C16.5612 37.5265 16.6661 37.5071 16.744 37.5071C16.8021 37.5071 16.8295 37.5148 16.8487 37.5148C16.841 37.4876 16.841 37.4293 16.9925 37.4101C17.0654 37.3991 17.1362 37.3768 17.2022 37.344C17.2022 37.344 17.0583 37.3363 16.895 37.1809C16.7317 37.0255 16.596 36.9014 16.5028 36.8819C16.4058 36.8625 16.2233 36.948 16.1106 36.94C15.9552 36.9208 15.8892 36.843 15.8892 36.843C15.8892 36.843 15.3728 36.8896 14.2272 36.1907C13.2368 35.5848 12.8057 35.049 12.8057 35.049C12.713 35.0153 12.6234 34.9737 12.5379 34.9245C12.1651 34.7305 11.6485 34.3265 11.6642 33.7981L11.6621 33.802Z" fill="#C2A44D"/>
<path id="Vector_28" fill-rule="evenodd" clip-rule="evenodd" d="M25.9497 10.4932C26.0396 10.5224 26.1194 10.5762 26.1801 10.6486C26.3627 10.8582 26.4791 11.2543 26.0636 11.6777C26.2267 11.7358 26.294 11.7545 26.4364 11.7358C26.2928 11.9068 25.9666 12.2719 25.9472 12.5903C25.9277 12.8504 26.0908 12.9282 26.0908 12.9282C26.0908 12.9282 25.8422 13.2155 25.8307 13.6962C25.9481 13.5639 26.0765 13.4417 26.2147 13.3312C26.5022 13.1021 26.8982 12.842 27.1662 12.6789C27.1626 12.7473 27.1718 12.8157 27.1934 12.8806C27.1934 12.8806 27.6941 12.469 28.115 12.6518C28.3052 12.7373 28.2197 13.005 28.2197 13.005C28.2197 13.005 28.48 12.908 28.6626 13.0906C28.8451 13.2731 29.1031 13.7439 29.2355 13.9264C29.2936 14.0119 29.4451 14.175 29.6003 14.4274C29.8122 14.7808 29.9892 15.154 30.1287 15.5418C30.1363 15.3398 30.1868 15.0254 30.7618 15.2233C31.3365 15.4253 31.9888 15.8487 32.5363 16.6825C33.0839 17.5163 33.2196 18.4576 33.4953 18.816C33.7749 19.1616 34.0624 19.7363 34.0818 19.9772C34.1013 20.2181 33.9963 20.9946 34.571 23.0955C34.7341 22.4433 34.9827 20.9946 34.9827 20.9946L35.1186 19.7169L35.274 15.7634L31.1458 12.3338L27.9186 9.99193L25.8176 10.1939L25.9495 10.4929L25.9497 10.4932Z" fill="#CAA13E"/>
<path id="Vector_29" fill-rule="evenodd" clip-rule="evenodd" d="M33.6193 16.3766C33.6193 16.3766 33.561 15.9926 32.5902 15.3398C31.6192 14.6952 30.862 14.6952 30.1631 14.1476C29.627 13.7165 29.0679 12.726 28.7039 12.3999C28.3503 12.0776 28.2922 11.1455 28.2922 11.1455L29.4844 10.1471L31.2575 7.58426L32.7564 5.93383L33.4747 6.93223L34.4731 8.10497L35.0284 10.4584L35.2303 13.9031L33.6175 16.3768L33.6193 16.3766Z" fill="#B59544"/>
<path id="Vector_30" fill-rule="evenodd" clip-rule="evenodd" d="M34.8201 20.5056C34.8494 19.9832 34.7849 19.4597 34.6296 18.9601C34.3736 18.164 33.8142 16.7503 33.5544 16.2209C33.4494 15.6344 33.5273 15.5878 33.6399 15.5218C33.7525 15.4557 34.176 15.2146 34.4079 14.3685C34.6398 13.5224 35.3595 13.4948 35.3595 13.4948L35.8021 13.1686L36.4741 14.85L37.0603 16.3686L37.2429 17.5298L37.3788 18.52L37.0603 20.6134L35.4877 22.0347L34.8198 20.5056H34.8201Z" fill="#C89D3A"/>
<path id="Vector_31" fill-rule="evenodd" clip-rule="evenodd" d="M12.8743 43.8372V43.7942C12.9069 43.7737 12.9358 43.7478 12.9595 43.7174C12.9867 43.6785 13.0064 43.6319 13.0256 43.6204C13.0645 43.6009 13.247 43.5436 13.344 43.562C13.4411 43.5804 13.6976 43.6861 13.8335 43.6785C14.1131 43.6708 14.4392 43.457 14.9558 43.5543C15.7325 43.6979 15.915 44.2261 16.3656 44.5251C16.6728 44.735 16.9907 44.6415 17.0373 44.6415H17.142C17.1615 44.6415 17.3051 44.4785 17.3829 44.4864C17.5383 44.4941 17.5537 44.6223 17.6507 44.63C17.8798 44.6572 18.3227 44.5135 18.5442 44.5719C18.6098 44.5925 18.6695 44.6286 18.7182 44.6772C18.7669 44.7259 18.8031 44.7856 18.8237 44.8512C18.8703 44.9948 18.8314 45.1773 18.7187 45.2823C18.4781 45.5035 18.249 45.7134 18.2024 45.8967C18.2617 45.9419 18.3186 45.9901 18.3729 46.0411C16.4514 45.5515 14.6027 44.8113 12.8743 43.8395V43.8372Z" fill="#CEB052"/>
<path id="Vector_32" fill-rule="evenodd" clip-rule="evenodd" d="M33.5532 36.0778C33.5532 36.0778 34.1589 35.2701 34.3688 34.87C34.5785 34.4576 33.7048 29.2352 33.7048 29.2352L35.4602 23.4839L35.4133 21.612C35.4133 21.612 35.4988 19.8838 35.7008 19.1342C35.9417 19.5653 36.6913 20.0858 36.8543 20.3615C36.9311 19.8331 37.192 18.7187 37.1534 17.5304C37.297 17.7515 37.6426 19.977 37.6426 19.977L37.9882 21.4758L38.4387 23.0682L38.9397 24.7498L39.2387 25.911L39.4095 26.1906L39.5534 26.6798L39.6893 27.2082L40.0815 28.447L40.3119 29.4643L40.4944 31.3091C40.5341 31.4503 40.5627 31.5944 40.5799 31.7402C40.5876 31.9421 40.5528 32.0586 40.5528 32.0937C40.5528 32.1288 40.6188 32.5363 40.5917 32.8433C40.5528 33.1505 40.5528 33.3908 40.3119 33.6113C40.071 33.8317 39.9197 35.1491 39.9197 35.1491L39.4886 34.8618C39.4886 34.8618 39.5741 34.4694 39.3721 34.1123C39.1701 33.7551 38.7779 33.6811 38.5565 33.7395C38.3353 33.7861 37.8927 33.8557 37.7488 33.9802C37.6129 34.1043 37.279 34.4888 36.9721 34.6637C36.5881 34.8941 35.9624 34.9123 35.6286 34.9898C35.2907 35.0666 34.918 35.297 34.5255 35.5645C34.2178 35.7638 33.8929 35.9351 33.5548 36.0765L33.5532 36.0778Z" fill="#CCA847"/>
<path id="Vector_33" fill-rule="evenodd" clip-rule="evenodd" d="M33.5532 44.5632C33.5532 44.5632 33.5788 44.5798 33.6282 44.607C36.3873 43.3143 38.8594 41.482 40.8986 39.2182C40.8763 38.4323 40.8474 37.6266 40.8157 37.3281C40.7499 36.695 40.7965 36.0504 40.777 35.6777C40.7576 35.305 40.5479 33.7864 40.4509 33.3942C40.3459 33.002 40.1437 32.8077 40.113 32.8077C40.0858 32.8156 39.9225 33.5457 39.9225 33.7293C39.9225 33.9128 39.8836 34.3547 39.8836 34.4673C39.8564 34.4594 39.8449 34.3905 39.8449 34.3624C39.806 34.4594 39.7594 34.6304 39.74 34.6499C39.7205 34.6693 39.7671 34.4868 39.74 34.4479C39.7128 34.409 39.6632 34.4284 39.6739 34.3314C39.6785 34.2739 39.6876 34.2168 39.701 34.1606C39.701 34.1606 39.5846 34.3314 39.4993 34.7663C39.4138 35.1974 39.4138 35.2092 39.3828 35.2479C39.3557 35.2947 39.2003 35.4499 39.1924 35.5082C39.1847 35.6129 39.3362 35.7179 39.3478 35.776C39.3554 35.8733 39.2118 36.3236 39.1652 36.544C39.1186 36.7644 39.1381 37.1963 39.0884 37.4177C39.0495 37.6197 39.0116 37.7362 38.8788 37.8214C38.9758 37.8409 39.069 37.868 39.069 37.868C39.069 37.868 39.2049 38.4427 38.8593 38.9322C38.7352 39.103 38.7042 39.1808 38.5721 39.3362C38.3117 39.6234 38.1098 39.9506 38.0903 40.1633C38.0769 40.1005 38.0678 40.0369 38.0632 39.9729C38.0632 39.9729 37.6595 40.4429 37.4884 40.7109C37.2673 41.0565 36.9603 41.0371 36.874 41.1226C36.7878 41.2081 36.7691 41.3632 36.7972 41.4876C36.7204 41.5068 36.5761 41.5342 36.4788 41.8332C36.4322 41.9883 36.3157 42.1404 36.1332 42.2449C35.9507 42.3493 35.7292 42.3808 35.6166 42.4079C35.7136 42.4351 35.7525 42.4351 35.7991 42.466C35.741 42.5631 35.473 42.7146 35.174 42.9089C34.8749 43.0915 34.7311 43.3592 34.6573 43.5341C34.5805 43.6972 34.4671 43.8021 34.2846 43.8216C34.3614 43.8682 34.4751 43.9767 34.5332 44.0118C34.4477 44.0312 34.3028 44.0312 34.044 44.2527C33.7721 44.4779 33.6789 44.544 33.5545 44.5635L33.5532 44.5632Z" fill="#C39D3C"/>
<path id="Vector_34" fill-rule="evenodd" clip-rule="evenodd" d="M28.1502 46.3629C28.2989 46.2587 28.46 46.1733 28.6297 46.1087C29.2354 45.868 29.8761 45.8214 30.1286 45.7439C30.3695 45.6671 30.5597 45.5611 30.8587 45.503C30.8507 45.5711 30.8441 45.6351 30.8369 45.6955C29.9554 45.9726 29.0577 46.1955 28.1489 46.3629H28.1502Z" fill="#D2BA6B"/>
<path id="Vector_35" fill-rule="evenodd" clip-rule="evenodd" d="M39.3213 30.4312C39.3213 30.4312 39.1972 31.103 38.9757 31.5264C38.7543 31.9498 38.5149 32.5361 38.5149 32.5361C38.5164 32.404 38.532 32.2724 38.5615 32.1436C38.282 32.3067 37.6023 32.6991 37.4095 32.8737C37.227 33.0368 36.92 33.3243 36.8425 33.4602C37.025 32.9244 37.2152 32.4429 37.2464 32.2214C36.9669 32.4234 35.6618 33.4991 34.9824 34.2098L32.8658 35.9224C32.6215 36.0542 32.37 36.172 32.1124 36.2752C31.7476 36.4303 31.3165 36.5624 30.998 36.6869C31.0835 36.4577 31.2192 36.2555 31.4096 36.0615C31.6116 35.8712 32.2173 35.2149 32.3105 34.9095C32.396 34.591 32.4155 34.4008 32.3028 34.1327C32.1979 34.1599 31.9572 34.1717 31.7942 34.2183C31.6311 34.2648 31.4562 34.4394 31.4562 34.4394C31.4562 34.4394 31.5804 33.7288 31.8484 33.057C31.6464 33.0647 31.3008 33.1228 31.3008 33.1228C31.3008 33.1228 31.7824 32.3151 32.6064 31.7522C32.3541 31.8059 32.1071 31.8825 31.8687 31.9811C31.3871 32.183 30.859 32.4821 30.4668 32.6451C30.688 32.3379 32.2414 30.121 33.1658 28.0548C34.0874 25.9927 34.4317 25.4646 34.6337 24.3579C34.7384 23.8103 34.7105 23.0011 34.7384 22.2764C34.7655 21.5578 34.8549 20.9132 34.7968 20.482C35.0374 20.7811 35.9385 21.6238 35.9695 23.5075C35.9967 25.3909 35.1076 27.9347 34.1637 29.3054C34.3941 29.3714 34.9911 29.4492 35.6045 28.3837C36.2178 27.3183 36.2104 27.0208 36.4319 26.5779C36.459 26.7994 36.4511 26.8769 36.4511 26.8769C36.4511 26.8769 37.3445 25.7935 37.7677 24.4303C37.8532 25.0168 38.1056 25.5334 37.7093 26.6092C37.356 27.5799 36.8939 27.817 36.8939 27.817C36.8939 27.817 37.1231 27.7781 37.4607 27.5761C37.5191 27.7197 37.5076 27.8833 37.6046 27.9411C37.7016 27.999 37.8337 28.0965 37.8532 28.1897C37.9579 28.0343 38.1209 27.8362 38.1716 27.6887C38.1327 27.9959 38.1056 29.3391 38.2484 30.0227C38.5477 29.9955 38.8544 29.9761 39.064 29.4362C38.9204 29.9646 38.9204 30.2828 39.0175 30.7333C39.1767 30.6248 39.3203 30.4305 39.3203 30.4305L39.3213 30.4312Z" fill="#C0993A"/>
<path id="Vector_36" fill-rule="evenodd" clip-rule="evenodd" d="M29.2313 9.02527C29.2313 9.02527 28.9323 9.14943 28.4236 9.14943C27.981 9.14943 28.1052 8.97868 27.414 8.97868C26.35 8.97868 22.6334 9.59308 21.9809 9.58438C21.5575 9.5767 23.4099 9.7669 23.4099 9.7669L28.1441 9.83295L29.0954 9.75615L29.4489 9.03679L29.2313 9.02527Z" fill="#A88F33"/>
<path id="Vector_37" fill-rule="evenodd" clip-rule="evenodd" d="M16.9552 18.2797C16.9552 18.2797 16.3492 18.7417 16.0929 19.0953C15.8367 19.4488 15.7008 19.6815 15.4094 19.969C15.4778 19.9716 15.5461 19.9624 15.6114 19.9419C15.6114 19.9419 15.6114 20.0187 15.5648 20.0389C15.6051 20.0344 15.6458 20.039 15.6841 20.0522C15.7224 20.0655 15.7572 20.0872 15.786 20.1157C15.7005 20.1623 15.4675 20.3955 15.6501 20.6712C15.786 20.8809 16.0735 20.9001 16.0735 20.9001C16.0735 20.9001 16.0074 21.0905 16.2832 21.0711C16.8773 21.044 17.5414 20.7836 17.8481 20.8497C18.1553 20.9265 18.3299 20.9546 18.5472 21.3314C18.7776 21.7042 18.9783 21.7625 18.9783 21.7625C18.9783 21.7625 19.1143 21.4167 19.0833 20.9003C19.1947 20.622 19.2565 20.3263 19.2658 20.0266L19.0638 18.5393L18.1824 17.4246L17.0407 18.0577L16.9552 18.2789V18.2797Z" fill="#E3C571"/>
<path id="Vector_38" fill-rule="evenodd" clip-rule="evenodd" d="M18.0386 18.0583C18.0386 18.0583 18.1241 18.2602 18.4815 18.2794C18.4425 18.3649 18.4425 18.3767 18.4543 18.4425C18.462 18.5086 18.4735 18.6056 18.4735 18.6056C18.5129 18.5865 18.5484 18.5605 18.5785 18.5288C18.5979 18.6143 18.559 18.75 18.5785 18.8472C18.5905 18.9064 18.61 18.9638 18.6366 19.018C18.6423 19.0047 18.6488 18.9918 18.656 18.9793C18.6637 18.9599 18.7328 19.189 18.9241 19.3633C18.9239 19.3365 18.9305 19.3101 18.9433 19.2865C18.9462 19.3352 18.9623 19.3822 18.9899 19.4225C18.9756 19.4157 18.9625 19.4065 18.9512 19.3953C18.9512 19.3953 18.9704 20.0097 19.0754 20.3274C19.0929 20.3069 19.1085 20.2848 19.122 20.2614C19.122 20.2422 19.1143 20.4324 19.0948 20.5686C19.0677 20.7045 19.0871 20.8947 19.0871 20.8947C19.1572 20.8396 19.2341 20.7939 19.316 20.7588C19.4325 20.712 19.6232 20.5683 19.7394 20.2499C19.8069 20.0695 19.8588 19.8838 19.8948 19.6946C19.9324 19.7669 19.9583 19.8446 19.9716 19.925C19.9796 20.022 20.1621 19.9716 20.1621 19.9716L20.201 19.5482L20.4314 18.5889L20.6411 17.9948L21.6507 16.4222L23.475 15.0172L25.0673 15.3823L26.4108 13.557L24.0963 12.1667L21.906 12.3958L19.9181 15.1491L18.3261 17.6464L18.0386 18.058V18.0583Z" fill="#D8B65B"/>
<path id="Vector_39" fill-rule="evenodd" clip-rule="evenodd" d="M29.5104 14.0739C29.5104 14.0739 29.3744 14.101 28.9823 14.3043C28.5901 14.5075 28.3182 14.572 28.1666 14.871C28.0151 15.17 28.0036 15.4071 28.0036 15.4071C28.0036 15.4071 28.2716 15.2906 28.427 15.2517C28.5901 15.2131 28.7726 15.2246 28.7531 15.2906C28.7345 15.3359 28.7085 15.3778 28.6763 15.4148C28.6763 15.4148 28.9835 15.4071 28.9753 15.5587C28.9671 15.7102 28.9172 15.8771 28.8591 15.9508C28.8007 16.0276 28.5601 16.1413 28.533 16.2307C28.4669 16.4132 28.5601 16.4209 28.525 16.5683C28.4979 16.7122 28.3699 16.9917 27.9503 17.481C27.5192 17.9704 27.3359 18.316 27.3359 18.316C27.3359 18.316 27.1262 17.9238 27.0174 17.5859C26.9406 17.6246 26.5282 17.8537 26.5282 17.8537L25.5728 14.5257L25.592 14.3043C25.592 14.3043 25.6775 14.1995 25.697 14.0052C25.5534 13.9587 25.5339 13.9197 25.3435 13.7375C25.153 13.5552 24.9979 13.3335 24.6797 13.1819C24.6331 13.0964 24.5747 12.9802 24.3417 12.9334C24.1088 12.8865 23.969 12.8481 23.969 12.8481C23.969 12.8481 24.0932 12.8013 24.1515 12.7043C24.0077 12.7237 23.8914 12.7703 23.5768 12.7626C23.2583 12.7547 23.2233 12.7432 23.0487 12.7703C22.8741 12.7974 22.6647 12.8753 22.5866 12.6072C22.5011 12.5412 22.3186 12.5995 22.1632 12.8284C22.0078 13.0573 21.9535 13.2401 21.6545 13.3294C21.6335 13.4612 21.5873 13.5877 21.5186 13.7021C21.4331 13.846 21.2971 13.9896 21.1146 14.2031C20.8271 14.5411 20.8737 15.0963 20.4155 15.5197C19.9534 15.9429 20.4923 14.3467 20.4923 14.3467L21.2301 12.5803L23.331 10.5259L26.5933 10.3048L26.9117 11.9944L28.504 12.5419L29.5099 14.0759L29.5104 14.0739Z" fill="#D3AE4D"/>
<path id="Vector_40" fill-rule="evenodd" clip-rule="evenodd" d="M30.0277 14.4466L28.6568 12.47L27.6976 11.732C27.6976 11.732 27.0141 10.474 26.9675 10.4351C26.9286 10.4079 26.284 10.3381 25.8723 10.3109L25.9491 10.5011C26.039 10.5303 26.1188 10.5842 26.1795 10.6565C26.362 10.8662 26.4785 11.2622 26.063 11.6856C26.2261 11.7438 26.2934 11.7624 26.4358 11.7438C26.2922 11.9148 25.966 12.2798 25.9466 12.5983C25.9271 12.8584 26.0902 12.9359 26.0902 12.9359C26.0902 12.9359 25.8416 13.2234 25.8301 13.7039C25.9475 13.5716 26.0759 13.4494 26.2141 13.3389C26.5016 13.1085 26.8976 12.8494 27.1656 12.6863C27.162 12.7548 27.1712 12.8233 27.1928 12.8883C27.1928 12.8883 27.6935 12.4767 28.1144 12.6592C28.3046 12.7447 28.2191 13.0127 28.2191 13.0127C28.2191 13.0127 28.4794 12.9157 28.6619 13.0982C28.8445 13.2808 29.1046 13.7505 29.2367 13.9333C29.2948 14.0188 29.4463 14.1819 29.6015 14.4341C29.8135 14.7875 29.9904 15.1608 30.1298 15.5487C30.1375 15.3933 30.1688 15.1759 30.437 15.1759L30.0292 14.4458L30.0277 14.4466Z" fill="#CAA13E"/>
<path id="Vector_41" fill-rule="evenodd" clip-rule="evenodd" d="M9.47623 20.0622C9.47623 20.0622 9.3792 19.8213 9.47623 19.3515C9.57325 18.8818 9.7248 18.6603 9.77524 17.9691C9.82567 17.278 10.2762 16.4157 10.2762 16.4157L11.5227 15.849L12.4044 16.0896L12.6645 17.2703L11.5498 17.8847C11.5498 17.8847 11.4917 18.1448 11.1771 18.3544C10.8625 18.5641 10.4275 18.7272 10.3228 18.9409C10.2602 19.0718 10.2145 19.2101 10.1869 19.3526C10.1869 19.3526 9.86842 19.2865 9.67821 19.4962C9.47623 19.7099 9.48391 19.9002 9.47623 20.0632V20.0622Z" fill="#F4EFC8"/>
<path id="Vector_42" fill-rule="evenodd" clip-rule="evenodd" d="M11.992 19.7476C11.992 19.7476 11.887 19.8137 11.8095 19.978C11.7327 19.8538 11.5491 19.1158 11.5414 18.4517C11.5337 17.7877 11.4941 17.6231 11.6477 17.3942C11.8013 17.1653 12.4036 16.9242 12.3181 16.512C12.2326 16.1198 11.8753 15.9568 11.4365 16.0694C11.1293 16.1462 10.9007 16.7995 10.5822 17.1256C10.3413 17.3742 10.0541 17.3353 9.9765 17.4712C9.87154 17.6538 9.96856 17.8363 9.93759 17.9528C9.92965 17.9917 9.83263 18.2014 9.65778 18.4538C9.3045 18.9625 8.70649 19.681 8.62866 20.3257C8.6558 19.9606 8.6366 19.9529 8.73362 19.5489L8.67525 19.4519L9.05925 18.1937L9.30783 17.1569L9.86335 15.4207L10.8418 13.6461L11.7933 12.5819L12.7835 12.6479L12.9 14.1353L13.4671 16.9278L14.6592 18.3957L12.7485 19.6816L11.9912 19.7476H11.992Z" fill="#EBCC73"/>
<path id="Vector_43" fill-rule="evenodd" clip-rule="evenodd" d="M12.5868 20.2752C12.5868 20.2752 12.4237 20.3141 12.3653 20.2831C12.307 20.2522 12.2491 20.2171 12.2683 20.1782C12.2875 20.1393 12.3925 20.0735 12.3925 20.0422C12.3946 20.014 12.3857 19.9861 12.3676 19.9643C12.3495 19.9426 12.3236 19.9287 12.2954 19.9258C12.2061 19.9142 12.179 19.9724 12.179 19.9724C12.179 19.9724 12.0935 19.9066 12.0238 19.8956C12.065 19.8905 12.1065 19.8879 12.148 19.8876C12.0407 19.839 11.9268 19.8063 11.8101 19.7906C11.9071 19.7325 12.0975 19.5615 12.2217 19.5615C12.3459 19.5615 12.4237 19.5423 12.4042 19.4762C12.3848 19.4102 12.2878 19.3132 12.1831 19.2742C12.2217 19.2277 12.2491 19.1578 12.1559 18.967C12.0586 18.7768 12.0975 18.6486 12.1288 18.6022C12.1559 18.5439 12.2529 18.4392 12.2995 18.3731C12.3461 18.3071 12.385 18.2177 12.4626 18.1711C12.5015 18.144 12.6257 18.0943 12.7501 18.047C12.886 18.0004 12.9987 17.942 13.0762 18.0004C13.1617 18.0585 13.1228 18.1363 13.1228 18.1363C13.1228 18.1363 13.3909 18.039 13.6315 18.1635C13.8724 18.2797 14.4589 18.3537 14.4589 18.3537L14.6691 18.7771L13.2787 19.9693L12.704 20.2568L12.5875 20.276L12.5868 20.2752Z" fill="#E5C66B"/>
<path id="Vector_44" fill-rule="evenodd" clip-rule="evenodd" d="M14.5164 18.3263C14.5164 18.3263 14.0853 18.6138 13.9882 18.7185C14.0463 18.7264 14.1434 18.7653 14.1045 18.8234C14.0579 18.8815 13.7783 19.0835 13.6229 19.274C13.4599 19.4642 13.3045 19.7051 13.2502 19.8216C13.1921 19.9263 12.7492 20.2332 12.5979 20.2719C12.9164 20.2719 13.5571 19.8797 13.7978 19.8797C13.7901 19.9962 13.8638 20.1283 13.9998 20.1398C14.1357 20.1513 14.5279 20.2253 15.056 19.8991C15.5841 19.5807 15.4095 19.3436 15.6307 19.1885C16.0542 18.9087 16.2249 18.6601 16.4579 18.505C16.6908 18.3498 16.8114 18.3145 16.8114 18.3145C16.8114 18.3145 16.8191 18.198 16.8882 18.2098C16.9071 18.212 16.9251 18.2193 16.9402 18.2309C16.9552 18.2425 16.9668 18.2581 16.9737 18.2758C16.9737 18.2758 17.3777 17.9884 17.8953 17.9108C17.8832 17.9054 17.8736 17.8957 17.8682 17.8836C17.8682 17.8836 17.9068 17.8642 17.9148 17.8447C17.9148 17.8447 17.9419 17.8058 17.9614 17.8253C17.9808 17.8447 18.0079 17.9884 18.0469 18.0467C18.1324 18.0078 18.2954 17.6428 18.2954 17.6428L18.6879 16.5204V15.4952L18.3807 15.5535L16.0767 16.532L14.6784 17.9807L14.5153 18.3263H14.5164Z" fill="#E6BD62"/>
<path id="Vector_45" fill-rule="evenodd" clip-rule="evenodd" d="M21.1495 13.2972C21.2742 13.2669 21.3936 13.2184 21.5041 13.1533C21.4575 13.2777 21.4575 13.4136 21.2555 13.7088C21.0535 14.004 21.0459 14.0467 20.8828 14.3534C20.7197 14.6719 20.7003 15.1301 20.5449 15.3318C20.6145 15.298 20.6892 15.2758 20.7661 15.266C20.7661 15.266 20.6109 15.402 20.5449 15.5456C20.4788 15.6892 20.3623 15.9882 20.0751 16.171C19.7879 16.3538 19.4226 16.47 19.0304 16.9011C18.6379 17.3243 18.2342 17.8603 18.032 18.0531C18.1369 17.8706 18.2806 17.5055 18.3195 17.2649C18.3584 17.0243 18.3115 16.7365 18.3776 16.4183C18.4436 16.1001 18.4436 15.8707 18.7616 15.3152C19.0795 14.7597 19.6238 12.8297 19.6238 12.8297L20.7965 12.457L21.1501 13.2959L21.1495 13.2972Z" fill="#B6933F"/>
<path id="Vector_46" fill-rule="evenodd" clip-rule="evenodd" d="M20.3024 12.5865C20.3024 12.5865 19.9491 13.0952 19.8521 13.5457C19.7551 13.9963 19.8442 13.9574 19.7861 14.1788C19.7513 14.3138 19.7513 14.4554 19.7861 14.5905C19.9084 14.3933 20.076 14.2282 20.2748 14.1087C20.6089 13.9069 20.8807 13.7631 21.0428 13.5923C21.2059 13.4098 21.3418 13.1108 21.6951 12.8817C21.5515 12.8622 21.3495 12.7962 21.3111 12.8049C21.4549 12.6418 21.8858 12.3932 22.3207 12.0942C22.7518 11.787 22.7247 11.6631 23.4238 11.3564C23.1947 11.3953 23.0859 11.337 22.8955 11.3564C22.9723 11.1933 23.2411 11.1155 23.5099 10.8477C23.7787 10.58 23.3391 10.1837 23.3391 10.1837L21.2911 11.4225L20.3009 12.5875L20.3024 12.5865Z" fill="#C49937"/>
<path id="Vector_47" fill-rule="evenodd" clip-rule="evenodd" d="M14.7458 11.6621L14.7924 11.2893L15.3789 10.3496L15.9926 8.69913V6.44275L15.946 5.13792L16.043 4.28339L16.1167 4.01177L16.1946 3.90681L16.6953 4.16691L17.3867 5.10669L17.4528 6.92045L16.7808 9.78253L14.8623 11.8758L14.7458 11.6621Z" fill="#DFC068"/>
<path id="Vector_48" fill-rule="evenodd" clip-rule="evenodd" d="M16.2722 3.80185C16.2722 3.80185 15.965 3.80979 15.8994 5.08749C15.8339 6.36518 15.8022 7.03693 15.7556 7.67001C15.709 8.3031 15.6004 8.68736 15.5459 9.06035C15.4914 9.43334 15.4604 9.94176 15.2858 10.2525C15.209 10.3962 15.0449 10.8467 14.6604 11.1846C14.2293 11.5574 13.5852 11.8177 13.4877 11.8372C13.3167 11.8758 12.4506 11.9613 12.0973 12.1556C11.9732 12.2217 11.7594 12.2993 11.5226 12.5207C11.0526 12.9439 10.4274 13.7011 9.97688 14.6138C9.28568 15.977 8.59448 19.8254 8.59448 19.8254L8.74987 19.5653C8.74987 19.5653 8.76933 19.2197 9.11493 18.6138C9.45285 18.0081 9.35583 17.3284 9.82559 16.1672C10.0081 15.7245 10.2372 15.1498 10.5168 14.6603C10.9597 13.8642 11.4955 13.1807 12.0354 12.8079C12.9168 12.2022 13.8878 12.0701 13.8878 12.0701L14.9325 11.3789C14.9325 11.3789 15.1151 11.0257 15.356 10.6217C15.6936 10.0549 16.124 9.42182 16.2179 8.5015C16.3618 7.1383 16.0159 6.24512 16.0354 5.43744C16.0548 4.62976 16.0625 4.03558 16.2258 3.89171C16.3892 3.74784 16.2724 3.80237 16.2724 3.80237L16.2722 3.80185Z" fill="#A88F33"/>
<path id="Vector_49" fill-rule="evenodd" clip-rule="evenodd" d="M16.2717 9.89902C16.2717 9.89902 16.7325 8.76494 16.9435 7.75911C16.9824 7.55713 17.06 7.3554 17.0794 7.19233C17.1765 6.24078 17.2036 5.84859 17.0794 5.32814C16.9824 4.94414 16.6097 4.59803 16.4154 4.32974C16.2252 4.04993 16.1358 3.94574 16.1747 3.88686C16.2136 3.82798 16.3649 3.73172 16.5124 3.74324C16.6691 3.7478 16.8233 3.7842 16.9655 3.85021C17.1078 3.91622 17.2351 4.01048 17.3398 4.12724C17.6388 4.47284 17.8756 5.64583 17.8756 5.64583L18.1247 7.19361L18.7578 9.14305L16.2723 9.90055L16.2717 9.89902Z" fill="#C99E3D"/>
<path id="Vector_50" fill-rule="evenodd" clip-rule="evenodd" d="M20.6015 8.7186C20.6015 8.7186 20.516 8.75726 20.3609 8.7186C20.3675 8.782 20.3565 8.84599 20.3291 8.90353C20.3017 8.96108 20.2589 9.00994 20.2055 9.04474C20.0424 8.97869 18.5159 9.11079 18.5159 9.11079C18.5159 9.11079 17.8053 8.98637 17.5838 8.0466C17.4287 7.42119 17.7003 6.55924 17.611 5.9922C17.475 5.15713 17.2848 4.9938 17.2654 4.73396C17.2459 4.47412 17.2264 4.40781 17.2264 4.24474C17.1409 4.22529 17.0905 4.19815 17.0053 4.19815C16.9858 4.12135 17.0245 4.05428 16.9392 3.91834C16.9858 3.9378 17.3043 3.97671 17.677 4.32999C17.9842 4.61748 17.9842 4.72218 18.0305 4.78055C18.0886 4.83866 18.5587 5.24135 18.7606 5.64276C18.9626 6.04417 19.3548 7.32417 19.4442 7.53383C19.4713 7.61933 19.5297 7.70484 19.6746 7.89889C19.8998 8.17869 20.2298 8.64129 20.6026 8.71809L20.6015 8.7186Z" fill="#B58634"/>
<path id="Vector_51" fill-rule="evenodd" clip-rule="evenodd" d="M18.0859 4.79999C18.3212 5.18002 18.5326 5.57434 18.7188 5.98066C18.9479 6.49701 19.0838 6.92044 19.3713 7.26604C19.2159 6.81573 18.9402 5.93023 18.7771 5.6156C18.5946 5.2828 18.2219 4.9244 18.0859 4.80024V4.79999Z" fill="#A88F33"/>
<path id="Vector_52" fill-rule="evenodd" clip-rule="evenodd" d="M15.4449 11.1846C15.4449 11.1846 15.0527 11.2817 14.3226 11.6662C14.0817 11.7903 13.8528 11.895 13.6314 11.9923C13.0561 12.2524 12.4392 12.4928 11.9497 12.6254C11.9886 12.672 12.0078 12.6912 12.0078 12.6912C12.0078 12.6912 12.0078 12.8817 12.1128 12.9902C12.0547 13.0486 11.2777 13.5767 11.5071 15.3436C11.6622 15.2855 11.8447 15.2077 11.8719 15.2077C11.9187 15.2156 11.9302 15.3436 11.9884 15.3436C12.0465 15.3436 12.2369 15.2668 12.4389 15.0057C12.4312 15.1107 12.3148 16.1669 12.9399 16.8776C13.0564 16.7416 13.3516 16.2911 13.3516 16.2911L13.3592 16.1475C13.3592 16.1475 13.3864 15.6465 13.5497 15.1882C13.713 14.73 14.0312 14.3921 14.0312 14.3921L15.6929 12.0192L15.4444 11.1844L15.4449 11.1846Z" fill="#E6C367"/>
<path id="Vector_53" fill-rule="evenodd" clip-rule="evenodd" d="M13.891 14.6688C13.8149 14.7225 13.7311 14.7644 13.6424 14.7929C13.6153 14.6959 13.5764 14.3618 13.8055 14.0357C14.0735 13.6432 14.6598 13.1346 14.8228 12.7301C14.9278 12.4697 14.8812 11.8175 15.8133 10.9824C16.7454 10.1473 17.1102 9.86008 17.1102 9.86008L18.617 9.10283L20.4694 9.83294L19.5491 13.44L18.8346 15.1296L15.993 14.5938L13.8907 14.6688H13.891Z" fill="#DCBA5A"/>
<path id="Vector_54" fill-rule="evenodd" clip-rule="evenodd" d="M14.9758 13.6893L15.3294 13.2467V12.9321C15.3294 12.9321 15.7216 12.8271 16.1447 12.396C16.5679 11.9649 17.1544 11.1378 17.671 11.1882C18.1876 11.2466 18.238 12.3105 18.2575 12.6098C18.277 12.9091 18.343 13.5882 18.4477 13.9535C18.5642 14.3186 17.1895 15.701 17.1895 15.701L16.2558 16.4117L14.9758 13.6893Z" fill="#E9CE77"/>
<path id="Vector_55" fill-rule="evenodd" clip-rule="evenodd" d="M16.0698 17.3747C16.0698 17.3747 16.3573 16.9242 16.1466 16.8271C16.2708 16.5476 16.4999 16.2524 16.4999 16.2524C16.4999 16.2524 16.663 15.8487 17.1911 15.3516C17.7192 14.8544 18.0456 14.5242 18.1311 14.1903C18.1838 13.9728 18.2125 13.7501 18.2166 13.5263C18.2737 13.5729 18.3348 13.6145 18.3992 13.6504C18.4847 13.6894 18.8884 14.0232 18.8303 14.6952C18.7722 15.3672 18.5231 15.6467 18.5231 15.6467C18.5231 15.6467 18.2824 15.8874 18.1117 16.0118C17.9289 16.1359 17.8631 16.2796 17.5562 16.2913C17.5877 16.2663 17.6232 16.2465 17.6611 16.233C17.6611 16.233 17.3427 16.1943 17.1716 16.3494C17.0006 16.5046 16.6371 16.9825 16.4546 17.1264C16.2721 17.2429 16.0706 17.375 16.0706 17.375L16.0698 17.3747Z" fill="#CDAE50"/>
<path id="Vector_56" fill-rule="evenodd" clip-rule="evenodd" d="M28.9828 9.82119C28.524 9.65397 28.0418 9.55964 27.5538 9.54163C26.7382 9.5145 25.546 9.56109 24.3771 9.56877C23.1189 9.57645 21.9771 9.13767 20.3927 9.0601C20.1327 8.90471 19.4711 8.22503 17.4062 9.66579C17.5304 9.65811 18.9054 9.34733 19.3828 9.9456C19.8644 10.5398 19.7284 11.5494 19.6626 11.7901C19.5382 12.3261 19.1343 13.1067 18.9714 13.6543C18.8086 14.2019 18.847 14.4896 18.7305 14.8736C18.6141 15.2576 18.3578 15.4483 18.5091 15.891C18.7111 15.7668 18.8163 15.7668 19.1537 15.0095C19.4911 14.2523 19.4217 13.7124 19.9811 13.0716C20.5287 12.427 21.4403 11.5453 21.7869 11.3239C22.1335 11.1025 24.8858 9.67347 27.7676 11.0367C28.4626 10.9629 28.9831 9.82093 28.9831 9.82093L28.9828 9.82119Z" fill="#D2A83E"/>
<path id="Vector_57" fill-rule="evenodd" clip-rule="evenodd" d="M18.5667 9.29279C18.5638 9.26361 18.5574 9.23489 18.5475 9.20729C18.5205 9.15049 18.4851 9.0981 18.4425 9.05189C18.4425 9.05189 17.759 8.92773 17.4134 8.96639C16.8074 9.03244 16.2598 9.78201 16.0036 10.1665C15.7473 10.551 15.4289 11.145 15.0833 11.4519C15.0871 11.422 15.0802 11.3917 15.0638 11.3664C15.0638 11.3664 15.0833 11.3935 15.0446 11.4324C15.006 11.4714 15.0057 11.4906 15.0252 11.5092L15.0835 11.5674C15.1027 11.5674 15.6388 11.3265 16.3689 10.6458C17.1456 9.9351 17.7398 9.57055 18.0506 9.44562C18.2163 9.37519 18.3895 9.32391 18.5669 9.29279H18.5667Z" fill="#C29637"/>
<path id="Vector_58" fill-rule="evenodd" clip-rule="evenodd" d="M31.8258 6.37286C31.8258 6.37286 31.7014 6.528 31.546 6.69901C31.2004 7.06406 30.7499 7.47545 30.3654 7.89888C30.0006 8.30285 29.5889 8.61747 29.1266 9.1456C28.6642 9.67373 28.1282 10.26 27.9925 10.431C27.8683 10.602 27.7713 10.8815 27.7713 11.0251C27.7053 10.9786 27.6277 10.9281 27.6277 10.9281C27.6603 10.9891 27.6994 11.0464 27.7442 11.0991C27.8412 11.2351 27.9925 11.4063 28.0703 11.5108C28.1658 11.6437 28.2343 11.7941 28.272 11.9534C28.3186 11.9611 28.6176 12.0195 28.9906 11.4058C29.3636 10.7922 29.8526 10.1204 29.8526 10.1204L30.6293 8.96691L31.1188 7.98848L31.7332 6.89331L31.8266 6.37286H31.8258Z" fill="#AC8132"/>
<path id="Vector_59" fill-rule="evenodd" clip-rule="evenodd" d="M32.6217 5.58847C32.6217 5.58847 32.1517 5.97247 31.9691 6.20287C31.7866 6.43327 31.3547 7.03794 31.3547 7.03794L31.5101 7.01849L32.2986 6.31961L32.6058 5.77202L32.6214 5.58949L32.6217 5.58847Z" fill="#A88F33"/>
<path id="Vector_60" fill-rule="evenodd" clip-rule="evenodd" d="M32.4774 36.4506C32.4774 36.4506 32.4697 36.1321 32.6484 35.9419C32.8309 35.7514 33.293 35.4719 33.7436 34.4233C34.1941 33.3747 34.2443 33.1379 34.2443 33.1379C34.2443 33.1379 33.4366 33.8291 32.9387 33.9922C33.0552 33.7513 33.1212 33.5805 33.1796 33.4561C33.1136 33.398 32.834 33.332 32.8069 33.301C32.962 33.1456 33.0475 32.7649 33.3621 32.5125C33.7661 32.2053 34.5039 31.6774 35.0773 31.2069C35.6508 30.7364 36.7782 29.642 36.9221 29.3235C37.0076 29.4477 37.0268 29.5252 37.0268 29.5252C37.0268 29.5252 36.46 30.2633 36.1648 30.7331C35.9045 31.137 35.9239 31.3661 35.9239 31.3661L36.46 31.1357C36.46 31.1357 36.6151 31.7105 35.9124 32.5844C36.2196 32.468 36.3435 32.5379 36.5181 32.4406C36.2306 32.6234 35.8346 32.8719 35.4618 33.5552C35.0968 34.2387 34.5996 35.0349 33.761 35.5318C32.9454 36.0561 32.4753 36.4483 32.4753 36.4483L32.4774 36.4506Z" fill="#A67A2E"/>
<path id="Vector_61" fill-rule="evenodd" clip-rule="evenodd" d="M30.3726 10.2254C30.3726 10.2254 30.0542 10.8892 30.0076 11.4058C29.9999 11.5303 29.9686 11.6273 29.9686 11.7709C29.961 12.233 29.9958 12.7496 29.8918 12.9902C29.8529 12.8932 29.8335 12.8272 29.7946 12.7885C29.7365 12.9516 29.6315 13.4602 29.546 13.6504C29.5073 13.5263 29.4218 13.0952 29.4298 12.5865C29.4377 12.0778 29.449 11.9806 29.449 11.8759C29.4298 12.031 29.3248 12.2409 29.2859 12.3651C29.2278 12.2604 29.1617 12.1244 29.0839 12.0118C29.0373 12.0886 28.9792 12.202 28.9288 12.2604C28.9208 12.2138 28.9016 12.0894 28.8899 11.9148C28.8822 11.7128 28.8704 11.4527 28.8822 11.3982C28.9014 11.2935 29.0647 10.8818 29.4103 10.505C29.822 10.0544 30.2454 9.18862 30.3695 8.92059C30.4937 8.65255 31.0218 7.53819 31.0218 7.53819H31.4258L30.8393 8.874C30.8393 8.874 30.486 9.60411 30.3035 9.8724C30.121 10.1407 29.7365 10.9095 29.5654 11.2085C29.6896 11.0454 29.7946 10.9599 29.919 10.8045C30.0393 10.6957 30.3731 10.2259 30.3731 10.2259L30.3726 10.2254Z" fill="#8C6228"/>
<path id="Vector_62" fill-rule="evenodd" clip-rule="evenodd" d="M32.6295 5.5378C32.5635 5.7409 32.4592 5.92947 32.3223 6.09332C32.0814 6.38081 31.5647 6.76507 31.3126 7.07176C31.0822 7.37076 30.6214 8.18638 30.8308 9.15329C30.9076 8.94363 31.0522 8.52814 31.4367 8.05812C31.8213 7.58811 32.2329 7.04846 32.4352 6.62913C32.6369 6.20571 32.664 5.87188 32.664 5.87188L32.7408 5.77486L32.6942 5.55342L32.6282 5.5378H32.6295Z" fill="#CBA94C"/>
<path id="Vector_63" fill-rule="evenodd" clip-rule="evenodd" d="M40.493 31.297C40.493 31.297 40.3376 30.8739 40.291 30.4893C40.2444 30.1048 40.3678 30.0285 40.225 29.5885C40.1395 29.3204 39.9843 29.3581 39.9454 29.3204C39.9065 29.2828 39.8794 28.8778 39.887 28.6564C39.8947 28.4349 39.8794 28.1477 39.8405 28.0233C39.7823 27.9767 39.7434 27.9378 39.6579 27.6506C39.5609 27.3631 39.5143 27.2195 39.4677 27.1342C39.4211 27.049 39.2849 26.9711 39.2849 26.8856C39.2849 26.7146 39.4403 26.6255 39.4403 26.5784C39.4326 26.4814 39.3162 26.5592 39.2849 26.5318C39.2463 26.4853 39.3822 26.2057 39.3318 26.1668C39.3123 26.1476 39.1764 26.3107 39.1413 26.2641C39.1024 26.2172 39.0558 25.7551 38.9859 25.4485C38.9201 25.1494 38.85 24.9321 38.8423 24.8428C38.8346 24.7572 38.3062 23.2504 38.1782 22.8854C38.0751 22.5769 37.9883 22.2632 37.9181 21.9456C37.8792 21.7631 37.8521 21.3901 37.8326 21.429C37.8132 21.4679 37.825 21.6581 37.7937 21.6504C37.7666 21.6425 37.6696 20.9787 37.6386 20.8737C37.6115 20.7688 37.4481 20.4129 37.4082 20.1554C37.3693 19.895 37.284 19.2154 37.2257 18.7533C37.1673 18.2912 37.1402 18.101 37.1402 17.9853C37.1497 17.7023 37.1341 17.419 37.0936 17.1387C37.0168 16.6492 36.8632 16.055 36.7285 15.7097C36.4684 15.0572 35.777 13.3873 35.6533 12.9718C35.6533 12.8668 35.7893 12.9252 35.7893 12.9252C35.7893 12.9252 36.1269 13.7718 36.3755 14.4241C36.6164 15.0766 36.8455 15.6513 36.9039 15.7097C36.9505 15.7678 37.3155 16.4086 37.4786 17.4572C37.6417 18.5057 37.6998 19.4726 37.7971 20.1173C37.8437 20.4245 37.8826 20.7503 37.9796 21.0765C38.0843 21.43 38.2474 21.7951 38.4611 22.3542C38.6437 22.8242 38.7796 23.2164 38.8533 23.5543C38.9388 23.9854 38.9388 24.3116 38.9893 24.5253C39.0361 24.7078 39.1057 25.0726 39.2691 25.6005C39.4324 26.1284 39.6728 26.8083 39.8358 27.2315C40.1546 28.0781 40.2966 28.7849 40.3448 29.1617C40.3873 29.5501 40.5311 30.8938 40.4922 31.2975L40.493 31.297Z" fill="#A88F33"/>
<path id="Vector_64" fill-rule="evenodd" clip-rule="evenodd" d="M32.6489 5.49119L32.6295 5.53778C32.6295 5.53778 32.6876 5.55724 32.6761 5.63506C32.6769 5.74154 32.6704 5.84794 32.6566 5.95353C32.6374 6.08946 32.5985 6.19417 32.5908 6.27967C32.5908 6.4622 32.618 6.67186 32.3604 7.19231C32.2836 7.33593 32.2363 7.46009 32.1973 7.54559C32.1003 7.75525 32.0809 7.78649 31.9954 7.88351C32.1313 7.80671 32.6208 7.49951 32.8691 7.54559C32.6983 7.64261 32.438 7.83308 32.2749 8.08165C32.3138 8.08933 32.4769 8.12057 32.7357 8.08165C33.1668 8.01561 33.6484 7.86021 34.0715 7.89119C34.5339 7.91833 34.3513 7.33593 34.3513 7.33593L33.8178 6.16319L32.8082 5.45279L32.6489 5.49145V5.49119Z" fill="#BE9C44"/>
<path id="Vector_65" fill-rule="evenodd" clip-rule="evenodd" d="M35.2815 14.2758C35.2815 14.2758 34.8309 13.8253 34.6484 12.279C34.4658 10.7256 34.5048 8.43903 34.5048 8.43903L34.1397 7.54585C34.1397 7.54585 34.0629 6.95168 33.8717 6.73049C33.6804 6.50931 33.3049 6.13632 33.1339 5.95379C32.9629 5.77126 32.7688 5.52268 32.6523 5.48377C32.7105 5.38675 32.9708 4.83916 33.9687 4.83148C34.9666 4.8238 35.2743 5.37907 35.3785 5.58105C35.4827 5.78304 35.9532 6.65625 36.1278 8.32025C36.2909 9.9822 36.2988 10.1066 36.2717 10.6813C36.2522 10.9998 36.1472 11.7376 35.9645 12.5258C35.7976 13.194 35.615 13.9397 35.2809 14.2774L35.2815 14.2758Z" fill="#A17C34"/>
<path id="Vector_66" fill-rule="evenodd" clip-rule="evenodd" d="M33.8684 15.6001C34.0185 15.6109 34.1685 15.5771 34.2995 15.5028C34.4431 15.4952 34.9635 15.5612 35.3634 15.0525C35.3905 15.1688 35.4607 15.4836 35.2779 15.7632C35.3752 15.6659 35.5188 15.6272 35.5382 15.6001C35.5459 15.7437 35.6819 16.1864 35.1071 17.2621C35.2623 17.0913 35.4448 17.099 35.6079 17.0795C35.6158 17.2815 35.7244 17.9609 35.4371 18.3263C35.2469 18.5748 34.9361 18.497 34.9361 18.497C34.9407 18.4427 34.9407 18.3882 34.9361 18.3339C34.9284 18.229 34.8895 18.1243 34.9169 18.0544C34.7668 17.9858 34.63 17.891 34.513 17.7746C34.175 17.4561 33.7363 16.9126 33.7053 16.5087C33.6664 16.0581 34.0703 15.9611 34.0703 15.9611C34.0365 15.9308 34.0076 15.8954 33.9848 15.8561C33.9654 15.7903 33.9459 15.6854 33.8684 15.6001Z" fill="#8C6228"/>
<path id="Vector_67" fill-rule="evenodd" clip-rule="evenodd" d="M30.8734 10.7146C30.8734 10.7146 30.854 10.6875 30.7493 10.8117C30.7687 10.6875 30.7882 10.5708 30.7959 10.4581C30.8454 10.3538 30.9095 10.2571 30.9863 10.1709C30.928 10.2871 30.889 10.3921 30.889 10.3921C30.889 10.3921 31.0329 10.124 31.2426 9.96097C31.3862 9.84449 31.5687 9.79022 31.6463 9.68142C31.7318 9.56494 31.7123 9.54548 31.7318 9.52602C31.7318 9.52602 31.9223 9.40186 32.2136 9.03655C32.2522 8.98996 32.3106 8.93953 32.3495 8.89294C32.4153 8.8658 32.5707 8.79591 32.7532 8.70247C32.9437 8.59777 33.1572 8.45415 33.2893 8.39527C33.5494 8.27879 33.8254 8.29057 33.9534 8.10778C34.0504 8.08065 34.1551 7.78932 34.1359 7.541C34.2795 7.59911 35.0173 8.05735 35.27 9.05934C35.4525 9.76999 35.1261 10.8652 34.9902 11.3935C34.8542 11.9219 34.835 12.3139 34.6446 12.5545C34.4037 12.8732 33.6272 13.3225 33.4368 13.545C33.2737 13.7275 32.7845 14.1896 32.8037 14.5234C32.8231 14.772 33.1298 14.9074 33.1961 14.9545C33.2624 15.0016 33.2619 15.0595 33.3863 15.0313C33.5107 15.0031 33.5571 14.9458 33.6078 14.9458C33.6659 14.9535 33.6659 14.9653 33.693 14.9653C33.7127 14.9647 33.7323 14.962 33.7514 14.9573C33.7514 14.9573 33.7319 15.3109 32.9048 15.4181C32.8464 15.4261 32.7883 15.4453 32.7143 15.457C32.8116 15.4104 32.8697 15.4104 32.9747 15.2668C32.8582 15.2474 32.5241 15.2279 32.4386 15.2008C32.4657 15.1542 32.5551 15.0298 32.6288 14.9717C32.6949 14.9135 32.6211 14.8949 32.563 14.9251C32.463 14.9931 32.367 15.067 32.2755 15.1462C32.1785 15.2318 32.093 15.3482 31.9376 15.4534C31.891 15.2981 31.8987 15.0029 32.0815 14.7894C32.0346 14.7971 31.9453 14.933 31.8601 14.9059C31.8446 14.7642 31.8538 14.621 31.8872 14.4824C31.9338 14.3076 32.1862 14.0009 32.1862 14.0009L33.4055 11.8221L33.6656 10.1717L30.8734 10.7141V10.7146Z" fill="#92723A"/>
<path id="Vector_68" fill-rule="evenodd" clip-rule="evenodd" d="M30.8079 10.8078C30.8079 10.8078 30.7418 10.8544 30.8739 10.9437C30.8545 10.9709 30.8079 11.0679 30.7495 11.1339C30.6837 11.2107 30.6136 11.2584 30.5865 11.3244C30.5283 11.4603 30.4817 11.5535 30.4817 11.6119C30.4817 11.6703 30.4623 12.043 30.2992 12.2836C30.2409 12.3691 30.1748 12.5128 30.1282 12.6098C30.0312 12.7805 29.9457 12.917 29.9262 12.9938C29.8876 13.1297 29.8604 13.5025 29.8604 13.5025C29.8604 13.5025 29.9459 13.3975 29.9769 13.3588C29.9301 13.4559 29.8796 13.5606 29.8059 13.6384C29.8525 13.5995 29.9884 13.5025 30.2176 13.3005C30.536 13.0327 31.0332 12.5821 31.6391 12.2253C31.4563 12.2913 31.3012 12.2913 31.177 12.3108C31.2741 12.2138 32.1478 11.1885 32.606 11.0914C32.6339 11.0562 32.6477 11.0119 32.645 10.967L32.2525 10.9284L31.4563 11.0991L31.3401 10.4847L30.8079 10.807V10.8078Z" fill="#B18E3E"/>
<path id="Vector_69" fill-rule="evenodd" clip-rule="evenodd" d="M32.0744 14.303C32.0744 14.303 31.9694 14.4077 31.8724 14.668C31.7977 14.59 31.7337 14.5025 31.6819 14.4077C31.5383 14.167 31.3171 13.8601 30.8005 14.0349C30.7928 13.8719 30.7811 13.7864 30.8005 13.6699C30.886 13.6507 31.1461 13.441 31.4062 13.1341C31.589 12.9244 31.7598 12.6835 31.8762 12.3768C31.953 12.3185 32.0859 12.2214 32.2602 12.1088C32.5088 11.938 32.8078 11.7048 32.8544 11.4447C32.7379 11.4913 32.4894 11.6078 32.1164 11.5886C32.2602 11.5225 32.4814 11.4527 32.4543 11.1652C32.5127 11.1263 32.5592 11.0991 32.5592 11.0991C32.5155 11.0845 32.4694 11.0779 32.4233 11.0797C32.4154 11.0525 32.4039 11.0139 32.3378 11.0331C32.2718 11.0523 32.261 11.0525 32.2523 11.0797C32.2252 11.0876 32.1358 11.0797 32.0698 11.1265C32.0037 11.1734 31.8212 11.3282 31.7513 11.3554C31.7784 11.3088 31.8171 11.2392 31.8171 11.2392C31.8171 11.2392 31.6269 11.2584 31.491 11.316C31.2424 11.4015 30.9551 11.5569 30.6638 11.7081C30.691 11.6616 30.7027 11.6313 30.7219 11.6226C30.7411 11.6139 30.788 11.6034 30.788 11.5955C30.788 11.5876 30.7688 11.5187 30.7803 11.4908C30.8674 11.3063 30.9702 11.1296 31.0875 10.9627C31.2234 10.7799 31.2506 10.5198 31.2506 10.5198L31.8448 10.2208L33.5146 9.83679L34.5983 9.90284L34.4624 10.6524L33.8224 11.9611L33.2748 13.1533L32.6494 13.8836L32.0746 14.303H32.0744Z" fill="#543E26"/>
<path id="Vector_70" fill-rule="evenodd" clip-rule="evenodd" d="M34.7806 11.0592C34.7806 11.0592 34.1281 11.8669 33.9456 11.9913C34.062 11.7427 34.7806 10.2631 35.0407 9.85141C34.9826 9.80481 34.9048 9.80481 35.0873 9.0834C34.9322 9.4482 34.8777 9.63867 34.7497 9.73569C34.6217 9.83272 34.6058 9.80174 34.5193 9.80174C34.5356 9.77218 34.5423 9.73827 34.5385 9.70472C34.5385 9.70472 33.9909 9.63867 33.6169 9.63867C33.2429 9.63867 32.5025 9.84065 32.0906 10.0037C31.7645 10.1397 31.5819 10.1397 31.4654 10.2249C31.349 10.3219 31.2829 10.4269 31.2245 10.454C31.178 10.4812 30.9568 10.5511 30.9061 10.6248C30.8595 10.7016 30.7819 10.7879 30.7819 10.8073C30.7819 10.8268 30.7625 10.8542 30.8208 10.8344C30.84 10.8268 30.9839 10.7489 31.147 10.6519C31.3682 10.5278 31.6362 10.3841 31.8305 10.2986C32.3858 10.0772 32.5606 10.1161 32.8089 10.0695C33.069 10.0229 33.442 9.91412 33.6903 9.91412C33.9389 9.90644 34.4089 9.91412 34.5177 9.93358C34.4711 9.97249 34.4322 10.0191 34.4517 10.1822C34.4517 10.2287 34.4128 10.2792 34.3749 10.3918C34.2587 10.7103 34.0372 11.2384 33.9141 11.5064C33.7433 11.8712 33.5493 12.1782 33.4533 12.3684C33.3573 12.5586 33.1461 13.0596 32.9369 13.3276C32.7278 13.5957 32.6185 13.7587 32.5529 13.8171C32.4874 13.8755 32.0169 14.2208 32.0519 14.3452C32.1374 14.3181 32.6773 14.1148 33.0693 13.6735C33.4612 13.2321 33.5393 12.9628 33.846 12.7219C34.1527 12.481 34.3936 12.0773 34.5372 11.7435C34.6575 11.4327 34.6304 11.3357 34.7817 11.06L34.7806 11.0592Z" fill="#806031"/>
<path id="Vector_71" fill-rule="evenodd" clip-rule="evenodd" d="M20.7192 17.0875C20.7192 17.0875 20.6337 17.4408 20.4394 17.6156C20.2491 17.7866 19.9112 17.9341 19.8726 18.2216C19.826 18.5088 20.2105 18.6527 20.2105 18.6527C20.2105 18.6527 20.0006 18.9983 20.0006 19.2584C20.0006 19.5264 19.9929 19.5768 20.02 19.8331C19.9892 19.8529 19.963 19.8791 19.9432 19.9099C19.9432 19.9099 19.9624 20.1585 20.1529 20.3136C20.3434 20.4688 20.5062 20.5622 20.6032 20.5233C20.618 20.5549 20.631 20.5874 20.6421 20.6206C20.6421 20.6206 20.786 20.2555 20.883 19.937C20.98 19.6109 21.0655 19.6572 21.1042 19.2184C21.1428 18.7797 21.565 18.0263 21.565 18.0263L21.853 17.3824L21.3832 17.0174L20.7192 17.0872V17.0875Z" fill="#B6903C"/>
<path id="Vector_72" fill-rule="evenodd" clip-rule="evenodd" d="M21.5928 17.7203C21.4959 17.8198 21.4065 17.9262 21.3253 18.0388C21.2011 18.2098 21.1041 18.3649 20.9216 18.4312C20.739 18.4975 20.6226 18.497 20.6341 18.6798C20.6456 18.8626 20.8166 18.9399 20.9136 19.0331C21.0186 19.1301 21.1041 19.2932 21.0575 19.476C21.1156 19.4488 21.2206 19.4176 21.3176 19.2079C21.4146 18.9983 22.0933 17.7206 22.0933 17.7206H21.5928V17.7203Z" fill="#685026"/>
<path id="Vector_73" fill-rule="evenodd" clip-rule="evenodd" d="M24.2685 14.7728C24.2685 14.7728 24.3266 14.6176 24.2685 14.505C24.2101 14.3885 23.8569 14.3496 23.682 14.2175C23.4995 14.0816 23.278 13.9871 23.0955 14.0467C23.1226 13.9807 23.2314 13.8368 23.1421 13.8058C23.0566 13.7787 22.7384 13.9223 22.6529 13.9884C22.5674 14.0544 22.3731 14.132 22.3344 14.1788C22.2958 14.2257 22.2295 14.3148 22.1906 14.2759C22.1516 14.2487 22.1324 14.1788 22.0664 14.2175C22.0003 14.2561 21.6824 14.5165 21.6238 14.668C21.5651 14.8196 21.4333 15.1575 21.0373 15.5418C20.6412 15.926 20.4702 16.1749 20.5867 16.3185C20.7032 16.4621 20.7577 16.3574 20.7772 16.4816C20.7921 16.6034 20.7856 16.727 20.7577 16.8466C20.7111 17.0486 20.6336 17.2388 20.7383 17.2777C21.0063 17.3632 21.2666 17.2009 21.3248 17.2506C21.4412 17.3553 21.2587 17.7321 21.5344 17.8058C21.8142 17.8826 22.0899 17.7398 22.0899 17.7398L23.1073 17.1922L24.086 16.6759L24.5867 15.6854L24.3182 14.8583L24.267 14.7728H24.2685Z" fill="#D4B968"/>
<path id="Vector_74" fill-rule="evenodd" clip-rule="evenodd" d="M23.3088 17.1379C23.3088 17.1379 23.1378 16.8778 23.3477 16.6485C23.5577 16.4191 23.8564 16.3223 23.9729 16.1787C23.9507 16.1514 23.921 16.1311 23.8874 16.1206C23.9647 15.9822 24.0827 15.871 24.2253 15.8019C24.1672 15.7438 24.0894 15.6972 24.0041 15.6972C23.8137 15.6972 23.6969 15.8136 23.5223 15.8136C23.3516 15.8136 23.3321 15.7281 23.3321 15.7281C23.3321 15.7281 23.6196 15.701 23.5922 15.5728C23.5651 15.4368 23.5154 15.4368 23.5154 15.4368C23.5154 15.4368 24.0707 15.2064 24.1677 15.0835C24.2647 14.9607 24.2532 14.8155 24.2727 14.7574C24.3385 14.7574 24.723 14.5554 24.8784 14.6409C25.0338 14.7264 24.925 14.9594 24.925 14.9594C24.925 14.9594 25.3952 14.6058 25.6348 14.2592C25.8445 14.2787 25.942 14.1156 26.0956 14.1156C26.2861 14.1156 26.5851 14.3757 26.6432 14.931C26.6821 15.2494 26.7402 15.432 26.6821 15.9952C26.655 16.3136 26.6627 16.9936 26.7589 17.331C26.8247 17.599 26.9801 17.5719 26.9801 17.5719C26.9563 17.6535 26.909 17.7264 26.8442 17.7815C26.7392 17.8785 26.7277 18.1351 26.7392 18.2321C26.7547 18.303 26.7742 18.373 26.7976 18.4417C26.7976 18.4417 26.6734 18.5854 26.6422 18.6826C26.6151 18.7797 26.4871 18.8457 26.3936 18.8457C26.3002 18.8457 26.347 18.8378 26.2229 18.8457C26.0987 18.8536 26.0598 18.8728 25.982 18.8457C25.9041 18.8186 25.846 18.7873 25.8773 18.5385C25.9044 18.2899 24.918 17.7114 24.918 17.7114L23.3052 17.1367L23.3088 17.1379Z" fill="#CCA849"/>
<path id="Vector_75" fill-rule="evenodd" clip-rule="evenodd" d="M21.4564 19.5922C21.4564 19.5922 21.8096 20.0622 23.2622 20.0622C23.9534 20.0622 24.1943 19.9962 24.3374 19.9573C24.4928 19.9183 25.0752 19.6895 25.6617 18.998C26.1898 18.3729 26.0733 18.1166 26.0733 18.1166L25.7661 18.07L24.7677 18.206L21.8135 19.4642L21.4551 19.5922H21.4564Z" fill="#585136"/>
<path id="Vector_76" fill-rule="evenodd" clip-rule="evenodd" d="M22.54 19.7087C22.54 19.7087 21.2817 19.9885 21.2817 19.1923C21.2817 18.4156 22.0584 17.6 22.2527 17.4564C22.4547 17.3125 22.9363 17.1492 22.9363 17.1492H24.0975L24.3187 17.7357L24.2217 19.0016L22.54 19.7084V19.7087Z" fill="#252211"/>
<path id="Vector_77" fill-rule="evenodd" clip-rule="evenodd" d="M23.7006 17.3865C23.7006 17.3865 23.4599 17.165 22.9123 17.4633C22.3648 17.7615 21.9219 18.3849 21.8947 18.9509C21.8676 19.4516 22.3064 19.8246 22.9899 19.8441C23.4986 19.8633 23.8055 19.8052 23.9609 19.7673C23.922 19.7207 23.72 19.4683 23.72 19.4683L23.7008 17.3867L23.7006 17.3865Z" fill="#C3B378"/>
<path id="Vector_78" fill-rule="evenodd" clip-rule="evenodd" d="M23.4645 17.5104C23.4645 17.5104 23.4064 17.4638 23.2341 17.557C23.0905 17.6338 22.8808 17.8368 22.7178 17.9804C22.6128 18.0659 22.5468 18.1046 22.4874 18.1706C22.2465 18.4581 22.0445 18.9281 22.1612 19.1611C22.278 19.394 22.6622 19.6621 23.6409 19.4795L23.4617 17.5107L23.4645 17.5104Z" fill="#E6D89C"/>
<path id="Vector_79" fill-rule="evenodd" clip-rule="evenodd" d="M23.1454 17.9922C23.1454 17.9922 22.99 18.2331 22.99 18.6176C22.99 19.0098 23.2115 19.6349 24.0271 19.6815C24.6523 19.7204 25.0716 18.7807 25.526 18.4156C25.8716 18.1361 26.0813 18.1281 26.0813 18.1281C26.0813 18.1281 25.728 17.7441 24.7844 17.2467C23.8523 16.7457 22.8075 16.6797 22.2405 17.4487C22.5085 17.4292 23.3746 17.2078 23.3746 17.2078L23.798 17.3437L23.1454 17.9924V17.9922Z" fill="#252211"/>
<path id="Vector_80" fill-rule="evenodd" clip-rule="evenodd" d="M24.3647 18.5009C24.3375 18.4427 24.3181 18.3649 24.4307 18.3457C24.5433 18.3265 24.5938 18.3378 24.6327 18.4225C24.6716 18.5073 24.7095 18.5779 24.6519 18.613C24.5938 18.644 24.4422 18.613 24.3644 18.5003L24.3647 18.5009ZM24.1821 17.9533C24.1821 17.9533 24.1432 17.9804 24.1627 17.9261C24.1704 17.8603 24.221 17.7436 24.3452 17.771C24.4694 17.7984 24.4425 17.9341 24.422 17.973C24.4015 18.0119 24.2978 18.0777 24.22 18.0498C24.2102 18.0473 24.201 18.0425 24.1934 18.0357C24.1857 18.029 24.1797 18.0206 24.1759 18.0111C24.1722 18.0017 24.1706 17.9915 24.1715 17.9813C24.1724 17.9712 24.1757 17.9614 24.1811 17.9528L24.1821 17.9533Z" fill="#6F674D"/>
<path id="Vector_81" fill-rule="evenodd" clip-rule="evenodd" d="M13.6707 18.2016C13.6707 18.2016 13.9779 18.432 14.3347 18.423C14.688 18.4151 15.1424 18.0503 15.3521 17.8171C15.4762 17.6811 15.5825 17.5375 15.6977 17.4249C15.7949 17.3279 15.8607 17.2813 15.9073 17.2152C15.9734 17.1384 16.0433 16.994 16.0783 16.9472C15.9928 17.0132 15.8687 17.13 15.7404 17.2075C15.6163 17.2843 15.3482 17.4287 15.2394 17.4676C15.1347 17.5066 14.0472 18.082 14.0472 18.082L13.6707 18.2016Z" fill="#AC924C"/>
<path id="Vector_82" fill-rule="evenodd" clip-rule="evenodd" d="M14.1404 15.3321C14.1404 15.3321 14.3111 15.2156 14.6414 15.1416C14.9598 15.0648 15.6006 15.0057 15.6006 15.0057L16.1287 15.2361L16.3384 16.0323L15.9544 16.8597L15.4652 17.1669L14.9097 16.2737L14.1417 15.3336L14.1404 15.3321Z" fill="#9F8E57"/>
<path id="Vector_83" fill-rule="evenodd" clip-rule="evenodd" d="M13.4489 16.0427L13.2661 16.1792C13.2661 16.1792 13.313 16.0937 13.3516 15.8336C13.3903 15.5735 13.5925 14.9404 13.8877 14.5754C14.1829 14.2103 14.1752 14.2298 14.1752 14.2298C14.148 14.2248 14.1201 14.2257 14.0933 14.2323C14.0665 14.239 14.0414 14.2513 14.0198 14.2684C14.0587 14.1824 14.3073 13.8752 14.5558 13.7216C14.8044 13.568 14.9014 13.5196 15.1615 13.6448C15.4216 13.77 15.4877 13.835 15.6781 13.8273C15.8686 13.8196 16.0314 13.6177 16.0314 13.6177C16.0314 13.6177 16.0703 13.7418 15.9267 14.0293C15.7831 14.3168 15.2161 14.903 15.2161 14.903L14.0354 15.7107L13.4489 16.0435V16.0427Z" fill="#EAC970"/>
<path id="Vector_84" fill-rule="evenodd" clip-rule="evenodd" d="M14.3223 15.2351C14.3223 15.2351 15.1768 15.3515 15.4369 15.1109C15.4446 15.138 15.4758 15.138 15.4758 15.1575C15.4738 15.1722 15.4669 15.1857 15.4564 15.1961C15.4847 15.1916 15.5133 15.1891 15.5419 15.1885C15.5761 15.1986 15.6113 15.2052 15.6469 15.2079C15.6755 15.2073 15.7041 15.2047 15.7324 15.2C15.7297 15.2193 15.7231 15.2379 15.7131 15.2546C15.703 15.2713 15.6898 15.2858 15.674 15.2973C15.7129 15.2973 15.7508 15.3049 15.7508 15.3359C15.7508 15.3669 15.7585 15.4603 15.7119 15.4798C15.6733 15.4905 15.6322 15.4877 15.5954 15.4719C15.5985 15.5454 15.6184 15.6172 15.6538 15.6818C15.7306 15.8254 15.8944 15.989 16.1146 15.9419C16.1146 15.9419 16.2308 16.2214 15.7416 16.8427C15.6758 16.9282 15.6056 17.0447 15.5204 17.1417C15.4867 17.2152 15.461 17.292 15.4436 17.3709C15.4436 17.3709 16.271 17.0524 16.5078 16.3261C16.7487 15.596 16.7953 14.8777 16.7487 14.2059C16.7407 14.0155 16.7098 13.8798 16.6632 13.7825C16.5467 13.5416 16.2203 13.5805 16.0885 13.7165C15.898 13.9069 15.5795 14.3805 15.1369 14.7067C14.6863 15.0328 14.6671 15.0907 14.3213 15.2351H14.3223Z" fill="#D7BC6B"/>
<path id="Vector_85" fill-rule="evenodd" clip-rule="evenodd" d="M13.2971 16.2837C13.2971 16.2837 13.134 16.3807 13.0485 16.7445C12.963 17.1172 13.1253 17.5716 13.2193 17.7152C13.3132 17.8588 13.5265 18.2513 13.9688 18.2707C14.0783 18.2702 14.1866 18.2477 14.2873 18.2047C14.4417 18.1339 14.5866 18.0438 14.7184 17.9367C14.9089 17.793 15.064 17.6689 15.0445 17.6571C14.9979 17.6376 13.8718 16.7055 13.8718 16.7055L13.4484 16.233L13.2968 16.2842L13.2971 16.2837Z" fill="#585136"/>
<path id="Vector_86" fill-rule="evenodd" clip-rule="evenodd" d="M14.3618 17.8291C14.3618 17.8291 14.5909 17.8099 14.7268 17.7244C14.8628 17.6389 13.9307 16.7148 13.9307 16.7148L13.9967 17.7132L14.3618 17.8291Z" fill="#453A25"/>
<path id="Vector_87" fill-rule="evenodd" clip-rule="evenodd" d="M13.3713 16.2135C13.3713 16.2135 13.2548 16.4349 13.2548 16.4933C13.2354 16.6835 13.2937 17.2815 13.3403 17.4717C13.3869 17.6737 13.6393 17.9804 13.9657 17.9804C14.1675 17.9804 14.4473 17.8563 14.4473 17.8253C14.4473 17.7864 14.1598 17.7485 14.0822 17.6038C14.0356 17.527 14.0162 17.3361 14.0054 17.143C13.9977 17.0189 13.9977 16.8829 14.0443 16.8358C14.1493 16.7194 14.1685 16.3853 14.1685 16.3853L14.5412 15.6928H14.051L13.4645 16.0579L13.3713 16.2135Z" fill="#84754B"/>
<path id="Vector_88" fill-rule="evenodd" clip-rule="evenodd" d="M13.2273 16.4272C13.2273 16.4272 13.6113 15.9186 13.9574 15.8018C14.3035 15.6851 14.4584 15.7552 14.4584 15.7552L14.2564 16.2719L13.9689 16.5903L13.9884 16.7534C13.9884 16.7534 13.9415 17.1845 14.229 17.4835C14.5165 17.7825 14.73 17.771 14.8544 17.771C14.9788 17.771 15.336 17.666 15.5185 17.2349C15.6816 16.8312 15.8175 16.3133 15.4914 15.7942C15.1726 15.2776 14.6097 15.2576 14.5009 15.2576C14.3921 15.2576 13.5378 15.3003 13.2273 16.4265V16.4272Z" fill="#252211"/>
<path id="Vector_89" fill-rule="evenodd" clip-rule="evenodd" d="M23.0875 18.1553C22.9439 18.0892 23.0798 17.6855 23.2234 17.5611C23.367 17.4367 23.5496 17.2933 23.8683 17.2736C23.9845 17.2659 24.0972 17.3396 24.078 17.4175C24.0508 17.5611 23.8488 17.7631 23.6663 17.9067C23.4139 18.1048 23.2506 18.229 23.0875 18.1553Z" fill="#F7F7E7"/>
<path id="Vector_90" fill-rule="evenodd" clip-rule="evenodd" d="M15.3201 15.9534C15.4251 15.9457 15.561 16.0302 15.5881 16.1439C15.6153 16.268 15.5221 16.5166 15.3201 16.5166C15.157 16.5166 15.0715 16.3146 15.0715 16.2565C15.0734 16.2087 15.0867 16.1621 15.1104 16.1206C15.1181 16.1088 15.1376 15.9729 15.3201 15.9534Z" fill="#F8F6DE"/>
<path id="Vector_91" fill-rule="evenodd" clip-rule="evenodd" d="M13.8058 16.0428C13.8058 16.0428 13.5378 16.1669 13.4137 16.4268C13.3249 16.6186 13.2981 16.8333 13.3369 17.0412C13.3563 17.1382 13.4533 17.3788 13.5194 17.4643C13.5854 17.5498 13.6748 17.6082 13.7408 17.6003C13.8069 17.5923 13.9425 17.4177 13.9425 17.313C13.9425 17.2083 13.9505 16.7654 14.0785 16.5245C14.1911 16.2839 13.8066 16.043 13.8066 16.043L13.8058 16.0428Z" fill="#D4C38B"/>
<path id="Vector_92" fill-rule="evenodd" clip-rule="evenodd" d="M13.845 16.0233C13.7984 16.0504 13.7209 16.0893 13.7401 16.1398C13.7595 16.1864 13.9226 16.2166 13.981 16.3302C14.047 16.4467 14.047 16.5709 14.0275 16.6293C14.0783 16.6052 14.1243 16.5722 14.1635 16.532C14.249 16.4349 14.3537 16.3031 14.443 16.3031C14.5014 16.3031 14.5595 16.3302 14.614 16.3302C14.6995 16.3302 14.7848 16.3031 14.7966 16.2138C14.8158 16.0973 14.6335 15.9923 14.5285 16.0118C14.548 15.935 14.5751 15.8216 14.4896 15.7437C14.4041 15.6659 14.1363 15.8021 14.078 15.841C14.0196 15.8799 13.845 16.0236 13.845 16.0236V16.0233Z" fill="#E2D59D"/>
<path id="Vector_93" fill-rule="evenodd" clip-rule="evenodd" d="M20.0154 24.1825L20.5901 24.0128L20.7532 24.1293C20.7532 24.1293 20.8694 24.3779 21.0522 24.4088C20.9938 24.533 20.8422 24.6392 20.8502 24.7273C20.8581 24.8154 20.9357 24.8827 20.9357 24.8827C20.9357 24.8827 20.4191 25.737 21.4367 26.5979C21.1958 26.6949 20.8891 26.8283 20.726 26.9051C20.8422 26.9322 21.0908 26.9819 21.1958 27.0761C21.3007 27.1703 21.3007 27.2003 21.3978 27.2586C21.4948 27.317 21.5529 27.3946 21.5337 27.4294C21.4676 27.3905 21.2462 27.2743 21.2076 27.3828C21.1689 27.4913 20.2483 27.4488 20.2483 27.4488L18.6949 27.7479C18.6949 27.7479 18.753 27.5925 18.59 27.4488C18.3997 27.2781 18.1668 27.4565 17.9182 27.2663C17.5921 27.0177 17.5803 26.7303 17.4756 26.6217C17.5803 26.5557 17.794 26.4586 18.3027 26.3913C18.2833 26.3524 18.2172 26.2359 18.2561 26.1312C18.3027 25.9953 18.4968 25.9098 18.4387 25.7472C18.5242 25.7278 18.5628 25.7278 18.7766 25.4597C18.9786 25.1917 19.1027 25.1336 19.2581 25.1141C19.4135 25.0947 19.5067 25.1141 19.7942 24.8461C19.9959 24.6559 19.9301 24.4928 19.9301 24.4928C19.9301 24.4928 20.062 24.4501 20.0156 24.182L20.0154 24.1825Z" fill="#CBAC5A"/>
<path id="Vector_94" fill-rule="evenodd" clip-rule="evenodd" d="M18.3188 24.2688C18.3265 24.2299 18.3577 24.2104 18.5673 24.2299C18.777 24.2493 20.1051 24.1057 20.4664 24.0863C20.8314 24.0591 22.1168 24.0783 22.7422 24.2104C23.3676 24.3425 24.0004 24.4979 24.3071 24.5755C24.6143 24.661 24.7111 24.6917 24.6993 24.7306C24.6916 24.7695 24.6225 24.8074 24.5828 24.7967C24.5442 24.789 23.5266 24.4782 23.2122 24.4127C22.8978 24.3471 21.8101 24.1718 21.2154 24.1823C20.6601 24.1902 20.4387 24.1746 19.9689 24.2289C19.4989 24.2872 18.7222 24.3648 18.4893 24.3338C18.2589 24.3067 18.3065 24.3067 18.3183 24.2678L18.3188 24.2688Z" fill="#D6BC6F"/>
<path id="Vector_95" fill-rule="evenodd" clip-rule="evenodd" d="M21.4449 27.3126C21.4449 27.3126 22.2411 27.7437 22.5285 28.2719C22.7382 28.6641 22.4044 28.8584 22.4044 28.8584C22.4044 28.8584 22.8549 28.8584 22.7966 29.1069C22.7694 29.2621 22.0199 29.6814 21.5189 29.9028C21.0102 30.1243 21.0297 30.1128 20.7811 30.1514C20.5402 30.1903 19.88 30.0746 19.744 30.2679C19.6081 30.4612 19.6672 30.6603 19.7051 30.6913C19.744 30.7185 20.0587 30.7574 20.0587 30.7574C20.0587 30.7574 19.9926 30.9399 19.3403 30.9594C18.688 30.9788 18.5247 31.0251 18.4858 31.0953C18.4469 31.1611 18.6099 31.1224 18.9092 31.1721C19.2082 31.2187 19.6275 31.2489 19.6275 31.2489C19.6275 31.2489 19.4916 31.3654 19.1383 31.4586C18.7344 31.5633 18.1013 31.6605 17.9111 31.777C18.0081 31.8431 18.152 31.9401 18.2183 31.9478C18.0552 31.9867 17.8258 32.0722 17.7872 32.1032C17.8453 32.1421 17.9231 32.1887 17.9231 32.1887C17.9231 32.1887 17.5967 32.5809 17.4065 32.6781C17.2163 32.7754 16.1211 33.2838 15.7443 33.1868C14.8045 32.9382 14.688 31.9091 14.4589 31.8315C14.1133 31.7151 13.9502 31.9478 13.6433 31.7847C13.7792 31.6877 13.8532 31.6296 13.9968 31.5635C13.8414 31.4867 13.0376 30.977 13.0376 30.977C12.9535 30.7938 12.8602 30.615 12.758 30.4412C12.6027 30.1732 12.374 29.8158 12.2025 29.5012C11.8298 28.81 11.8103 28.4915 11.4724 28.0993C11.5308 28.0225 11.7325 28.0333 11.7325 28.0333L14.5639 28.9654L19.5843 29.1108L20.8899 27.2468L21.4451 27.3129L21.4449 27.3126Z" fill="#DFC677"/>
<path id="Vector_96" fill-rule="evenodd" clip-rule="evenodd" d="M14.0073 30.1553C14.0376 30.189 14.0729 30.2178 14.112 30.2408C14.2093 30.3068 14.3529 30.3846 14.4499 30.5009C14.4889 30.4428 14.5859 30.3378 14.7571 30.5009C14.9284 30.6639 15.1411 30.5477 15.2735 30.5864C15.4094 30.6332 15.4171 30.6524 15.4171 30.6524C15.4171 30.6524 15.4939 30.5864 15.6657 30.5165C15.7707 30.4776 15.8948 30.4504 16.0307 30.4118C16.1549 30.3846 16.2908 30.3457 16.3843 30.3457C16.4698 30.4038 16.7765 30.7297 18.0076 30.2487C19.1688 29.7981 19.4366 29.7477 19.6309 29.8173C19.6503 29.7708 19.6698 29.6814 19.9688 29.6932C19.9688 29.569 19.7202 29.1456 19.7202 29.1456L18.3493 28.6758H17.5995L15.3511 29.0875L14.1051 29.7984L14.0081 30.1568L14.0073 30.1553Z" fill="#C4A859"/>
<path id="Vector_97" fill-rule="evenodd" clip-rule="evenodd" d="M13.2585 29.3671C13.2585 29.3671 13.2857 29.5767 13.5965 29.7982C13.9037 30.0193 14.0002 30.1514 14.0002 30.1514C14.0002 30.1514 14.0585 30.0746 14.1051 29.9963C14.1517 29.9108 14.1906 29.8138 14.2682 29.7866C14.4236 29.7206 14.7769 29.8447 14.8547 29.8253C14.9208 29.8061 14.9013 29.6702 14.9712 29.6702C15.1343 29.6622 15.239 29.7749 15.2973 29.7749C15.3557 29.7749 15.4991 29.7672 15.5185 29.7362C15.538 29.7052 15.5457 29.3827 15.7671 29.2273C16.008 29.0565 16.3032 29.1303 16.3815 29.1692C16.3815 29.2273 16.3892 29.3711 16.5446 29.3788C16.7 29.3865 16.7153 29.3594 16.8518 29.406C16.9882 29.4526 17.1508 29.3983 17.2245 29.6271C17.2905 29.6079 17.4459 29.5885 17.407 29.3671C17.4838 29.3089 17.5509 29.27 17.7142 29.0409C17.7531 28.9828 17.8189 28.9167 17.8696 28.8312C18.0056 28.8312 18.1686 28.8041 18.386 28.9943C18.3199 29.0409 18.281 29.0711 18.2618 29.1185C18.3187 29.1748 18.3706 29.2358 18.4169 29.301C18.4753 29.3778 18.5142 29.472 18.588 29.4915C18.751 29.5381 19.0191 29.472 19.3181 29.4915C19.6056 29.5109 19.8462 29.6156 19.9512 29.6817C19.9901 29.6625 19.9901 29.6545 20.0871 29.674C20.1841 29.6935 20.2578 29.7011 20.1531 29.577C20.2113 29.6041 20.2773 29.6625 20.3357 29.6041C20.394 29.5457 20.4404 29.4605 20.6034 29.441C20.7665 29.4216 20.8249 29.4487 20.8909 29.278C20.9764 29.0683 20.6813 29.0683 20.6813 29.0683C20.6813 29.0683 20.8172 28.9439 20.9688 28.7808C21.1513 28.6101 21.3609 28.3886 21.4114 28.1167C21.4969 27.6157 21.0077 27.55 21.0077 27.55L18.6348 28.2801L15.7338 28.1362L13.2601 29.3673L13.2585 29.3671Z" fill="#927D49"/>
<path id="Vector_98" fill-rule="evenodd" clip-rule="evenodd" d="M11.1265 22.5126C11.1265 22.5126 11.0497 22.6097 11.0024 22.8388C10.955 23.0679 10.9752 23.0408 10.9363 23.2038C10.8974 23.3669 10.4194 24.9902 10.5986 25.5378C10.7778 26.0854 11.0881 26.2874 11.2822 26.73C11.3211 26.827 11.359 26.8854 11.3792 26.9709C11.4452 27.2581 11.3871 27.4796 11.4647 27.767C11.4918 27.8641 11.562 27.9767 11.6667 28.0932C11.8971 28.3338 12.2726 28.563 12.4347 28.726C12.6635 28.9669 12.9899 29.4564 13.4054 29.5027C13.6269 29.5299 13.9415 29.4367 14.2016 29.2815C14.432 29.1377 14.5743 28.9359 14.816 28.8207C14.9867 28.7352 15.1693 28.7043 15.3323 28.6654C15.6703 28.5993 15.9772 28.5886 16.1597 28.6264C16.4393 28.6848 17.0995 28.8868 17.4653 28.8868C17.7512 28.8822 18.0354 28.8431 18.3119 28.7703C18.8672 28.6072 19.5389 28.3274 19.9818 28.2033C20.2419 28.1265 20.4516 28.1062 20.6653 28.0597C21.0304 27.9742 21.3371 27.8577 21.5119 27.6362C21.3954 27.5003 21.2518 27.2906 20.4749 27.2983C19.5935 27.3178 18.5759 27.807 18.0749 27.8848C17.5739 27.9626 17.3565 28.0284 16.7972 27.8264C16.2488 27.6224 16.2306 27.4875 16.2306 27.4875C16.2306 27.4875 15.6549 27.0848 15.414 26.0582C15.1731 25.0317 15.414 24.2836 16.0394 23.5727C16.2025 23.3902 16.1636 23.2271 16.1636 23.2271C16.1636 23.2271 16.5752 22.6719 16.4626 22.1519C16.3384 21.6353 15.5423 21.7403 15.5423 21.7403L11.1268 22.5126H11.1265Z" fill="#6E6342"/>
<path id="Vector_99" fill-rule="evenodd" clip-rule="evenodd" d="M11.7905 24.2409C11.7563 24.3053 11.7402 24.3777 11.7439 24.4506C11.7516 24.5553 11.7829 24.6912 12.0972 24.9981C12.3653 25.2659 12.3069 25.5649 12.3069 25.5649C12.3069 25.5649 12.4418 25.5921 12.8079 25.4208C13.0954 25.2849 13.1919 25.5258 13.1919 25.5258C13.2756 25.4819 13.3663 25.4529 13.4599 25.4403C13.5447 25.4324 13.6269 25.4062 13.7005 25.3635C13.7005 25.3635 14.0385 25.7091 14.3336 25.8721C14.6017 26.016 14.7571 26.113 14.8891 26.016C15.0133 25.9305 15.0133 25.7557 15.0054 25.6781C14.9746 25.6065 14.9356 25.5387 14.8891 25.4761C14.8036 25.3519 14.6677 25.2081 14.6588 25.0921C14.6393 24.8243 14.8607 24.5056 14.8139 24.428C14.767 24.3505 14.5927 24.331 14.1616 24.4864C13.7151 24.6339 11.7887 24.2417 11.7887 24.2417L11.7905 24.2409Z" fill="#39331F"/>
<path id="Vector_100" fill-rule="evenodd" clip-rule="evenodd" d="M12.8078 25.9768C12.8078 25.9768 12.5866 25.7672 12.6642 24.7496C12.7581 24.7482 12.8519 24.7573 12.9438 24.7767C12.9438 24.7767 13.0643 25.5652 12.8078 25.9768Z" fill="#292311"/>
<path id="Vector_101" fill-rule="evenodd" clip-rule="evenodd" d="M11.2311 21.7359C11.2619 21.7131 11.2905 21.6874 11.3166 21.6591C11.2398 21.8028 10.8852 22.3775 11.1727 23.2824C11.4602 24.1833 12.1823 24.855 13.0717 24.8863C13.961 24.9175 14.4285 24.4823 14.963 23.83C15.1727 23.5699 15.4136 23.2435 15.6271 23.0223C15.9455 22.6765 16.1941 22.5795 16.1941 22.2456C16.1941 21.5621 15.495 21.2552 14.4659 20.9485C13.4367 20.6418 12.5085 20.6797 12.027 20.8896C11.5572 21.1185 11.3552 21.3594 11.2308 21.7362L11.2311 21.7359Z" fill="#252211"/>
<path id="Vector_102" fill-rule="evenodd" clip-rule="evenodd" d="M14.5357 26.2835L14.6125 26.2446C14.6125 26.2446 14.6317 25.9374 14.7561 25.9456C14.8803 25.9651 14.9386 26.1284 14.9269 26.1865C14.9192 26.2446 14.8882 26.3419 14.7638 26.3301C14.6007 26.334 14.5349 26.2835 14.5349 26.2835H14.5357Z" fill="#3F3824"/>
<path id="Vector_103" fill-rule="evenodd" clip-rule="evenodd" d="M14.1907 24.9787C14.1907 24.9787 14.2675 24.9515 14.3614 25.0447C14.4382 25.0447 14.7731 25.0058 14.878 25.0719C14.983 25.1379 15.014 25.196 15.014 25.196C15.014 25.196 14.6218 25.2815 14.408 25.196C14.1907 25.1223 14.1907 24.9787 14.1907 24.9787Z" fill="#2D2815"/>
<path id="Vector_104" fill-rule="evenodd" clip-rule="evenodd" d="M15.919 25.0368C15.919 25.0174 15.7094 24.8737 15.4879 24.8269C15.449 24.8192 15.4411 24.8463 15.4111 24.8463C15.3917 24.8387 15.384 24.7803 15.384 24.7803L15.258 24.8466C15.258 24.8466 15.2386 24.8737 15.3046 24.9234C15.3627 24.97 15.46 25.0089 15.4872 25.0865C15.5143 25.164 15.5143 25.1912 15.5261 25.203C15.5338 25.2106 15.6697 25.203 15.7357 25.164C15.8018 25.1251 15.9262 25.0616 15.9183 25.036L15.919 25.0368Z" fill="#82764F"/>
<path id="Vector_105" fill-rule="evenodd" clip-rule="evenodd" d="M13.957 25.8253C13.957 25.8253 13.9957 25.5575 14.256 25.5457C14.5238 25.5263 14.5745 25.7864 14.5745 25.7864L14.4191 25.9418C14.4191 25.9379 14.3026 25.7749 13.9583 25.8253H13.957Z" fill="#2D2816"/>
<path id="Vector_106" fill-rule="evenodd" clip-rule="evenodd" d="M15.6465 24.6717C15.6465 24.6717 15.5026 24.8271 15.1844 24.8737C15.1573 24.8348 15.0989 24.7572 15.1844 24.6331C15.2699 24.5089 15.367 24.47 15.464 24.5087C15.5068 24.5156 15.5467 24.5346 15.5791 24.5635C15.6114 24.5924 15.6348 24.63 15.6465 24.6717Z" fill="#574F35"/>
<path id="Vector_107" fill-rule="evenodd" clip-rule="evenodd" d="M16.2325 24.8622C16.2405 24.8233 16.2133 24.8156 16.2325 24.7962C16.2517 24.7767 16.357 24.738 16.3764 24.7572C16.3841 24.7652 16.3764 24.7962 16.3764 24.834C16.3764 24.8719 16.3764 24.9108 16.357 24.9387C16.3298 24.9777 16.2523 24.9971 16.2133 24.9856C16.1744 24.9741 16.1667 24.9195 16.1667 24.9088C16.1859 24.9011 16.2325 24.8817 16.2325 24.8622ZM16.8956 24.4429C16.8956 24.4234 16.9616 24.3845 17.0005 24.3845C17.0586 24.3845 17.0586 24.4311 17.0666 24.4429C17.0858 24.4506 17.0858 24.4349 17.1052 24.47C17.1247 24.5051 17.1521 24.567 17.1324 24.6059C17.1127 24.6449 17.0354 24.6717 17.0162 24.6641C16.989 24.6446 16.9035 24.47 16.8956 24.4429Z" fill="#82764F"/>
<path id="Vector_108" fill-rule="evenodd" clip-rule="evenodd" d="M15.561 24.9516C15.561 24.9516 15.6465 24.9707 15.763 25.068C15.7241 25.0952 15.6657 25.1261 15.6657 25.1261C15.6657 25.1261 15.6581 25.0368 15.561 24.9513V24.9516Z" fill="#6E6342"/>
<path id="Vector_109" fill-rule="evenodd" clip-rule="evenodd" d="M15.371 24.097C15.3515 24.0778 15.4291 24.0312 15.4757 24.0389C15.5223 24.0466 15.5417 24.0778 15.5922 24.0855C15.6426 24.0932 15.6505 24.0661 15.669 24.0466C15.6874 24.0271 15.7545 24.0389 15.766 24.0466C15.7732 24.0551 15.7797 24.0642 15.7855 24.0737C15.7863 24.059 15.7901 24.0445 15.7968 24.0313C15.8034 24.0181 15.8127 24.0064 15.8241 23.9969C15.839 23.986 15.8562 23.9786 15.8744 23.9752C15.8925 23.9718 15.9112 23.9726 15.9291 23.9775C15.9368 24.0046 15.9757 24.1016 15.968 24.1211C15.9603 24.1406 15.8438 24.1679 15.8241 24.1482C15.8436 24.1951 15.9291 24.2921 15.9406 24.3113C15.9521 24.3305 15.8551 24.3774 15.8164 24.3697C15.7622 24.3658 15.4281 24.1715 15.37 24.0978L15.371 24.097ZM15.8797 23.4524C15.8725 23.4329 15.8587 23.4164 15.8408 23.4058C15.8136 23.3981 15.7243 23.4058 15.7243 23.4524C15.7243 23.499 15.8011 23.7596 15.8873 23.8953C15.9846 24.0312 16.0504 24.1436 16.1165 24.1749C16.1372 24.1843 16.1607 24.1855 16.1824 24.1783C16.204 24.1711 16.222 24.156 16.2329 24.1359C16.2406 24.1165 16.2601 23.9729 16.2524 23.635C16.2447 23.297 16.2329 22.9709 16.2135 22.9514C16.194 22.932 16.1165 22.9322 16.0893 22.9709C16.0622 23.0095 15.8873 23.3943 15.8794 23.4524H15.8797Z" fill="#585136"/>
<path id="Vector_110" fill-rule="evenodd" clip-rule="evenodd" d="M15.5338 25.4408C15.5338 25.4408 15.3978 25.3553 15.2657 25.4136C15.1416 25.472 15.1493 25.7011 15.1493 25.7011C15.1772 25.7121 15.2074 25.716 15.2372 25.7126C15.267 25.7092 15.2955 25.6986 15.3203 25.6817C15.4058 25.6235 15.5143 25.5265 15.5338 25.441V25.4408Z" fill="#574F35"/>
<path id="Vector_111" fill-rule="evenodd" clip-rule="evenodd" d="M15.7902 25.7477C15.7825 25.6709 15.7134 25.6709 15.7134 25.6312C15.7181 25.6123 15.7291 25.5954 15.7446 25.5835C15.76 25.5715 15.7791 25.5651 15.7986 25.5652C15.8375 25.5652 15.8754 25.6118 15.923 25.642C15.9696 25.6691 16.0395 25.7188 16.0472 25.7779C16.0549 25.8371 15.9704 25.9991 15.8765 25.9991C15.7825 25.9991 15.8104 25.8243 15.7909 25.7467L15.7902 25.7477ZM16.5397 25.6428C16.5397 25.6428 16.3844 25.6893 16.3959 25.6428C16.4074 25.5962 16.4427 25.5846 16.4932 25.5846C16.5188 25.5578 16.5532 25.5412 16.5902 25.5378C16.6113 25.5367 16.6321 25.5437 16.6483 25.5572C16.6483 25.5572 16.7533 25.5107 16.7842 25.5378C16.8152 25.5649 16.7922 25.5649 16.8114 25.5962C16.8358 25.6308 16.8519 25.6707 16.8582 25.7126C16.8582 25.7436 16.7417 25.8097 16.6483 25.7981C16.5397 25.7748 16.5589 25.6622 16.5397 25.6428ZM17.4445 25.4679C17.4445 25.4679 17.491 25.495 17.4524 25.5263C17.4253 25.5534 17.2893 25.6031 17.1726 25.6118C17.0561 25.6118 16.9514 25.631 16.9514 25.5923C16.9514 25.5537 17.0484 25.4758 17.1065 25.4564C17.1182 25.4418 17.133 25.43 17.1498 25.4219C17.1667 25.4139 17.1851 25.4097 17.2038 25.4098C17.2504 25.4098 17.4327 25.3903 17.4834 25.3827C17.53 25.3747 17.5689 25.4019 17.5415 25.4408C17.53 25.4679 17.4445 25.4679 17.4445 25.4679ZM17.7125 24.2688C17.7125 24.2688 17.6541 24.393 17.5883 24.393C17.5223 24.3853 17.5223 24.3658 17.5223 24.3464C17.5223 24.3192 17.5883 24.2493 17.5804 24.2299C17.5612 24.2299 17.5143 24.2299 17.5223 24.1833C17.5223 24.1444 17.5883 24.0978 17.6464 24.1065C17.6903 24.0704 17.745 24.05 17.8018 24.0484C17.8679 24.0484 17.926 24.0676 17.926 24.1065C17.926 24.1454 17.8492 24.2307 17.821 24.2504C17.7901 24.2813 17.7511 24.3016 17.7125 24.2696V24.2688ZM16.827 26.5638C16.827 26.5638 16.7502 26.5718 16.7502 26.6104C16.7502 26.6299 16.7694 26.6299 16.7968 26.6184C16.8126 26.6175 16.8282 26.6148 16.8434 26.6104C16.851 26.6184 16.851 26.657 16.9094 26.657C16.9573 26.6506 17.0035 26.6347 17.0453 26.6104C17.0919 26.5912 17.1309 26.5715 17.1309 26.5336C17.1114 26.4676 17.0725 26.4364 17.0144 26.4364C16.9846 26.4345 16.9549 26.4412 16.9289 26.4558C16.9289 26.4558 16.9094 26.4169 16.8434 26.4558C16.7773 26.4947 16.785 26.4947 16.8045 26.5142C16.8393 26.5451 16.8277 26.5654 16.8277 26.5654L16.827 26.5638ZM16.3882 26.9678C16.3882 26.9484 16.4852 26.9094 16.5124 26.9212C16.5395 26.9289 16.6171 27.0763 16.6171 27.092C16.6171 27.1114 16.52 27.158 16.4811 27.158C16.4422 27.158 16.3764 27.092 16.3764 27.0812C16.3764 27.0735 16.423 27.062 16.423 27.0541C16.4345 27.0349 16.3882 26.988 16.3882 26.9686V26.9678ZM16.081 26.4008C16.1005 26.3931 16.1005 26.3736 16.1276 26.3542C16.1361 26.3485 16.1458 26.3449 16.1559 26.3436C16.166 26.3422 16.1763 26.3432 16.186 26.3465C16.1928 26.3343 16.2023 26.3237 16.2137 26.3156C16.2251 26.3075 16.2382 26.3021 16.252 26.2996C16.2986 26.292 16.3375 26.2996 16.3288 26.3191C16.3288 26.3775 16.3677 26.4161 16.3677 26.4627C16.3677 26.5093 16.3406 26.5677 16.2436 26.6066C16.1465 26.6337 16.0144 26.6337 15.995 26.626C15.9755 26.6184 15.9561 26.5405 15.9755 26.5016C15.995 26.4627 16.0493 26.4202 16.0805 26.4008H16.081Z" fill="#82764F"/>
<path id="Vector_112" fill-rule="evenodd" clip-rule="evenodd" d="M16.2047 26.4271C16.2047 26.4271 16.1387 26.466 16.1387 26.4855C16.1328 26.5043 16.1302 26.5239 16.131 26.5436C16.131 26.5551 16.2165 26.5359 16.228 26.5242C16.2319 26.5165 16.2047 26.4474 16.2047 26.4271Z" fill="#6E6342"/>
<path id="Vector_113" fill-rule="evenodd" clip-rule="evenodd" d="M15.6275 26.2446C15.6661 26.2525 15.7322 26.2446 15.7826 26.2641C15.8215 26.2835 15.8487 26.3224 15.8097 26.369C15.7708 26.4156 15.7329 26.4855 15.6467 26.4737C15.5496 26.466 15.4565 26.4156 15.4565 26.3767C15.4548 26.3521 15.4581 26.3274 15.4661 26.3041C15.4741 26.2807 15.4867 26.2592 15.5031 26.2408C15.542 26.2098 15.5612 26.2292 15.6272 26.2446H15.6275Z" fill="#585136"/>
<path id="Vector_114" fill-rule="evenodd" clip-rule="evenodd" d="M15.581 26.2835C15.581 26.2835 15.4569 26.3805 15.4256 26.4274C15.3867 26.474 15.1965 26.7146 15.1384 26.7651C15.1577 26.731 15.1797 26.6986 15.2042 26.668C15.1274 26.7171 15.0698 26.7912 15.0411 26.8777C14.9945 27.0216 15.3015 27.0991 15.5032 27.1575C15.7049 27.2159 15.783 27.2343 15.783 27.2343C15.7087 27.1227 15.645 27.0044 15.5926 26.881C15.5157 26.6985 15.4761 26.679 15.5265 26.5935C15.5654 26.508 15.6238 26.4499 15.6238 26.3839C15.6005 26.3224 15.581 26.2835 15.581 26.2835Z" fill="#574F35"/>
<path id="Vector_115" fill-rule="evenodd" clip-rule="evenodd" d="M11.1538 26.5905C11.1821 26.5957 11.2111 26.5957 11.2393 26.5905C11.2974 26.5825 11.9034 26.3601 12.5365 26.4C13.0104 26.4286 13.4802 26.5058 13.9383 26.6304C14.7345 26.8401 15.7247 27.2555 16.3655 27.4926C16.5362 27.5584 16.7034 27.6751 16.8263 27.7215C17.3158 27.9119 17.335 27.9119 17.6224 27.9624C17.9604 28.0089 18.306 27.8963 18.6672 27.8187C19.1098 27.7215 19.8671 27.6749 20.5311 27.5778C20.7459 27.5481 20.9577 27.5 21.1642 27.4342C21.1642 27.4342 20.6361 27.9624 19.3699 28.1526C18.8581 28.2303 18.338 28.2368 17.8244 28.172C17.4205 28.1331 17.1527 28.0747 16.9507 28.0166C16.7216 27.9506 16.2516 27.7757 15.673 27.6326C15.269 27.5277 14.8185 27.4501 14.3021 27.3531C13.0283 27.1199 11.6459 26.8521 11.1533 26.592L11.1538 26.5905Z" fill="#252211"/>
<path id="Vector_116" fill-rule="evenodd" clip-rule="evenodd" d="M9.72369 24.1905C9.41649 24.4506 9.0906 24.6991 8.77239 24.9398L7.81316 25.6768C7.48701 25.9174 7.16855 26.166 6.84215 26.4069C6.51575 26.6478 6.18986 26.8767 5.84375 27.0981C6.15095 26.838 6.47684 26.5971 6.80298 26.3603C7.12913 26.1235 7.4673 25.8913 7.78193 25.6512L8.74116 24.9131C9.07114 24.6725 9.38961 24.4239 9.72369 24.191V24.1905ZM8.02666 26.9089C8.02666 26.9089 8.37226 26.6214 8.80337 26.2177C9.33917 25.717 9.99556 25.076 10.2052 24.9597L8.02641 26.9092L8.02666 26.9089Z" fill="#CFB66C"/>
<path id="Vector_117" fill-rule="evenodd" clip-rule="evenodd" d="M8.02686 26.9087C8.19786 26.7379 8.38039 26.571 8.56292 26.4077L8.84247 26.167C8.92798 26.0902 9.02526 26.004 9.1105 25.9185C9.28126 25.7477 9.44842 25.5649 9.61918 25.3903C9.70381 25.3025 9.79329 25.2195 9.88721 25.1418C9.93416 25.1002 9.98631 25.0649 10.0423 25.0368C10.0892 25.0097 10.1396 24.96 10.2054 24.9513C10.1668 25.0097 10.1202 25.0368 10.0813 25.0872C10.0347 25.1261 9.99575 25.1727 9.9571 25.2114C9.87159 25.2969 9.77457 25.3745 9.68906 25.4523C9.50654 25.6077 9.31633 25.7595 9.1338 25.9221C8.95127 26.0846 8.78052 26.26 8.59774 26.423C8.39985 26.5902 8.21732 26.7533 8.02686 26.9094V26.9087ZM10.3493 25.3553C10.3493 25.3553 9.08337 26.5943 8.82302 26.796L10.3493 25.3553Z" fill="#CFB66C"/>
<path id="Vector_118" fill-rule="evenodd" clip-rule="evenodd" d="M10.3495 25.3553C10.2356 25.4871 10.1135 25.6116 9.98395 25.728L9.59995 26.0931C9.47579 26.2172 9.35905 26.3416 9.22721 26.4658C9.09127 26.5823 8.96711 26.6962 8.82324 26.8037L9.19598 26.4387C9.32039 26.3145 9.45633 26.2098 9.58843 26.0854L9.96116 25.7203C10.0892 25.5923 10.2136 25.4679 10.3495 25.3553ZM10.4076 26.027C10.2909 26.3527 10.1534 26.6705 9.99598 26.9786C9.66983 27.6311 9.18062 28.4465 8.96686 28.8622L10.4076 26.027Z" fill="#CFB66C"/>
<path id="Vector_119" fill-rule="evenodd" clip-rule="evenodd" d="M10.4071 26.0273C10.4071 26.1709 10.3682 26.2953 10.3216 26.4195C10.2762 26.5437 10.2244 26.6656 10.1665 26.7845C10.1081 26.901 10.0421 27.0254 9.97604 27.138C9.90999 27.2507 9.83242 27.3669 9.77405 27.4836L9.38186 28.1748C9.24593 28.4052 9.11383 28.6369 8.97021 28.8584C9.06724 28.6098 9.19933 28.3768 9.32375 28.1477C9.45969 27.9173 9.58385 27.6869 9.70775 27.4486C9.76825 27.3298 9.82267 27.2081 9.87082 27.0838C9.92893 26.9594 9.98705 26.8429 10.0339 26.7302C10.092 26.6061 10.1386 26.4893 10.197 26.377C10.2628 26.2564 10.3173 26.1399 10.4066 26.0273H10.4071Z" fill="#CFB66C"/>
<path id="Vector_120" fill-rule="evenodd" clip-rule="evenodd" d="M11.7899 29.2116C11.7899 29.2116 11.4059 29.7203 11.4443 30.3649C11.5491 30.0273 11.6811 29.5107 11.7899 29.2116ZM12.155 29.7216C12.155 29.7216 12.0191 31.104 11.9064 31.7837C12.0657 30.998 12.0966 31.0641 12.155 29.7216ZM14.6986 31.8654C14.6986 31.8654 14.1239 33.555 14.1121 34.0245C14.2365 33.5416 14.4772 32.5553 14.6986 31.8641V31.8654Z" fill="#DEC270"/>
<path id="Vector_121" fill-rule="evenodd" clip-rule="evenodd" d="M16.0425 29.1072C16.0425 29.1072 16.9746 30.645 17.6737 31.9575C17.4845 31.297 17.0493 30.0856 16.0425 29.1072Z" fill="#CBAF59"/>
<path id="Vector_122" fill-rule="evenodd" clip-rule="evenodd" d="M18.5481 31.371C19.0599 32.2756 19.5214 33.2078 19.9305 34.1632C19.8529 33.503 19.643 32.373 18.5481 31.371Z" fill="#E3C677"/>
<path id="Vector_123" fill-rule="evenodd" clip-rule="evenodd" d="M25.911 33.6384C26.0661 33.5414 26.3731 33.013 26.6411 32.8812C26.9089 32.7452 27.1108 32.7181 27.3517 32.45C27.5924 32.1702 27.6589 31.9995 28.1866 31.7783C28.9246 31.4596 28.417 31.0479 28.417 31.0479C28.4983 30.9681 28.5852 30.8942 28.677 30.8268C28.8675 30.6831 29.0887 30.5083 29.0695 30.2013C29.0424 29.685 28.9453 28.9354 28.5219 28.5005C28.9336 28.415 29.7218 28.3569 30.2115 28.2327C30.7783 28.0888 31.0386 27.8868 31.0386 27.8868C31.0386 27.8868 30.7125 27.3316 31.2406 26.7725C31.7688 26.2134 32.1999 25.8793 32.5183 25.2539C32.1533 25.2073 31.5967 25.0132 30.1764 25.5529C30.2531 25.589 30.3271 25.6305 30.3979 25.6771C30.3979 25.6771 29.5241 25.918 29.2057 26.186C28.6502 26.6557 28.5803 27.0403 27.9784 27.3277C27.3766 27.6152 26.7706 27.5374 26.2699 27.7704C25.7691 28.0033 25.6952 28.2015 25.5124 28.287C25.5513 28.3336 25.5047 28.4111 25.5784 28.4772C25.5318 28.5432 25.26 28.9859 24.9843 28.9859C25.0114 29.0908 25.2443 29.1684 25.2443 29.1684C25.2443 29.1684 25.0736 29.2928 24.6387 29.3238C24.8598 29.5542 25.0698 29.8053 25.6483 30.1704C25.6017 30.2674 25.4074 30.4113 25.4852 30.5938C25.5707 30.7763 25.7924 31.0249 26.6774 31.2269C26.2269 31.2461 25.699 31.351 24.9878 31.254C24.2772 31.1685 24.1607 31.1181 23.7219 31.2269C23.7685 31.2735 23.8927 31.2735 24.0015 31.3976C23.885 31.4053 23.1549 31.3121 22.9063 31.6385C22.6462 31.9762 22.5336 32.5317 22.553 32.9044C22.4171 32.9705 22.285 33.087 22.351 33.3279C22.4171 33.5688 22.7627 33.6463 22.9841 33.7976C23.2053 33.9607 23.2248 34.0188 23.4347 33.9802C23.6559 33.9336 23.982 33.7124 24.1725 33.7124C24.3629 33.7124 24.4986 33.856 24.4986 33.856C24.4986 33.856 25.0152 33.6074 25.0657 33.654C25.1123 33.7006 25.0733 33.9996 25.1238 34.0462C25.175 34.0813 25.7569 33.7357 25.9123 33.6384H25.911Z" fill="#ECD592"/>
<path id="Vector_124" fill-rule="evenodd" clip-rule="evenodd" d="M37.2005 18.0972C34.7734 11.8293 28.7733 10.668 28.7733 10.668H11.6548L11.7208 17.0524H15.13V31.3088H11.6545V37.6817H28.2994C32.3109 37.6817 35.5265 33.6504 35.5265 33.6504C40.676 26.3419 37.2003 18.0972 37.2003 18.0972H37.2005ZM28.3888 29.3553C28.3888 29.3553 27.0831 31.2389 25.6626 31.2389H22.821L22.7537 17.068H26.4004C26.4004 17.068 28.09 17.4213 29.2704 20.7649C29.2704 20.7649 30.8353 25.5521 28.3888 29.3553Z" fill="white" fill-opacity="0.8"/>
</g>
</svg>
