<svg width="48" height="48" viewBox="0 0 48 48" fill="none" xmlns="http://www.w3.org/2000/svg">
<g id="Coins/DOT">
<circle id="Ellipse 1" cx="24" cy="24" r="23.5" fill="white" stroke="#E0E0E0"/>
<g id="Group 3">
<path id="Vector" d="M24.1149 9C17.8487 9.02517 12.7752 14.0987 12.75 20.3649C12.75 21.6198 12.9526 22.8663 13.3493 24.0565C13.6453 24.8668 14.5239 25.3031 15.3485 25.0526C16.1456 24.7469 16.5687 23.8755 16.3146 23.0605C15.9778 22.1328 15.8279 21.1488 15.8723 20.1636C16.0089 15.6377 19.788 12.0791 24.3139 12.2158C28.8397 12.3524 32.3983 16.1315 32.2616 20.6574C32.1334 24.8943 28.7966 28.3355 24.5644 28.5931C24.5644 28.5931 22.9691 28.6902 22.1756 28.7873C21.8832 28.8293 21.5931 28.8868 21.3066 28.9599C21.2659 29.0019 21.2 29.0019 21.158 28.9611L21.1568 28.9599C21.1281 28.9228 21.1281 28.87 21.1568 28.8329L21.4037 27.4857L22.902 20.7473C23.0817 19.9059 22.546 19.0776 21.7046 18.8979C20.8632 18.7181 20.035 19.2538 19.8552 20.0952C19.8552 20.0952 16.2918 36.5889 16.2918 36.7387C16.088 37.5405 16.5723 38.3556 17.3741 38.5593C17.3825 38.5617 17.3921 38.5641 17.4005 38.5653H17.4832C18.2838 38.7727 19.1013 38.2908 19.3074 37.4902C19.311 37.477 19.3146 37.4638 19.317 37.4494C19.3146 37.4243 19.3146 37.3991 19.317 37.3751C19.3614 37.181 19.8108 34.9864 19.8108 34.9864C20.1512 33.3299 21.4864 32.0606 23.1572 31.8041C23.5012 31.7514 24.9467 31.6543 24.9467 31.6543C31.1889 31.0323 35.7447 25.4673 35.1215 19.2251C34.5533 13.5318 29.8369 9.14862 24.1149 9Z" fill="#1E1E1E"/>
<path id="Vector_2" d="M24.8044 35.2045C23.7796 34.9911 22.7776 35.6492 22.5643 36.6728C22.5619 36.6823 22.5607 36.6919 22.5583 36.7015C22.3366 37.7191 22.9814 38.7247 24.0002 38.9465C24.0014 38.9465 24.0026 38.9465 24.0038 38.9477H24.0565C25.0537 39.1886 26.0569 38.5749 26.2967 37.5789C26.2991 37.5717 26.3003 37.5633 26.3027 37.5561V37.4518C26.4788 36.4234 25.822 35.437 24.8044 35.2045Z" fill="#E6007A"/>
</g>
</g>
</svg>
