<svg width="108" height="104" viewBox="0 0 108 104" fill="none" xmlns="http://www.w3.org/2000/svg">
<path d="M31.6 103.13L39.68 82.62C29.21 77.36 22.01 66.51 22.01 54.01C22.01 36.36 36.36 22.01 54.01 22.01C71.66 22.01 86.01 36.36 86.01 54.01C86.01 66.85 78.4 77.92 67.46 83.01L75.74 103.42C94.72 95.04 108 76.05 108 54C108 24.22 83.78 0 54 0C24.22 0 0 24.22 0 54C0 75.78 12.97 94.59 31.59 103.12L31.6 103.13Z" fill="black"/>
<path d="M55.01 59.1301C57.9979 59.1301 60.42 56.7079 60.42 53.7201C60.42 50.7322 57.9979 48.3101 55.01 48.3101C52.0221 48.3101 49.6 50.7322 49.6 53.7201C49.6 56.7079 52.0221 59.1301 55.01 59.1301Z" fill="black"/>
</svg>
