<svg width="48" height="48" viewBox="0 0 48 48" fill="none" xmlns="http://www.w3.org/2000/svg">
<g id="Coins/LUNA">
<g id="Group 4">
<path id="Vector" d="M24 48C37.2548 48 48 37.2548 48 24C48 10.7452 37.2548 0 24 0C10.7452 0 0 10.7452 0 24C0 37.2548 10.7452 48 24 48Z" fill="#172852"/>
<g id="Group">
<path id="Vector_2" d="M19.3322 10.7256C22.1426 9.6744 25.3058 9.672 28.169 10.536C31.8962 11.6928 35.0426 14.5056 36.6866 18.036C37.1402 19.0416 37.5746 20.0904 37.6178 21.2088C35.5226 19.9944 33.2258 19.2072 30.9242 18.4896C27.2426 17.1624 23.3882 16.2408 19.9034 14.4168C19.0922 13.932 18.0578 13.4352 17.837 12.4248C17.7482 11.5512 18.6722 11.064 19.3322 10.7256Z" fill="#FFD83D"/>
<path id="Vector_3" d="M10.848 19.2216C11.6616 17.0136 12.996 14.964 14.808 13.4448C15.2688 17.2344 16.8816 20.8968 19.5456 23.652C22.74 26.9712 27.2904 29.0088 31.92 28.932C33.7584 28.9896 35.556 28.5648 37.3488 28.2216C35.5848 34.596 28.5984 38.8272 22.1256 37.8096C18.2184 37.3104 14.6112 34.9968 12.4344 31.7304C9.97923 28.1208 9.36003 23.328 10.848 19.2216Z" fill="#FFD83D"/>
</g>
<path id="Vector_4" d="M30.7798 18.4176C33.0814 19.1352 35.3782 19.9224 37.4734 21.1368L37.615 21.2112C37.8094 22.6728 37.951 24.1632 37.6918 25.6272C36.6382 25.1808 35.7838 24.396 34.891 23.7024C33.1726 22.272 31.4182 20.6352 30.7798 18.4176Z" fill="#FF6F03"/>
</g>
</g>
</svg>
