<svg width="256" height="256" viewBox="0 0 256 256" fill="none" xmlns="http://www.w3.org/2000/svg">
<circle cx="128" cy="128" r="128" fill="#FDF3F7"/>
<path d="M196.656 61.1059C196.158 63.7327 194.732 67.1974 192.978 70.4353C190.528 74.7563 187.413 78.6656 183.746 82.0198C176.568 77.1261 168.192 74.2735 159.515 73.7675C150.838 73.2615 142.186 75.1211 134.486 79.1473L134.221 78.7442C136.354 67.4053 144.083 60.8917 155.176 55.9215C160.457 53.5593 166.226 52.4902 172.004 52.8033C181.576 53.427 185.015 52.8033 196.656 61.1059Z" fill="#E87774"/>
<path d="M201.906 132.591C201.905 124.576 199.917 116.686 196.119 109.625C192.322 102.563 186.832 96.55 180.141 92.1214C173.45 87.6927 165.764 84.9864 157.771 84.2439C149.777 83.5013 141.723 84.7456 134.329 87.8657C133.937 88.0547 133.552 88.25 133.155 88.4201L129.369 90.4485C128.183 91.2359 127.034 92.0926 125.861 92.9682L122.668 95.91C121.715 96.9935 120.712 98.0581 119.759 99.1731C118.807 100.288 117.948 101.491 117.084 102.701C116.321 103.961 115.488 105.221 114.749 106.48C111.772 111.888 109.807 117.793 108.951 123.904C108.929 124.058 108.847 124.197 108.723 124.29C108.598 124.383 108.442 124.424 108.288 124.402C108.165 124.378 108.052 124.318 107.963 124.229C107.874 124.141 107.814 124.028 107.79 123.904C106.916 117.311 107.469 110.606 109.411 104.244C109.929 102.644 110.56 101.094 111.147 99.4629C111.834 97.9132 112.617 96.3951 113.368 94.8391C114.245 93.3714 115.191 91.9351 116.125 90.4737C117.052 89.2138 118.018 88.0232 118.983 86.7948C111.644 84.2012 103.788 83.4038 96.0756 84.4698C88.3634 85.5359 81.02 88.4341 74.6624 92.921C68.3048 97.408 63.1186 103.353 59.5395 110.256C55.9603 117.159 54.0928 124.818 54.0938 132.591C54.0938 133.309 54.0937 134.015 54.1505 134.721L54.0938 134.777C54.1311 135.696 54.2153 136.613 54.3461 137.524C54.9771 143.874 56.0813 149.915 58.9333 155.307C66.6439 171.685 84.6456 194.439 128 203.642C128 203.642 179.582 195.251 197.641 152.472C198.519 150.527 199.265 148.526 199.874 146.481C199.874 146.418 199.918 146.362 199.937 146.305C201.247 141.851 201.91 137.233 201.906 132.591Z" fill="#F78B84"/>
<path d="M201.906 132.591C201.905 137.228 201.245 141.841 199.944 146.292C199.944 146.362 199.906 146.412 199.887 146.475C199.268 148.516 198.522 150.517 197.654 152.466C179.595 195.232 127.981 203.623 127.981 203.623C95.0949 196.637 76.7966 181.852 66.5117 167.962C77.9148 176.289 91.405 181.301 105.487 182.441C119.568 183.581 133.691 180.806 146.289 174.422C158.887 168.039 169.469 158.297 176.86 146.277C184.251 134.257 188.164 120.427 188.164 106.323C188.167 103.657 188.032 100.993 187.76 98.3416C192.256 102.843 195.819 108.185 198.246 114.061C200.673 119.938 201.917 126.235 201.906 132.591Z" fill="#E87774"/>
</svg>
