<svg width="48" height="48" viewBox="0 0 48 48" fill="none" xmlns="http://www.w3.org/2000/svg">
<g id="Coins/UNI" clip-path="url(#clip0_114_604)">
<path id="Vector" d="M47.5003 24C47.5003 36.9787 36.9789 47.5 24.0002 47.5C11.0216 47.5 0.500244 36.9787 0.500244 24C0.500244 11.0213 11.0216 0.5 24.0002 0.5C36.9789 0.5 47.5003 11.0213 47.5003 24Z" fill="white" stroke="#E0E0E0"/>
<g id="uniswap-uni-logo 1" clip-path="url(#clip1_114_604)">
<path id="Vector_2" d="M21.1855 15.8266C20.8604 15.7802 20.8449 15.7647 20.9997 15.7492C21.2938 15.7028 21.9749 15.7647 22.4548 15.8731C23.5694 16.1362 24.5755 16.8173 25.6437 18.0093L25.9223 18.3344L26.3248 18.2724C28.043 17.9938 29.8077 18.2105 31.2783 18.8916C31.6808 19.0774 32.3155 19.4489 32.3929 19.5418C32.4238 19.5728 32.4703 19.774 32.5012 19.9752C32.6096 20.7028 32.5632 21.2446 32.331 21.6625C32.2071 21.8947 32.2071 21.9567 32.2845 22.1579C32.3464 22.3127 32.5322 22.4211 32.7025 22.4211C33.074 22.4211 33.461 21.8328 33.6467 21.0124L33.7241 20.6873L33.8635 20.8421C34.6529 21.7245 35.2721 22.9474 35.365 23.8142L35.396 24.0464L35.2566 23.8452C35.0244 23.4892 34.8077 23.257 34.5136 23.0557C33.9873 22.6997 33.43 22.5913 31.9594 22.5139C30.6282 22.4365 29.8697 22.3282 29.1266 22.0805C27.8573 21.6625 27.2071 21.1207 25.7056 19.1238C25.0399 18.2415 24.622 17.7616 24.204 17.3591C23.2907 16.4768 22.3774 16.0124 21.1855 15.8266Z" fill="#FF007A"/>
<path id="Vector_3" d="M32.7176 17.7926C32.7486 17.2043 32.826 16.8173 32.9963 16.4613C33.0582 16.322 33.1201 16.1981 33.1356 16.1981C33.1511 16.1981 33.1201 16.3065 33.0737 16.4303C32.9498 16.7709 32.9344 17.2508 33.0118 17.7926C33.1201 18.4892 33.1666 18.582 33.9096 19.3406C34.2501 19.6966 34.6526 20.1455 34.8074 20.3313L35.0706 20.6718L34.8074 20.4241C34.4823 20.1145 33.7393 19.5263 33.569 19.4489C33.4607 19.387 33.4452 19.387 33.3678 19.4644C33.3059 19.5263 33.2904 19.6192 33.2904 20.0681C33.2749 20.7647 33.182 21.1981 32.9498 21.6471C32.826 21.8792 32.8105 21.8328 32.9189 21.5697C32.9963 21.3684 33.0118 21.2755 33.0118 20.6099C33.0118 19.2632 32.857 18.9381 31.9127 18.3963C31.6805 18.257 31.278 18.0557 31.0458 17.9474C30.7981 17.839 30.6124 17.7461 30.6279 17.7461C30.6588 17.7152 31.5721 17.9783 31.9282 18.1331C32.47 18.3498 32.5628 18.3653 32.6248 18.3498C32.6712 18.3034 32.7022 18.1796 32.7176 17.7926Z" fill="#FF007A"/>
<path id="Vector_4" d="M21.8206 20.0991C21.1705 19.2012 20.7525 17.8081 20.8454 16.7709L20.8764 16.4458L21.0312 16.4768C21.3098 16.5232 21.7897 16.709 22.0219 16.8483C22.6411 17.2198 22.9197 17.7307 23.1829 19C23.2603 19.3715 23.3686 19.805 23.4151 19.9443C23.4925 20.1765 23.7866 20.7183 24.0343 21.0588C24.2045 21.3065 24.0962 21.4303 23.7092 21.3994C23.1209 21.3375 22.3315 20.7957 21.8206 20.0991Z" fill="#FF007A"/>
<path id="Vector_5" d="M31.9289 26.8328C28.8639 25.5944 27.7803 24.5263 27.7803 22.7152C27.7803 22.452 27.7958 22.2353 27.7958 22.2353C27.8112 22.2353 27.9196 22.3282 28.0589 22.4365C28.6781 22.9319 29.3747 23.1486 31.3097 23.4272C32.4397 23.5975 33.0899 23.7214 33.6781 23.9226C35.5512 24.5418 36.7122 25.8111 36.9908 27.5294C37.0682 28.0248 37.0218 28.969 36.8979 29.4644C36.7896 29.8514 36.48 30.5634 36.4026 30.5789C36.3871 30.5789 36.3561 30.5015 36.3561 30.3777C36.3252 29.7275 36.0001 29.1083 35.4583 28.6285C34.8081 28.0712 33.9722 27.6532 31.9289 26.8328Z" fill="#FF007A"/>
<path id="Vector_6" d="M29.761 27.3437C29.7301 27.1115 29.6527 26.8173 29.6062 26.6935L29.5288 26.4613L29.6682 26.6316C29.8694 26.8638 30.0242 27.1424 30.1635 27.5294C30.2719 27.8235 30.2719 27.9164 30.2719 28.3963C30.2719 28.8607 30.2564 28.969 30.1635 29.2322C30.0087 29.6502 29.823 29.9443 29.5134 30.2694C28.9561 30.8421 28.2285 31.1517 27.1914 31.291C27.0056 31.3065 26.4793 31.3529 26.0149 31.3839C24.8539 31.4458 24.0799 31.5697 23.3833 31.8173C23.2904 31.8483 23.1976 31.8793 23.1821 31.8638C23.1511 31.8328 23.631 31.5542 24.018 31.3684C24.5598 31.1053 25.1171 30.9659 26.34 30.7492C26.9437 30.6564 27.5629 30.5325 27.7177 30.4706C29.2502 29.9907 30.0087 28.7988 29.761 27.3437Z" fill="#FF007A"/>
<path id="Vector_7" d="M31.17 29.8359C30.7675 28.9536 30.6746 28.1176 30.8914 27.3282C30.9223 27.2508 30.9533 27.1734 30.9842 27.1734C31.0152 27.1734 31.1081 27.2198 31.201 27.2817C31.3867 27.4056 31.7737 27.6223 32.7644 28.1641C34.0183 28.8452 34.7304 29.3715 35.2257 29.9752C35.6592 30.5015 35.9223 31.1053 36.0462 31.8483C36.1236 32.2663 36.0771 33.2724 35.9688 33.6904C35.6282 35.0062 34.8542 36.0588 33.7242 36.6625C33.5539 36.7554 33.4146 36.8173 33.3991 36.8173C33.3836 36.8173 33.4455 36.6625 33.5384 36.4768C33.9099 35.6873 33.9564 34.9288 33.6777 34.0774C33.5075 33.5511 33.1514 32.9164 32.4394 31.8483C31.588 30.6099 31.3867 30.2848 31.17 29.8359Z" fill="#FF007A"/>
<path id="Vector_8" d="M19.6376 34.5728C20.7831 33.613 22.1918 32.9319 23.4921 32.7152C24.0493 32.6223 24.9781 32.6533 25.489 32.7926C26.3094 33.0093 27.0524 33.4737 27.4394 34.0465C27.811 34.6037 27.9812 35.0836 28.1515 36.1517C28.2134 36.5697 28.2908 37.0031 28.3063 37.096C28.4301 37.6533 28.6778 38.0867 28.9874 38.3189C29.4673 38.6749 30.3032 38.6904 31.1236 38.3808C31.263 38.3344 31.3868 38.2879 31.3868 38.3034C31.4178 38.3344 30.9998 38.613 30.7212 38.7523C30.3342 38.9536 30.0246 39.0155 29.6066 39.0155C28.8636 39.0155 28.2289 38.6285 27.7181 37.8545C27.6097 37.6997 27.393 37.2508 27.2072 36.8328C26.6654 35.579 26.3868 35.2074 25.7521 34.7895C25.1949 34.4334 24.4828 34.356 23.941 34.6192C23.2289 34.9598 23.0431 35.8731 23.5385 36.4303C23.7397 36.6625 24.1113 36.8483 24.4209 36.8947C24.9936 36.9721 25.489 36.5232 25.489 35.9505C25.489 35.579 25.3497 35.3622 24.9781 35.192C24.4828 34.9752 23.941 35.2229 23.9565 35.7028C23.9565 35.904 24.0493 36.0279 24.2506 36.1207C24.3744 36.1827 24.3744 36.1827 24.2815 36.1672C23.8326 36.0743 23.7243 35.517 24.0803 35.161C24.5137 34.7276 25.4271 34.9133 25.7366 35.517C25.8605 35.7647 25.876 36.2601 25.7676 36.5697C25.5044 37.2508 24.7614 37.6068 24.0029 37.4056C23.4921 37.2663 23.2753 37.1269 22.6562 36.4923C21.5726 35.3777 21.1546 35.161 19.6066 34.9288L19.3125 34.8824L19.6376 34.5728Z" fill="#FF007A"/>
<path id="Vector_9" fill-rule="evenodd" clip-rule="evenodd" d="M11.495 9.66563C15.1018 14.0464 20.6591 20.8576 20.9377 21.2291C21.1699 21.5387 21.0771 21.8328 20.6901 22.0495C20.4733 22.1734 20.0244 22.2972 19.8077 22.2972C19.56 22.2972 19.2659 22.1734 19.0647 21.9721C18.9254 21.8328 18.3216 20.9505 16.9594 18.8297C15.9223 17.2043 15.0399 15.8576 15.0244 15.8421C14.9625 15.8111 14.9625 15.8111 16.8511 19.1858C18.043 21.3065 18.43 22.065 18.43 22.1579C18.43 22.3591 18.3681 22.4675 18.1204 22.7461C17.7025 23.2105 17.5167 23.7368 17.3774 24.8359C17.2226 26.0588 16.8046 26.9257 15.6127 28.3963C14.9161 29.2632 14.8077 29.418 14.6374 29.774C14.4207 30.2074 14.3588 30.4551 14.3278 31.0124C14.2969 31.6006 14.3588 31.9721 14.5291 32.5294C14.6839 33.0248 14.8542 33.3498 15.2721 33.9845C15.6281 34.5418 15.8449 34.9598 15.8449 35.1145C15.8449 35.2384 15.8758 35.2384 16.4331 35.1145C17.7644 34.805 18.8634 34.2786 19.4672 33.6285C19.8387 33.226 19.9316 33.0093 19.9316 32.452C19.9316 32.096 19.9161 32.0186 19.8232 31.8019C19.6684 31.4613 19.3743 31.1827 18.7396 30.7492C17.9037 30.1765 17.5477 29.7121 17.4548 29.0929C17.3774 28.5666 17.4703 28.2105 17.9347 27.2353C18.4145 26.2291 18.5384 25.8111 18.6158 24.7895C18.6622 24.1393 18.7396 23.8762 18.9254 23.6749C19.1266 23.4582 19.2969 23.3808 19.7768 23.3189C20.5662 23.2105 21.0771 23.0093 21.4795 22.6223C21.8356 22.2972 21.9904 21.9721 22.0059 21.4923L22.0213 21.1362L21.8201 20.9195C21.0925 20.0836 11.0151 9 10.9687 9C10.9532 9 11.2009 9.29412 11.495 9.66563ZM16.2473 31.678C16.4176 31.3839 16.3247 31.0124 16.0461 30.8266C15.7829 30.6563 15.3805 30.7337 15.3805 30.9659C15.3805 31.0279 15.4114 31.0898 15.5043 31.1207C15.6436 31.1981 15.6591 31.2755 15.5507 31.4458C15.4424 31.6161 15.4424 31.7709 15.5817 31.8793C15.7984 32.0495 16.0925 31.9567 16.2473 31.678Z" fill="#FF007A"/>
<path id="Vector_10" fill-rule="evenodd" clip-rule="evenodd" d="M22.5166 23.5356C22.1451 23.644 21.7891 24.0464 21.6807 24.4489C21.6188 24.6966 21.6498 25.1455 21.7581 25.2848C21.9284 25.5016 22.0832 25.5635 22.5166 25.5635C23.368 25.5635 24.0956 25.192 24.173 24.743C24.2504 24.3715 23.9253 23.8607 23.4764 23.6285C23.2442 23.5047 22.7643 23.4582 22.5166 23.5356ZM23.5074 24.3096C23.6312 24.1238 23.5848 23.9226 23.3526 23.7833C22.9346 23.5201 22.2999 23.7369 22.2999 24.1393C22.2999 24.3406 22.625 24.5573 22.9346 24.5573C23.1358 24.5573 23.4145 24.4334 23.5074 24.3096Z" fill="#FF007A"/>
</g>
</g>
<defs>
<clipPath id="clip0_114_604">
<rect width="48" height="48" fill="white"/>
</clipPath>
<clipPath id="clip1_114_604">
<rect width="26.0526" height="30" fill="white" transform="translate(10.9688 9)"/>
</clipPath>
</defs>
</svg>
