<svg width="48" height="48" viewBox="0 0 48 48" fill="none" xmlns="http://www.w3.org/2000/svg">
<g id="Coins/USDT">
<circle id="Ellipse 1" cx="24" cy="24" r="24" fill="#50AF95"/>
<g id="Group 2">
<path id="Vector" fill-rule="evenodd" clip-rule="evenodd" d="M26.8611 24.9885C26.7013 25.0005 25.8756 25.0498 24.0338 25.0498C22.5689 25.0498 21.5288 25.0058 21.1639 24.9885C15.5027 24.7395 11.2771 23.754 11.2771 22.5741C11.2771 21.3941 15.5027 20.41 21.1639 20.1569V24.007C21.5342 24.0336 22.5942 24.0962 24.0591 24.0962C25.817 24.0962 26.6973 24.023 26.8558 24.0083V20.1596C32.505 20.4113 36.7213 21.3968 36.7213 22.5741C36.7213 23.7513 32.5064 24.7368 26.8558 24.9872L26.8611 24.9885ZM26.8611 19.7614V16.3162H34.745V11.0625H13.28V16.3162H21.1626V19.7601C14.7556 20.0544 9.93738 21.3236 9.93738 22.8444C9.93738 24.3652 14.7556 25.6331 21.1626 25.9287V36.9688H26.8598V25.9247C33.2521 25.6304 38.0624 24.3626 38.0624 22.8431C38.0624 21.3236 33.2561 20.0557 26.8598 19.7601L26.8611 19.7614Z" fill="white"/>
</g>
</g>
</svg>
