<svg width="48" height="48" viewBox="0 0 48 48" fill="none" xmlns="http://www.w3.org/2000/svg">
<g id="Coins/SHIBA" clip-path="url(#clip0_114_553)">
<g id="Group_938">
<g id="Group_931">
<path id="Path_8573" d="M35.019 4.22547C33.784 5.46048 32.6525 6.79903 31.6467 8.22632L31.3287 8.12278C29.4947 7.52377 27.5941 7.154 25.6787 7.02828C25.1019 6.98391 22.9499 6.98391 22.2473 7.02828C20.1249 7.16879 18.4979 7.48679 16.6491 8.13018C16.5752 8.15976 16.5086 8.18195 16.442 8.20413C15.3993 6.78424 14.2382 5.45309 12.9589 4.23287C19.0969 1.08987 26.2778 0.712711 32.7043 3.19013C33.392 3.44897 34.065 3.75217 34.7232 4.07757L35.019 4.22547Z" fill="#F00500"/>
<path id="Path_8574" d="M46.467 32.2758C45.5352 34.9307 44.1375 37.3933 42.3257 39.538C41.3421 40.6916 40.255 41.7492 39.0865 42.7106C36.3503 44.9143 33.1555 46.4895 29.7463 47.3178C25.9747 48.2274 22.0404 48.2274 18.2688 47.3178C14.8522 46.4895 11.6648 44.9143 8.92857 42.7106C7.76012 41.7492 6.67301 40.6916 5.68944 39.538C0.475761 33.3777 -1.10683 24.9175 1.54808 17.2929C2.05096 15.8804 2.67956 14.5197 3.43387 13.2255C3.78145 12.6339 4.21038 11.9683 4.41745 11.6947C5.1274 14.749 6.00004 17.4334 6.32543 18.4022C6.30324 18.454 6.27366 18.5132 6.24408 18.5649C4.52098 22.0555 3.58918 25.4204 3.36732 28.9997C3.36732 29.0441 3.35992 29.0958 3.35992 29.1402C3.30076 30.2125 3.33034 30.7228 3.50783 31.3958C4.06247 33.5034 5.77079 35.8255 8.44788 38.1033C12.8333 41.8305 18.7791 44.5224 23.2828 44.833C27.9788 45.151 34.9082 42.4073 39.5229 38.3991C40.2476 37.7557 40.928 37.0753 41.5639 36.3506C42.0225 35.8181 42.7028 34.9011 42.6511 34.9011C42.6363 34.9011 42.6511 34.8863 42.6806 34.8715C42.7028 34.8568 42.725 34.8346 42.7102 34.8198C42.7028 34.8124 42.7176 34.7902 42.7398 34.7828C42.762 34.7754 42.7768 34.7606 42.7694 34.7458C42.762 34.731 42.7694 34.7162 42.799 34.7088C42.8212 34.7015 42.8285 34.6793 42.8211 34.6645C42.8138 34.6497 42.8212 34.6349 42.8359 34.6349C42.8507 34.6349 42.8655 34.6127 42.8655 34.5979C42.8655 34.5831 42.8803 34.5609 42.8951 34.5609C42.9099 34.5609 42.9247 34.5462 42.9247 34.5314C42.9469 34.4722 42.9839 34.413 43.0208 34.3613C43.1318 34.1912 43.5755 33.3999 43.6346 33.2668C44.0562 32.3128 44.3224 31.4623 44.4481 30.6119C44.5073 30.2051 44.5443 29.4582 44.5147 29.2807C44.5073 29.2511 44.5073 29.1994 44.4999 29.118C44.4851 28.9701 44.4777 28.7482 44.4629 28.5264C44.4481 28.1936 44.4185 27.7277 44.3963 27.4984C44.0784 24.141 43.2205 21.3973 41.5935 18.491C41.527 18.38 41.4678 18.2691 41.4308 18.1804C41.416 18.1582 41.4087 18.136 41.4013 18.1212C41.6305 17.4335 42.5697 14.5567 43.3166 11.2658L43.3314 11.2806L43.4424 11.4285C43.6346 11.6873 44.1449 12.4564 44.3742 12.8262C45.4169 14.5271 46.2304 16.3537 46.8072 18.2617C48.1458 22.8542 48.0348 27.7499 46.467 32.2758Z" fill="#F00500"/>
<path id="Path_8575" d="M36.8682 23.4384C36.846 23.5567 36.4984 23.9117 36.1509 24.1705C35.1303 24.9175 33.3037 25.6126 31.4475 25.9454C30.3899 26.1377 29.3324 26.1673 29.0144 26.012C28.8073 25.9084 28.7778 25.8271 28.8517 25.5609C29.007 25.0062 29.5099 24.3998 30.2938 23.8304C30.6931 23.542 32.3127 22.5584 33.067 22.1442C34.3094 21.4639 35.3152 21.0571 35.9956 20.961C36.21 20.9314 36.4689 20.924 36.5502 20.961C36.6833 21.0128 36.8312 21.4047 36.8904 21.878C36.92 22.1294 36.9052 23.2387 36.8682 23.4384Z" fill="black"/>
<path id="Path_8576" d="M19.4448 25.8863C19.4005 25.975 19.1786 26.0711 18.9272 26.1081C18.6757 26.1451 17.9066 26.1229 17.4703 26.0711C15.9025 25.8641 14.2386 25.3834 13.0257 24.7917C12.3454 24.459 11.8573 24.1262 11.4949 23.7638L11.2878 23.5493L11.2656 23.2683C11.2287 22.7802 11.2361 22.0111 11.2952 21.7375C11.3322 21.5082 11.4135 21.2864 11.5245 21.0867C11.5836 21.0128 11.5836 21.0128 11.8499 21.0128C12.1753 21.0128 12.4489 21.0645 12.8926 21.205C13.8022 21.4861 15.1556 22.1664 16.8047 23.1574C18.1654 23.9709 18.6757 24.3702 19.0677 24.9175C19.3339 25.2577 19.5114 25.7383 19.4448 25.8863Z" fill="black"/>
<path id="Path_8577" d="M29.9166 36.1805C29.9166 36.2027 29.8279 36.5576 29.717 36.9792C29.606 37.4007 29.5173 37.7409 29.5173 37.7557C29.4359 37.7631 29.362 37.7705 29.2806 37.7631H29.044L28.7186 38.5322C28.5411 38.9537 28.3784 39.3457 28.3562 39.4048L28.3119 39.5084L28.1566 39.2569L28.0013 39.0055V36.957L27.9421 36.9718C27.8164 37.0014 26.9215 37.1197 26.5296 37.1567C24.91 37.3194 23.2831 37.2824 21.6709 37.0531C21.412 37.0161 21.1902 36.9866 21.1828 36.994C21.1754 37.0014 21.1828 37.4747 21.1976 38.0589L21.2198 39.109L21.0941 39.3013C21.0275 39.4048 20.9609 39.4936 20.9609 39.501C20.9388 39.5231 20.8648 39.4048 20.6947 39.0646C20.5098 38.7097 20.3767 38.3325 20.2806 37.9406L20.2288 37.7261L19.9995 37.7409L19.7703 37.7631L19.7111 37.4894C19.6815 37.3415 19.6446 37.1123 19.6298 36.9866L19.6076 36.7499L19.4153 36.5798C19.3044 36.4837 19.1935 36.3875 19.1713 36.3728C19.1343 36.3432 19.1195 36.2914 19.1195 36.247V36.1583L20.0439 36.1657L20.9683 36.1731L20.9979 36.2692L21.0275 36.3654L21.3455 36.3802C21.523 36.3876 22.085 36.4023 22.5879 36.4171L23.5123 36.4393L23.749 36.0696L23.993 35.6998H24.3036L24.2962 34.9307L24.2888 34.1616L23.8821 33.9841C22.5731 33.4073 21.804 32.7491 21.5156 31.9504C21.4564 31.7877 21.4564 31.7285 21.4416 30.989C21.4342 30.2569 21.4342 30.1903 21.486 30.0276C21.5895 29.6578 21.878 29.3694 22.2477 29.2733C22.3734 29.2363 22.7062 29.2363 24.4515 29.2363L26.5074 29.2437L26.7367 29.3546C27.0103 29.4878 27.136 29.5839 27.2913 29.791C27.4688 30.0276 27.5206 30.2125 27.5206 30.6636C27.5206 31.307 27.4762 31.8616 27.4096 32.0835C27.3135 32.3867 27.1656 32.6751 26.9807 32.934C26.6109 33.4073 25.938 33.8805 25.3242 34.095L25.1467 34.1616L25.1541 34.9381L25.1615 35.7146L25.3242 35.7294L25.4869 35.7442L25.7087 36.0769L25.9232 36.4097H26.9141C27.4614 36.4097 27.9421 36.4171 27.9865 36.4245C28.0604 36.4393 28.0752 36.4319 28.1492 36.3062L28.2379 36.1731H29.0884C29.7244 36.1435 29.9166 36.1583 29.9166 36.1805Z" fill="black"/>
<path id="Path_8578" d="M26.0113 38.3029C25.8708 38.3843 25.7747 38.4213 25.7525 38.4065C25.7303 38.3991 25.6268 38.3103 25.5158 38.229L25.3162 38.0663L25.1091 38.2881C24.658 38.7762 24.6432 38.7984 24.5101 38.8058C24.303 38.828 24.2586 38.791 24.0072 38.4139C23.8741 38.2216 23.7706 38.0589 23.7706 38.0589C23.7706 38.0589 23.6744 38.0441 23.5635 38.0367L23.3564 38.0145L23.2603 38.2142L23.1641 38.4139L22.9941 38.3621C22.8609 38.3177 22.7278 38.266 22.6021 38.2068L22.3802 38.0959V37.6743L24.3474 37.6817L26.3145 37.6891L26.3219 37.8888C26.3293 38.1255 26.3367 38.1181 26.0113 38.3029Z" fill="black"/>
</g>
<path id="Path_8579" d="M44.4998 29.2807C44.4924 29.2511 44.4924 29.1993 44.485 29.118C42.7101 28.9257 37.6444 28.8074 32.941 32.6899C32.941 32.6899 31.4249 25.7383 24.3255 25.7383C17.226 25.7383 14.5933 32.6899 14.5933 32.6899C10.6146 28.408 5.29002 28.7186 3.36724 28.9997C3.36724 29.044 3.35984 29.0958 3.35984 29.1402C3.30068 30.2125 3.33026 30.7228 3.50775 31.3957C4.0624 33.5034 5.77071 35.8255 8.4478 38.1033C12.8332 41.8305 18.779 44.5224 23.2827 44.833C27.9787 45.151 34.9081 42.4073 39.5228 38.3991C40.2475 37.7557 40.9279 37.0753 41.5639 36.3506C42.0224 35.8181 42.7028 34.9011 42.651 34.9011C42.6362 34.9011 42.651 34.8863 42.6806 34.8715C42.7028 34.8567 42.7249 34.8345 42.7101 34.8197C42.7028 34.8124 42.7175 34.7902 42.7397 34.7828C42.7619 34.7754 42.7767 34.7606 42.7693 34.7458C42.7619 34.731 42.7693 34.7162 42.7989 34.7088C42.8211 34.7014 42.8285 34.6792 42.8211 34.6644C42.8137 34.6497 42.8211 34.6349 42.8359 34.6349C42.8507 34.6349 42.8655 34.6127 42.8655 34.5979C42.8655 34.5831 42.8802 34.5609 42.895 34.5609C42.9098 34.5609 42.9246 34.5461 42.9246 34.5313C42.9468 34.4722 42.9838 34.413 43.0208 34.3612C43.1317 34.1911 43.5754 33.3999 43.6346 33.2667C44.0561 32.3127 44.3223 31.4623 44.448 30.6118C44.4924 30.2051 44.5294 29.4582 44.4998 29.2807ZM26.0116 38.3029C25.8711 38.3843 25.775 38.4213 25.7528 38.4065C25.7306 38.3991 25.627 38.3103 25.5161 38.229L25.3164 38.0663L25.1094 38.2881C24.6583 38.7762 24.6435 38.7984 24.5104 38.8058C24.3033 38.828 24.2589 38.791 24.0075 38.4139C23.8744 38.2216 23.7708 38.0589 23.7708 38.0589C23.7708 38.0589 23.6747 38.0441 23.5638 38.0367L23.3567 38.0145L23.2605 38.2142L23.1644 38.4139L22.9943 38.3621C22.8612 38.3177 22.7281 38.266 22.6024 38.2068L22.3805 38.0959V37.6743L24.3477 37.6817L26.3148 37.6891L26.3222 37.8888C26.3296 38.1254 26.337 38.118 26.0116 38.3029ZM29.7092 36.9718C29.5983 37.3933 29.5096 37.7335 29.5096 37.7483C29.4282 37.7557 29.3543 37.7631 29.2729 37.7557H29.0363L28.7183 38.5322C28.5408 38.9537 28.3781 39.3457 28.3559 39.4048L28.3115 39.5084L28.1562 39.2569L28.0009 39.0055V36.957L27.9418 36.9718C27.816 37.0014 26.9212 37.1197 26.5293 37.1567C24.9097 37.3194 23.2827 37.2824 21.6706 37.0531C21.4117 37.0161 21.1899 36.9866 21.1825 36.994C21.1751 37.0014 21.1825 37.4747 21.1973 38.0589L21.2195 39.109L21.0937 39.3013C21.0272 39.4048 20.9606 39.4936 20.9606 39.501C20.9384 39.5231 20.8645 39.4048 20.6944 39.0646C20.5095 38.7097 20.3764 38.3325 20.2803 37.9406L20.2285 37.7261L19.9992 37.7409L19.77 37.7631L19.7108 37.4894C19.6812 37.3415 19.6443 37.1123 19.6295 36.9866L19.6073 36.7499L19.415 36.5798C19.3041 36.4837 19.1931 36.3875 19.171 36.3728C19.134 36.3432 19.1192 36.2914 19.1192 36.247V36.1583L20.0436 36.1657L20.968 36.1731L20.9976 36.2692L21.0272 36.3654L21.3452 36.3802C21.5227 36.3876 22.0847 36.4023 22.5876 36.4171L23.512 36.4393L23.7486 36.0696L23.9927 35.6998H24.3033L24.2959 34.9307L24.2885 34.1616L23.8818 33.9841C22.5728 33.4073 21.8037 32.7491 21.5153 31.9504C21.4561 31.7877 21.4561 31.7285 21.4413 30.989C21.4339 30.2569 21.4339 30.1903 21.4857 30.0276C21.5892 29.6578 21.8776 29.3694 22.2474 29.2733C22.3731 29.2363 22.7059 29.2363 24.4512 29.2363L26.5071 29.2437L26.7363 29.3546C27.01 29.4878 27.1357 29.5839 27.291 29.791C27.4685 30.0276 27.5202 30.2125 27.5202 30.6636C27.5202 31.307 27.4759 31.8616 27.4093 32.0835C27.3132 32.3867 27.1653 32.6751 26.9804 32.934C26.6106 33.4072 25.9376 33.8805 25.3238 34.095L25.1463 34.1616L25.1537 34.9381L25.1611 35.7146L25.3238 35.7294L25.4865 35.7442L25.7084 36.0769L25.9228 36.4097H26.9138C27.4611 36.4097 27.9418 36.4171 27.9861 36.4245C28.0601 36.4393 28.0749 36.4319 28.1488 36.3062L28.2376 36.1731H29.088C29.7462 36.1731 29.9385 36.1805 29.9385 36.2027C29.9163 36.1953 29.8202 36.5576 29.7092 36.9718Z" fill="white"/>
<path id="Path_8582" d="M44.4404 28.5264C44.4256 28.1936 44.396 27.7277 44.3738 27.4984C44.0558 24.141 43.198 21.3973 41.571 18.491C41.5044 18.38 41.4453 18.2691 41.4083 18.1804C41.3935 18.1582 41.3861 18.136 41.3787 18.1212C41.608 17.4334 42.5472 14.5567 43.2941 11.2658C44.3072 6.79902 44.9506 1.57795 42.9835 0.0101477C42.9835 0.0101477 39.5817 -0.241292 35.0262 4.22546C33.7912 5.46047 32.6597 6.79902 31.6539 8.22631L31.3359 8.12277C29.5019 7.52375 27.6013 7.15399 25.6859 7.02827C25.1091 6.9839 22.9571 6.9839 22.2545 7.02827C20.1321 7.16878 18.5051 7.48678 16.6563 8.13017C16.5823 8.15975 16.5158 8.18193 16.4492 8.20412C15.4065 6.78423 14.2454 5.45308 12.966 4.23285C8.22566 -0.256082 4.69812 0.00275192 4.69812 0.00275192C2.61265 1.62232 3.32259 7.08004 4.4023 11.6947C5.11225 14.7489 5.98489 17.4334 6.31029 18.4022C6.2881 18.454 6.25852 18.5131 6.22894 18.5649C4.50584 22.0555 3.57403 25.4203 3.35217 28.9997C5.28234 28.7186 10.5996 28.4006 14.5856 32.6899C14.5856 32.6899 17.2183 25.7383 24.3178 25.7383C31.4173 25.7383 32.9333 32.6899 32.9333 32.6899C37.6367 28.8074 42.7025 28.9331 44.4773 29.118C44.4699 28.9701 44.4552 28.7482 44.4404 28.5264ZM7.708 15.6142C7.708 15.6142 4.94216 8.69961 5.6521 4.75052C5.77043 4.08495 5.99229 3.50072 6.33987 3.057C6.33987 3.057 9.47546 3.36761 14.5338 8.98802C14.5338 8.98802 13.5725 9.45392 12.2857 10.4449C12.2857 10.4449 12.2783 10.4523 12.2709 10.4523C10.8732 11.5246 9.08352 13.2255 7.708 15.6142ZM19.4443 25.8862C19.3999 25.975 19.1781 26.0711 18.9266 26.1081C18.6752 26.1451 17.9061 26.1229 17.4698 26.0711C15.902 25.8641 14.238 25.3834 13.0252 24.7917C12.3448 24.459 11.8567 24.1262 11.4944 23.7638L11.2873 23.5493L11.2651 23.2683C11.2281 22.7802 11.2355 22.0111 11.2947 21.7375C11.3317 21.5082 11.413 21.2864 11.524 21.0867C11.5831 21.0127 11.5831 21.0127 11.8494 21.0127C12.1747 21.0127 12.4484 21.0645 12.8921 21.205C13.8017 21.486 15.155 22.1664 16.8042 23.1574C18.1649 23.9709 18.6752 24.3702 19.0671 24.9175C19.3334 25.2576 19.5109 25.7383 19.4443 25.8862ZM36.8676 23.4384C36.8454 23.5567 36.4978 23.9117 36.1503 24.1705C35.1297 24.9175 33.3031 25.6126 31.4469 25.9454C30.3893 26.1377 29.3318 26.1673 29.0138 26.012C28.8067 25.9084 28.7772 25.8271 28.8511 25.5608C29.0064 25.0062 29.5093 24.3998 30.2932 23.8304C30.6925 23.5419 32.3121 22.5584 33.0664 22.1442C34.3088 21.4639 35.3146 21.0571 35.995 20.961C36.2094 20.9314 36.4683 20.924 36.5496 20.961C36.6827 21.0128 36.8306 21.4047 36.8898 21.878C36.9194 22.1294 36.9046 23.2387 36.8676 23.4384ZM35.64 10.4449L35.6252 10.4375C34.3828 9.44653 33.451 8.98063 33.451 8.98063C38.3393 3.36021 41.3639 3.04961 41.3639 3.04961C41.6967 3.50072 41.9112 4.07755 42.0295 4.74313C42.7173 8.69221 40.0476 15.6142 40.0476 15.6142C38.9309 13.6249 37.4296 11.8648 35.64 10.4449Z" fill="#FFA409"/>
<g id="Group_934">
<g id="Group_933">
<g id="Group_932">
<path id="Path_8585" d="M42.0371 4.74313C41.4603 4.66917 38.7314 4.65438 35.6402 10.4449L35.6254 10.4375C34.383 9.44653 33.4512 8.98062 33.4512 8.98062C38.3395 3.36021 41.3641 3.04961 41.3641 3.04961C41.7043 3.50072 41.9188 4.07755 42.0371 4.74313Z" fill="#FF9300"/>
</g>
<path id="Path_8586" d="M40.0552 15.6142C38.9312 13.6175 37.4373 11.8648 35.6403 10.4449C38.7315 4.6544 41.453 4.66919 42.0372 4.74314C42.7249 8.69962 40.0552 15.6142 40.0552 15.6142Z" fill="#FF8300"/>
<path id="Path_8587" d="M42.1477 4.7653C42.1107 4.75791 42.0737 4.75051 42.0367 4.74312L42.1477 4.7653Z" fill="#FF8300"/>
</g>
</g>
<g id="Group_937">
<g id="Group_936">
<g id="Group_935">
<path id="Path_8590" d="M14.5335 8.98062C14.5335 8.98062 13.5722 9.44653 12.2854 10.4375C12.2854 10.4375 12.278 10.4449 12.2706 10.4449C9.06842 4.64699 6.25082 4.66917 5.64441 4.74313C5.76273 4.07755 5.9846 3.49332 6.33217 3.04961C6.33957 3.04961 9.47516 3.36021 14.5335 8.98062Z" fill="#FF9300"/>
</g>
<path id="Path_8591" d="M12.2785 10.4449C10.8734 11.5246 9.08372 13.2181 7.7082 15.6142C7.7082 15.6142 4.94235 8.69962 5.6523 4.74314C6.25132 4.66919 9.07632 4.6544 12.2785 10.4449Z" fill="#FF8300"/>
<path id="Path_8592" d="M5.65214 4.74312C5.61516 4.75051 5.57079 4.75791 5.53381 4.7653L5.65214 4.74312Z" fill="#FF8300"/>
</g>
</g>
<path id="Path_8593" d="M32.5717 19.4524C32.5717 19.4524 30.2052 19.6003 30.5011 17.7514C30.7969 15.9026 32.6457 15.6808 33.1633 15.7547C33.681 15.8287 35.7517 16.5682 35.3819 18.1212C35.0122 19.6742 34.4945 19.3784 34.1987 19.4524C33.9029 19.5263 32.5717 19.4524 32.5717 19.4524Z" fill="white"/>
<path id="Path_8594" d="M15.1181 19.4524C15.1181 19.4524 12.7516 19.6003 13.0474 17.7514C13.3433 15.9026 15.1921 15.6808 15.7097 15.7547C16.2274 15.8287 18.2981 16.5682 17.9283 18.1212C17.5586 19.6742 17.0409 19.3784 16.7451 19.4524C16.4493 19.5263 15.1181 19.4524 15.1181 19.4524Z" fill="white"/>
</g>
</g>
<defs>
<clipPath id="clip0_114_553">
<rect width="48" height="48" fill="white"/>
</clipPath>
</defs>
</svg>
