<svg width="48" height="48" viewBox="0 0 48 48" fill="none" xmlns="http://www.w3.org/2000/svg">
<g id="Coins/USDC">
<path id="Vector" d="M24 48C37.3001 48 48 37.3001 48 24C48 10.6999 37.3001 0 24 0C10.6999 0 0 10.6999 0 24C0 37.3001 10.6999 48 24 48Z" fill="#2775CA"/>
<path id="Vector_2" d="M30.6001 27.7999C30.6001 24.3 28.5001 23.1 24.3001 22.6001C21.3001 22.2 20.7001 21.4001 20.7001 19.9999C20.7001 18.5998 21.7002 17.7 23.7001 17.7C25.5001 17.7 26.5002 18.3 27.0001 19.8C27.1002 20.1 27.4002 20.2999 27.7002 20.2999H29.3C29.7001 20.2999 30.0001 19.9999 30.0001 19.6001V19.5C29.6 17.2999 27.8 15.6 25.5001 15.4001V13.0001C25.5001 12.6 25.2001 12.3 24.7002 12.1999H23.2002C22.8001 12.1999 22.5001 12.4999 22.4 13.0001V15.3C19.4 15.7001 17.5002 17.7 17.5002 20.2001C17.5002 23.5001 19.5001 24.7999 23.7001 25.3001C26.5002 25.8 27.4002 26.4 27.4002 28.0001C27.4002 29.6002 26 30.7001 24.1002 30.7001C21.5 30.7001 20.6 29.5999 20.3 28.0999C20.2002 27.7001 19.9002 27.4999 19.6002 27.4999H17.9C17.5002 27.4999 17.2002 27.7999 17.2002 28.2V28.3001C17.6 30.7999 19.2001 32.5999 22.5001 33.1001V35.5001C22.5001 35.8999 22.8001 36.1999 23.3 36.3H24.8C25.2001 36.3 25.5001 36 25.6002 35.5001V33.1001C28.6002 32.5999 30.6001 30.4999 30.6001 27.7999Z" fill="white"/>
<path id="Vector_3" d="M18.9002 38.2999C11.1002 35.5001 7.10016 26.8001 10.0003 19.0999C11.5003 14.8999 14.8003 11.7 18.9002 10.2C19.3003 10.0001 19.5002 9.70009 19.5002 9.19993V7.80001C19.5002 7.39993 19.3003 7.09993 18.9002 7.00009C18.8002 7.00009 18.6002 7.00009 18.5002 7.09993C9.00024 10.0999 3.80016 20.2001 6.80016 29.7C8.60016 35.2999 12.9002 39.6 18.5002 41.4C18.9002 41.5999 19.3003 41.4 19.4002 40.9999C19.5002 40.9001 19.5002 40.8 19.5002 40.6001V39.1999C19.5002 38.8999 19.2002 38.5001 18.9002 38.2999ZM29.5003 7.09993C29.1002 6.90001 28.7002 7.09993 28.6003 7.50001C28.5002 7.60009 28.5002 7.69993 28.5002 7.90009V9.30001C28.5002 9.70009 28.8002 10.0999 29.1002 10.3001C36.9002 13.0999 40.9003 21.7999 38.0002 29.5001C36.5002 33.7001 33.2002 36.9 29.1002 38.4C28.7002 38.5999 28.5002 38.8999 28.5002 39.4001V40.8C28.5002 41.2001 28.7002 41.5001 29.1002 41.5999C29.2003 41.5999 29.4002 41.5999 29.5003 41.5001C39.0002 38.5001 44.2003 28.3999 41.2003 18.9C39.4003 13.2 35.0002 8.89993 29.5003 7.09993Z" fill="white"/>
</g>
</svg>
