<svg width="64" height="63" viewBox="0 0 64 63" fill="none" xmlns="http://www.w3.org/2000/svg">
<rect x="8" y="7" width="48" height="48" fill="white" fill-opacity="0.01"/>
<g filter="url(#filter0_dd_63_3382)">
<path d="M25.363 46.557L27.757 40.48C24.6548 38.9215 22.5215 35.7067 22.5215 32.003C22.5215 26.7733 26.7733 22.5215 32.003 22.5215C37.2326 22.5215 41.4844 26.7733 41.4844 32.003C41.4844 35.8074 39.2296 39.0874 35.9881 40.5956L38.4415 46.643C44.0652 44.16 48 38.5333 48 32C48 23.1763 40.8237 16 32 16C23.1763 16 16 23.1763 16 32C16 38.4533 19.843 44.0267 25.36 46.5541L25.363 46.557Z" fill="#FFFCFC"/>
<path d="M32.2993 33.5199C33.1845 33.5199 33.9022 32.8022 33.9022 31.9169C33.9022 31.0316 33.1845 30.314 32.2993 30.314C31.414 30.314 30.6963 31.0316 30.6963 31.9169C30.6963 32.8022 31.414 33.5199 32.2993 33.5199Z" fill="#FFFCFC"/>
</g>
<defs>
<filter id="filter0_dd_63_3382" x="0" y="0" width="64" height="62.6431" filterUnits="userSpaceOnUse" color-interpolation-filters="sRGB">
<feFlood flood-opacity="0" result="BackgroundImageFix"/>
<feColorMatrix in="SourceAlpha" type="matrix" values="0 0 0 0 0 0 0 0 0 0 0 0 0 0 0 0 0 0 127 0" result="hardAlpha"/>
<feOffset/>
<feGaussianBlur stdDeviation="8"/>
<feComposite in2="hardAlpha" operator="out"/>
<feColorMatrix type="matrix" values="0 0 0 0 0.172549 0 0 0 0 0.780392 0 0 0 0 1 0 0 0 0.75 0"/>
<feBlend mode="normal" in2="BackgroundImageFix" result="effect1_dropShadow_63_3382"/>
<feColorMatrix in="SourceAlpha" type="matrix" values="0 0 0 0 0 0 0 0 0 0 0 0 0 0 0 0 0 0 127 0" result="hardAlpha"/>
<feOffset/>
<feGaussianBlur stdDeviation="4"/>
<feComposite in2="hardAlpha" operator="out"/>
<feColorMatrix type="matrix" values="0 0 0 0 0.172549 0 0 0 0 0.780392 0 0 0 0 1 0 0 0 0.75 0"/>
<feBlend mode="normal" in2="effect1_dropShadow_63_3382" result="effect2_dropShadow_63_3382"/>
<feBlend mode="normal" in="SourceGraphic" in2="effect2_dropShadow_63_3382" result="shape"/>
</filter>
</defs>
</svg>
