    <svg viewBox="0 0 160 36" fill="none" xmlns="http://www.w3.org/2000/svg">
      <g clipPath="url(#clip0)">
        <path d="M53.4978 9.16699L58.6236 23.1835L63.6987 9.16699H67.5715L60.1803 27.7113H57.0795L49.625 9.16699H53.4978Z" fill="white" />
        <path d="M77.0129 27.8349C75.6207 27.8349 74.3678 27.5751 73.2287 27.0431C72.0897 26.5112 71.1278 25.806 70.3178 24.9277C69.5078 24.0493 68.875 23.0473 68.432 21.9091C67.989 20.7833 67.7612 19.6205 67.7612 18.4328C67.7612 17.1957 68.0017 16.0081 68.47 14.8823C68.9383 13.7565 69.5964 12.7545 70.419 11.8761C71.2417 10.9978 72.2289 10.3174 73.3679 9.79777C74.507 9.27818 75.7473 9.03076 77.0762 9.03076C78.4431 9.03076 79.6961 9.30293 80.8351 9.85963C81.9615 10.404 82.9361 11.1215 83.7334 12.0122C84.5307 12.9029 85.1636 13.905 85.6065 15.0431C86.0495 16.1813 86.2773 17.3194 86.2773 18.4947C86.2773 19.7318 86.0495 20.907 85.5812 22.0328C85.1129 23.1586 84.4801 24.1483 83.6575 25.0143C82.8348 25.8802 81.8603 26.5607 80.7212 27.0802C79.5822 27.5751 78.3418 27.8349 77.0129 27.8349ZM71.5075 18.4328C71.5075 19.2369 71.634 20.004 71.8872 20.7586C72.1403 21.5009 72.4947 22.1689 72.9629 22.738C73.4312 23.307 74.0134 23.7772 74.6968 24.1235C75.3803 24.4699 76.165 24.6431 77.0382 24.6431C77.9242 24.6431 78.7215 24.4699 79.405 24.1112C80.0884 23.7524 80.6706 23.2823 81.1389 22.6885C81.6072 22.0947 81.9615 21.4266 82.202 20.6967C82.4425 19.9668 82.569 19.1998 82.569 18.4328C82.569 17.6287 82.4425 16.8617 82.1767 16.1071C81.9236 15.3648 81.5565 14.6967 81.0756 14.1277C80.6073 13.5586 80.0251 13.1009 79.3417 12.7545C78.6582 12.4205 77.8862 12.2473 77.0256 12.2473C76.1397 12.2473 75.3423 12.4205 74.6462 12.7792C73.9501 13.138 73.3679 13.6081 72.9123 14.1895C72.444 14.771 72.1023 15.439 71.8618 16.1689C71.6214 16.9235 71.5075 17.6658 71.5075 18.4328Z" fill="white" />
        <path d="M92.7953 15.8227V27.699H89.1123V9.16699H91.9726L101.857 21.3402V9.19173H105.54V27.7113H102.553L92.7953 15.8227Z" fill="white" />
        <path d="M109.489 27.7113V9.16699H116.387C117.931 9.16699 119.298 9.41442 120.462 9.89689C121.626 10.3794 122.601 11.0474 123.386 11.8763C124.17 12.7175 124.752 13.6948 125.145 14.8082C125.537 15.934 125.727 17.134 125.727 18.3959C125.727 19.8062 125.512 21.0804 125.069 22.2185C124.626 23.3567 124.006 24.334 123.183 25.1381C122.36 25.9423 121.386 26.5732 120.234 27.0185C119.082 27.4639 117.804 27.6866 116.374 27.6866H109.489V27.7113ZM122.019 18.4082C122.019 17.5175 121.892 16.701 121.639 15.9587C121.386 15.2165 121.019 14.5608 120.538 14.0288C120.057 13.4845 119.462 13.0763 118.766 12.7794C118.057 12.4825 117.26 12.334 116.374 12.334H113.172V24.5567H116.374C117.285 24.5567 118.083 24.3959 118.791 24.0866C119.5 23.7773 120.082 23.3443 120.551 22.8C121.019 22.2557 121.386 21.6 121.626 20.8577C121.892 20.0907 122.019 19.2866 122.019 18.4082Z" fill="white" />
        <path d="M141.787 24.5443V27.6989H128.612V9.16699H141.547V12.3216H132.308V16.7876H140.294V19.7072H132.308V24.5319H141.787V24.5443Z" fill="white" />
        <path d="M144.673 27.7113V9.16699H153.064C153.938 9.16699 154.748 9.34019 155.482 9.69895C156.216 10.0577 156.861 10.5278 157.393 11.1093C157.924 11.6907 158.342 12.3587 158.646 13.0886C158.95 13.8185 159.101 14.5732 159.101 15.3154C159.101 16.5154 158.798 17.6041 158.178 18.5938C157.557 19.5835 156.735 20.2886 155.684 20.7216L160.013 27.699H155.874L152.001 21.4886H148.369V27.699H144.673V27.7113ZM148.356 18.334H152.976C153.318 18.334 153.634 18.2598 153.925 18.099C154.216 17.9381 154.469 17.7278 154.684 17.4557C154.9 17.1835 155.064 16.8618 155.191 16.5031C155.317 16.1319 155.381 15.7484 155.381 15.3278C155.381 14.8948 155.305 14.4866 155.165 14.1278C155.026 13.7567 154.836 13.4474 154.596 13.1752C154.355 12.9031 154.077 12.6928 153.773 12.5443C153.469 12.3959 153.14 12.3216 152.824 12.3216H148.369V18.334H148.356Z" fill="white" />
        <path d="M39.2596 2.41237L31.476 4.78763C28.3373 1.73196 24.0721 0 19.6298 0C15.1875 0 10.9223 1.73196 7.78358 4.77526L0 2.41237L4.26515 9.76082C3.30327 11.8639 2.82234 14.1031 2.82234 16.4412C2.82234 20.5732 4.40437 24.532 7.26467 27.5753C10.0111 30.4825 13.7067 32.3134 17.7061 32.7588L19.6298 36.0124L21.5536 32.7588C25.5529 32.3134 29.2485 30.4825 31.9949 27.5629C34.8552 24.5196 36.4373 20.5732 36.4373 16.4412C36.4373 14.1155 35.9437 11.8639 34.9945 9.76082L39.2596 2.41237ZM19.6298 2.04124C23.1482 2.04124 26.5274 3.27835 29.1726 5.48041L23.9329 7.07629L19.6298 14.3629L15.3267 7.07629L10.087 5.48041C12.7322 3.27835 16.124 2.04124 19.6298 2.04124ZM8.79608 26.1773C6.29014 23.5175 4.89796 20.0536 4.89796 16.4289C4.89796 14.9196 5.13843 13.4598 5.59405 12.0495L11.669 22.466L13.4156 20.0412L5.82186 6.98969L13.4915 9.32784L18.1111 17.1464L13.0359 24.8412L16.3518 30.4577C13.4662 29.8268 10.8337 28.3423 8.79608 26.1773ZM19.6298 30.6433L16.2506 24.9155L19.6045 19.8186L22.9204 25.0639L19.6298 30.6433ZM34.349 16.4289C34.349 20.0536 32.9695 23.5175 30.4635 26.1773C28.4259 28.3423 25.7934 29.8268 22.8951 30.4701L26.1098 25.0268L21.1359 17.1588L25.7681 9.32784L33.4377 6.98969L25.7554 20.1402L27.426 22.6887L33.6529 12.0371C34.1212 13.4474 34.349 14.9196 34.349 16.4289Z" fill="white" />
      </g>
      <defs>
        <clipPath id="clip0">
          <rect fill="white" />
        </clipPath>
      </defs>
    </svg>